<?xml version="1.0" encoding="UTF-8"?>
<svg xmlns="http://www.w3.org/2000/svg" xmlns:xlink="http://www.w3.org/1999/xlink" width="100px" height="px" viewBox="0 0 99 56" version="1.1">
<g id="surface1">
<path style=" stroke:none;fill-rule:nonzero;fill:rgb(85.882354%,17.254902%,0%);fill-opacity:1;" d="M 13.613281 15.679688 C 13.695312 15.679688 13.777344 15.679688 13.859375 15.679688 C 13.867188 15.746094 13.875 15.808594 13.878906 15.878906 C 13.902344 15.949219 13.921875 16.019531 13.941406 16.09375 C 13.992188 16.117188 14.039062 16.140625 14.089844 16.164062 C 14.339844 16.296875 14.464844 16.472656 14.636719 16.695312 C 14.703125 16.777344 14.765625 16.859375 14.832031 16.945312 C 14.894531 17.019531 14.953125 17.09375 15.015625 17.171875 C 15.097656 17.273438 15.183594 17.371094 15.269531 17.46875 C 15.425781 17.671875 15.425781 17.671875 15.425781 17.835938 C 15.480469 17.835938 15.535156 17.835938 15.59375 17.835938 C 15.59375 17.890625 15.59375 17.945312 15.59375 18.003906 C 15.648438 18.003906 15.703125 18.003906 15.757812 18.003906 C 15.839844 18.207031 15.839844 18.207031 15.921875 18.417969 C 15.976562 18.417969 16.03125 18.417969 16.085938 18.417969 C 16.230469 18.574219 16.230469 18.574219 16.386719 18.78125 C 16.4375 18.847656 16.492188 18.914062 16.542969 18.984375 C 16.664062 19.164062 16.664062 19.164062 16.664062 19.332031 C 16.714844 19.351562 16.765625 19.371094 16.816406 19.394531 C 17.019531 19.507812 17.105469 19.617188 17.238281 19.808594 C 17.394531 20.027344 17.550781 20.238281 17.726562 20.441406 C 17.902344 20.65625 17.902344 20.65625 17.902344 20.824219 C 17.957031 20.824219 18.011719 20.824219 18.066406 20.824219 C 18.179688 20.949219 18.285156 21.078125 18.386719 21.210938 C 18.441406 21.285156 18.5 21.355469 18.558594 21.429688 C 18.613281 21.503906 18.667969 21.578125 18.726562 21.652344 C 18.789062 21.726562 18.851562 21.800781 18.914062 21.878906 C 19.058594 22.066406 19.058594 22.066406 19.058594 22.234375 C 19.113281 22.234375 19.167969 22.234375 19.222656 22.234375 C 19.371094 22.40625 19.507812 22.582031 19.644531 22.761719 C 19.683594 22.8125 19.722656 22.863281 19.761719 22.914062 C 20.046875 23.289062 20.046875 23.289062 20.046875 23.480469 C 20.101562 23.480469 20.15625 23.480469 20.210938 23.480469 C 20.320312 23.601562 20.320312 23.601562 20.429688 23.757812 C 20.464844 23.808594 20.503906 23.863281 20.539062 23.917969 C 20.625 24.058594 20.625 24.058594 20.625 24.226562 C 20.679688 24.226562 20.734375 24.226562 20.789062 24.226562 C 20.835938 24.308594 20.882812 24.390625 20.929688 24.472656 C 21.050781 24.6875 21.175781 24.890625 21.304688 25.097656 C 22.339844 26.753906 22.96875 28.535156 22.960938 30.503906 C 22.960938 30.597656 22.960938 30.691406 22.960938 30.789062 C 22.941406 32.449219 22.445312 33.875 21.699219 35.34375 C 21.640625 35.453125 21.585938 35.5625 21.53125 35.675781 C 21.476562 35.675781 21.421875 35.675781 21.367188 35.675781 C 21.359375 35.722656 21.347656 35.773438 21.339844 35.824219 C 21.28125 36.019531 21.210938 36.125 21.085938 36.285156 C 21.046875 36.332031 21.007812 36.382812 20.96875 36.4375 C 20.925781 36.488281 20.882812 36.539062 20.839844 36.59375 C 20.800781 36.644531 20.761719 36.695312 20.71875 36.75 C 20.332031 37.238281 20.332031 37.238281 20.128906 37.417969 C 20.074219 37.417969 20.019531 37.417969 19.964844 37.417969 C 19.9375 37.5 19.910156 37.582031 19.882812 37.664062 C 19.828125 37.664062 19.773438 37.664062 19.71875 37.664062 C 19.691406 37.746094 19.664062 37.828125 19.636719 37.914062 C 19.515625 38.023438 19.515625 38.023438 19.363281 38.132812 C 19.308594 38.171875 19.25 38.214844 19.191406 38.257812 C 19.128906 38.300781 19.070312 38.34375 19.007812 38.386719 C 18.941406 38.429688 18.878906 38.472656 18.8125 38.519531 C 17.625 39.339844 16.144531 40.179688 14.660156 40.160156 C 14.585938 40.160156 14.511719 40.15625 14.4375 40.15625 C 14.355469 40.15625 14.355469 40.15625 14.273438 40.152344 C 14.273438 40.207031 14.273438 40.261719 14.273438 40.320312 C 13.484375 40.320312 12.695312 40.320312 11.878906 40.320312 C 11.878906 40.265625 11.878906 40.210938 11.878906 40.152344 C 11.808594 40.148438 11.738281 40.144531 11.664062 40.140625 C 11.566406 40.136719 11.472656 40.128906 11.375 40.121094 C 11.28125 40.117188 11.1875 40.113281 11.089844 40.105469 C 10.808594 40.070312 10.578125 40.003906 10.3125 39.90625 C 10.242188 39.882812 10.171875 39.859375 10.101562 39.832031 C 9 39.449219 8.003906 38.894531 7.09375 38.164062 C 7.039062 38.136719 6.984375 38.109375 6.929688 38.078125 C 6.929688 38.023438 6.929688 37.96875 6.929688 37.914062 C 6.847656 37.886719 6.765625 37.859375 6.683594 37.832031 C 6.683594 37.777344 6.683594 37.722656 6.683594 37.664062 C 6.628906 37.664062 6.574219 37.664062 6.515625 37.664062 C 6.34375 37.507812 6.34375 37.507812 6.1875 37.332031 C 6.1875 37.277344 6.1875 37.222656 6.1875 37.167969 C 6.117188 37.140625 6.117188 37.140625 6.042969 37.113281 C 5.796875 36.964844 5.671875 36.78125 5.507812 36.546875 C 5.449219 36.464844 5.390625 36.382812 5.332031 36.300781 C 5.199219 36.089844 5.199219 36.089844 5.199219 35.921875 C 5.144531 35.921875 5.089844 35.921875 5.03125 35.921875 C 4.519531 35.222656 4.242188 34.414062 3.960938 33.601562 C 3.921875 33.5 3.921875 33.5 3.882812 33.394531 C 3.300781 31.816406 3.238281 29.820312 3.710938 28.207031 C 3.773438 27.988281 3.828125 27.769531 3.886719 27.550781 C 3.902344 27.492188 3.917969 27.433594 3.933594 27.378906 C 3.96875 27.238281 4.007812 27.101562 4.042969 26.964844 C 4.097656 26.964844 4.152344 26.964844 4.207031 26.964844 C 4.210938 26.882812 4.214844 26.804688 4.21875 26.722656 C 4.289062 26.273438 4.464844 25.878906 4.785156 25.550781 C 5.113281 25.433594 5.429688 25.410156 5.773438 25.386719 C 5.839844 25.371094 5.902344 25.359375 5.96875 25.34375 C 6.265625 25.289062 6.558594 25.289062 6.859375 25.289062 C 6.917969 25.289062 6.980469 25.289062 7.042969 25.289062 C 7.542969 25.292969 8.011719 25.359375 8.496094 25.46875 C 8.503906 25.417969 8.511719 25.371094 8.515625 25.316406 C 8.796875 23.070312 8.796875 23.070312 9.230469 22.039062 C 9.335938 21.78125 9.433594 21.523438 9.527344 21.265625 C 9.679688 20.871094 9.847656 20.519531 10.066406 20.160156 C 10.089844 20.09375 10.117188 20.03125 10.140625 19.964844 C 10.234375 19.730469 10.347656 19.523438 10.476562 19.304688 C 10.519531 19.230469 10.5625 19.15625 10.605469 19.082031 C 10.644531 19.027344 10.683594 18.972656 10.726562 18.914062 C 10.78125 18.914062 10.832031 18.914062 10.890625 18.914062 C 10.917969 18.804688 10.917969 18.804688 10.949219 18.695312 C 11.066406 18.386719 11.207031 18.21875 11.429688 17.980469 C 11.6875 17.722656 11.6875 17.722656 11.878906 17.421875 C 11.933594 17.421875 11.988281 17.421875 12.046875 17.421875 C 12.070312 17.371094 12.09375 17.324219 12.117188 17.273438 C 12.210938 17.089844 12.210938 17.089844 12.375 16.839844 C 12.429688 16.839844 12.484375 16.839844 12.539062 16.839844 C 12.539062 16.785156 12.539062 16.730469 12.539062 16.675781 C 12.691406 16.546875 12.691406 16.546875 12.890625 16.402344 C 13.179688 16.183594 13.390625 15.964844 13.613281 15.679688 Z M 13.613281 15.679688 "/>
<path style=" stroke:none;fill-rule:nonzero;fill:rgb(99.607843%,76.078433%,0%);fill-opacity:1;" d="M 6.675781 25.289062 C 6.753906 25.289062 6.828125 25.285156 6.90625 25.285156 C 7.628906 25.285156 8.273438 25.367188 8.914062 25.71875 C 9.078125 25.800781 9.234375 25.851562 9.410156 25.898438 C 10.089844 26.113281 10.714844 26.566406 11.300781 26.964844 C 11.300781 27.019531 11.300781 27.074219 11.300781 27.128906 C 11.359375 27.140625 11.414062 27.15625 11.472656 27.171875 C 11.828125 27.351562 12.0625 27.636719 12.292969 27.957031 C 12.292969 28.011719 12.292969 28.066406 12.292969 28.125 C 12.414062 28.164062 12.414062 28.164062 12.539062 28.207031 C 12.539062 28.261719 12.539062 28.316406 12.539062 28.375 C 12.59375 28.402344 12.648438 28.429688 12.703125 28.457031 C 13.90625 30.105469 14.265625 32.023438 13.984375 34.03125 C 13.832031 34.804688 13.578125 35.589844 13.167969 36.265625 C 13.125 36.34375 13.082031 36.421875 13.035156 36.503906 C 13.179688 36.9375 13.589844 37.148438 13.941406 37.417969 C 13.984375 37.449219 14.027344 37.484375 14.074219 37.515625 C 15.027344 38.25 16.058594 38.765625 17.160156 39.242188 C 17.082031 39.441406 17.035156 39.550781 16.847656 39.65625 C 16.789062 39.675781 16.730469 39.691406 16.667969 39.710938 C 16.605469 39.734375 16.539062 39.753906 16.472656 39.777344 C 16.40625 39.796875 16.335938 39.816406 16.269531 39.835938 C 16.203125 39.859375 16.132812 39.882812 16.066406 39.902344 C 15.589844 40.054688 15.160156 40.164062 14.660156 40.160156 C 14.585938 40.160156 14.511719 40.15625 14.4375 40.15625 C 14.355469 40.15625 14.355469 40.15625 14.273438 40.152344 C 14.273438 40.207031 14.273438 40.261719 14.273438 40.320312 C 13.484375 40.320312 12.695312 40.320312 11.878906 40.320312 C 11.878906 40.265625 11.878906 40.210938 11.878906 40.152344 C 11.773438 40.148438 11.773438 40.148438 11.664062 40.140625 C 11.566406 40.136719 11.472656 40.128906 11.375 40.121094 C 11.28125 40.117188 11.1875 40.113281 11.089844 40.105469 C 10.808594 40.070312 10.578125 40.003906 10.3125 39.90625 C 10.242188 39.882812 10.171875 39.859375 10.101562 39.832031 C 9 39.449219 8.003906 38.894531 7.09375 38.164062 C 7.039062 38.136719 6.984375 38.109375 6.929688 38.078125 C 6.929688 38.023438 6.929688 37.96875 6.929688 37.914062 C 6.847656 37.886719 6.765625 37.859375 6.683594 37.832031 C 6.683594 37.777344 6.683594 37.722656 6.683594 37.664062 C 6.628906 37.664062 6.574219 37.664062 6.515625 37.664062 C 6.34375 37.507812 6.34375 37.507812 6.1875 37.332031 C 6.1875 37.277344 6.1875 37.222656 6.1875 37.167969 C 6.140625 37.148438 6.09375 37.132812 6.042969 37.113281 C 5.796875 36.964844 5.671875 36.78125 5.507812 36.546875 C 5.449219 36.464844 5.390625 36.382812 5.332031 36.300781 C 5.199219 36.089844 5.199219 36.089844 5.199219 35.921875 C 5.144531 35.921875 5.089844 35.921875 5.03125 35.921875 C 4.519531 35.222656 4.242188 34.414062 3.960938 33.601562 C 3.921875 33.5 3.921875 33.5 3.882812 33.394531 C 3.300781 31.816406 3.238281 29.820312 3.710938 28.207031 C 3.773438 27.988281 3.828125 27.769531 3.886719 27.550781 C 3.910156 27.464844 3.910156 27.464844 3.933594 27.378906 C 3.96875 27.238281 4.007812 27.101562 4.042969 26.964844 C 4.097656 26.964844 4.152344 26.964844 4.207031 26.964844 C 4.210938 26.882812 4.214844 26.804688 4.21875 26.722656 C 4.289062 26.273438 4.464844 25.878906 4.785156 25.550781 C 5.113281 25.4375 5.429688 25.410156 5.773438 25.386719 C 5.964844 25.195312 6.421875 25.289062 6.675781 25.289062 Z M 6.675781 25.289062 "/>
<path style=" stroke:none;fill-rule:nonzero;fill:rgb(37.254903%,36.862746%,36.470589%);fill-opacity:1;" d="M 58.9375 22.046875 C 59.0625 22.046875 59.0625 22.046875 59.1875 22.050781 C 59.273438 22.050781 59.363281 22.050781 59.453125 22.050781 C 59.546875 22.050781 59.640625 22.050781 59.734375 22.050781 C 59.875 22.050781 59.875 22.050781 60.015625 22.054688 C 60.707031 22.054688 60.707031 22.054688 60.800781 22.152344 C 60.808594 22.308594 60.8125 22.46875 60.8125 22.625 C 60.8125 22.726562 60.8125 22.828125 60.8125 22.933594 C 60.8125 23.042969 60.8125 23.15625 60.8125 23.265625 C 60.808594 23.378906 60.808594 23.492188 60.808594 23.605469 C 60.808594 23.90625 60.808594 24.203125 60.808594 24.503906 C 60.808594 24.808594 60.808594 25.113281 60.804688 25.417969 C 60.804688 26.015625 60.804688 26.613281 60.800781 27.210938 C 60.851562 27.144531 60.902344 27.078125 60.957031 27.007812 C 61.132812 26.796875 61.195312 26.742188 61.460938 26.714844 C 61.460938 26.660156 61.460938 26.605469 61.460938 26.546875 C 62.199219 26.164062 62.789062 25.921875 63.621094 25.929688 C 63.738281 25.929688 63.738281 25.929688 63.851562 25.933594 C 64.476562 25.945312 65.007812 26.058594 65.585938 26.300781 C 65.585938 26.355469 65.585938 26.410156 65.585938 26.464844 C 65.722656 26.492188 65.859375 26.519531 66 26.546875 C 66 26.601562 66 26.65625 66 26.714844 C 66.082031 26.714844 66.164062 26.714844 66.246094 26.714844 C 66.398438 26.847656 66.527344 26.980469 66.660156 27.128906 C 66.707031 27.175781 66.75 27.222656 66.796875 27.273438 C 67.199219 27.707031 67.472656 28.175781 67.734375 28.707031 C 67.757812 28.757812 67.785156 28.8125 67.8125 28.867188 C 68.113281 29.515625 68.175781 30.183594 68.171875 30.886719 C 68.171875 30.964844 68.167969 31.042969 68.167969 31.121094 C 68.148438 32.320312 67.761719 33.550781 66.90625 34.429688 C 66.851562 34.429688 66.796875 34.429688 66.742188 34.429688 C 66.714844 34.511719 66.6875 34.59375 66.660156 34.679688 C 66.605469 34.679688 66.550781 34.679688 66.496094 34.679688 C 66.46875 34.761719 66.441406 34.84375 66.414062 34.925781 C 65.375 35.699219 64.3125 36.054688 63.015625 35.867188 C 62.207031 35.703125 61.445312 35.40625 60.90625 34.757812 C 60.800781 34.59375 60.800781 34.59375 60.800781 34.429688 C 60.75 34.429688 60.695312 34.429688 60.636719 34.429688 C 60.636719 34.8125 60.636719 35.195312 60.636719 35.589844 C 60.308594 35.59375 59.980469 35.59375 59.652344 35.597656 C 59.558594 35.597656 59.464844 35.597656 59.367188 35.597656 C 59.28125 35.597656 59.191406 35.597656 59.097656 35.597656 C 59.015625 35.601562 58.933594 35.601562 58.847656 35.601562 C 58.65625 35.589844 58.65625 35.589844 58.574219 35.507812 C 58.566406 35.335938 58.5625 35.167969 58.5625 34.996094 C 58.5625 34.941406 58.5625 34.886719 58.5625 34.832031 C 58.5625 34.648438 58.5625 34.464844 58.5625 34.28125 C 58.5625 34.152344 58.5625 34.023438 58.5625 33.890625 C 58.5625 33.535156 58.5625 33.179688 58.5625 32.824219 C 58.5625 32.527344 58.5625 32.230469 58.558594 31.9375 C 58.558594 31.238281 58.558594 30.539062 58.558594 29.839844 C 58.558594 29.117188 58.558594 28.394531 58.558594 27.675781 C 58.554688 27.054688 58.554688 26.4375 58.554688 25.816406 C 58.554688 25.449219 58.554688 25.078125 58.554688 24.707031 C 58.554688 24.359375 58.554688 24.011719 58.554688 23.664062 C 58.554688 23.535156 58.554688 23.40625 58.554688 23.28125 C 58.554688 23.105469 58.554688 22.929688 58.554688 22.757812 C 58.554688 22.660156 58.554688 22.5625 58.554688 22.460938 C 58.582031 22.164062 58.640625 22.078125 58.9375 22.046875 Z M 62.453125 28.125 C 62.402344 28.144531 62.351562 28.164062 62.296875 28.183594 C 62.054688 28.285156 61.847656 28.394531 61.628906 28.539062 C 61.628906 28.59375 61.628906 28.648438 61.628906 28.707031 C 61.546875 28.734375 61.464844 28.761719 61.378906 28.789062 C 60.8125 29.535156 60.574219 30.398438 60.667969 31.339844 C 60.820312 32.152344 61.097656 32.714844 61.710938 33.269531 C 61.800781 33.355469 61.800781 33.355469 61.894531 33.445312 C 62.464844 33.832031 63.09375 33.9375 63.773438 33.847656 C 64.0625 33.761719 64.328125 33.648438 64.597656 33.515625 C 64.652344 33.492188 64.710938 33.46875 64.769531 33.445312 C 65.320312 33.121094 65.609375 32.429688 65.835938 31.859375 C 65.875 31.777344 65.875 31.777344 65.917969 31.691406 C 66.023438 30.734375 66 29.84375 65.421875 29.035156 C 65.21875 28.792969 65.21875 28.792969 65.011719 28.621094 C 64.957031 28.5625 64.90625 28.507812 64.851562 28.445312 C 64.226562 27.875 63.214844 27.8125 62.453125 28.125 Z M 62.453125 28.125 "/>
<path style=" stroke:none;fill-rule:nonzero;fill:rgb(37.254903%,36.862746%,36.470589%);fill-opacity:1;" d="M 53 25.953125 C 53.085938 25.949219 53.167969 25.949219 53.253906 25.949219 C 53.714844 25.949219 54.097656 25.980469 54.53125 26.132812 C 54.589844 26.152344 54.648438 26.167969 54.707031 26.1875 C 55.167969 26.347656 55.539062 26.597656 55.933594 26.878906 C 56.015625 26.933594 56.097656 26.988281 56.183594 27.046875 C 56.183594 27.101562 56.183594 27.15625 56.183594 27.210938 C 56.238281 27.210938 56.292969 27.210938 56.347656 27.210938 C 57.292969 28.335938 57.613281 29.582031 57.609375 31.03125 C 57.585938 31.277344 57.585938 31.277344 57.421875 31.441406 C 57.199219 31.457031 56.984375 31.464844 56.765625 31.460938 C 56.664062 31.460938 56.664062 31.460938 56.558594 31.460938 C 56.335938 31.460938 56.113281 31.460938 55.886719 31.460938 C 55.734375 31.457031 55.578125 31.457031 55.421875 31.457031 C 55.015625 31.457031 54.605469 31.457031 54.195312 31.453125 C 53.777344 31.453125 53.363281 31.453125 52.945312 31.449219 C 52.125 31.449219 51.308594 31.445312 50.488281 31.441406 C 50.539062 31.617188 50.589844 31.789062 50.640625 31.964844 C 50.667969 32.058594 50.695312 32.15625 50.726562 32.253906 C 50.84375 32.589844 50.988281 32.769531 51.234375 33.019531 C 51.234375 33.074219 51.234375 33.128906 51.234375 33.183594 C 51.425781 33.285156 51.601562 33.363281 51.808594 33.433594 C 51.808594 33.488281 51.808594 33.542969 51.808594 33.601562 C 51.925781 33.617188 51.925781 33.617188 52.046875 33.636719 C 52.304688 33.683594 52.304688 33.683594 52.46875 33.765625 C 53.28125 33.828125 54.011719 33.859375 54.699219 33.351562 C 54.742188 33.304688 54.785156 33.261719 54.832031 33.210938 C 54.945312 33.101562 54.945312 33.101562 55.109375 33.101562 C 55.132812 33.039062 55.152344 32.976562 55.175781 32.910156 C 55.328125 32.570312 55.328125 32.570312 55.523438 32.4375 C 55.933594 32.476562 56.289062 32.671875 56.65625 32.847656 C 56.722656 32.878906 56.785156 32.90625 56.851562 32.9375 C 56.914062 32.96875 56.972656 32.996094 57.039062 33.027344 C 57.09375 33.054688 57.148438 33.078125 57.207031 33.105469 C 57.335938 33.183594 57.335938 33.183594 57.421875 33.351562 C 56.628906 34.507812 55.71875 35.503906 54.289062 35.8125 C 52.605469 36.089844 51.214844 35.734375 49.816406 34.742188 C 48.828125 33.773438 48.269531 32.441406 48.238281 31.0625 C 48.238281 31.003906 48.238281 30.941406 48.238281 30.878906 C 48.234375 30.820312 48.234375 30.761719 48.234375 30.703125 C 48.242188 30.292969 48.316406 29.929688 48.425781 29.535156 C 48.453125 29.4375 48.476562 29.339844 48.503906 29.242188 C 48.601562 28.925781 48.726562 28.636719 48.875 28.34375 C 48.902344 28.289062 48.925781 28.238281 48.949219 28.183594 C 49.015625 28.050781 49.09375 27.921875 49.171875 27.792969 C 49.25 27.765625 49.332031 27.738281 49.417969 27.710938 C 49.441406 27.644531 49.464844 27.582031 49.488281 27.519531 C 49.605469 27.238281 49.75 27.128906 49.996094 26.964844 C 50.050781 26.964844 50.105469 26.964844 50.160156 26.964844 C 50.160156 26.910156 50.160156 26.851562 50.160156 26.796875 C 50.269531 26.769531 50.378906 26.742188 50.488281 26.714844 C 50.488281 26.660156 50.488281 26.605469 50.488281 26.546875 C 51.351562 26.105469 52.027344 25.953125 53 25.953125 Z M 50.871094 28.960938 C 50.710938 29.234375 50.710938 29.234375 50.574219 29.699219 C 52.152344 29.699219 53.730469 29.699219 55.359375 29.699219 C 55.023438 28.777344 54.871094 28.472656 54.066406 28.046875 C 52.8125 27.46875 51.683594 27.90625 50.871094 28.960938 Z M 50.871094 28.960938 "/>
<path style=" stroke:none;fill-rule:nonzero;fill:rgb(37.254903%,36.862746%,36.470589%);fill-opacity:1;" d="M 91.027344 25.9375 C 91.113281 25.9375 91.199219 25.9375 91.285156 25.9375 C 91.746094 25.941406 92.132812 25.980469 92.566406 26.132812 C 92.636719 26.15625 92.707031 26.179688 92.777344 26.203125 C 93.269531 26.390625 93.65625 26.617188 94.050781 26.964844 C 94.105469 27.007812 94.160156 27.054688 94.21875 27.101562 C 94.996094 27.804688 95.488281 28.933594 95.546875 29.980469 C 95.558594 30.441406 95.558594 30.898438 95.535156 31.359375 C 95.390625 31.507812 95.195312 31.453125 95.003906 31.453125 C 94.90625 31.453125 94.90625 31.453125 94.808594 31.453125 C 94.738281 31.453125 94.671875 31.453125 94.601562 31.453125 C 94.378906 31.453125 94.152344 31.453125 93.929688 31.449219 C 93.773438 31.449219 93.617188 31.449219 93.460938 31.449219 C 93.054688 31.449219 92.644531 31.449219 92.234375 31.449219 C 91.816406 31.449219 91.398438 31.449219 90.980469 31.445312 C 90.160156 31.445312 89.34375 31.445312 88.523438 31.441406 C 88.570312 31.613281 88.621094 31.789062 88.671875 31.957031 C 88.699219 32.054688 88.726562 32.152344 88.753906 32.25 C 88.996094 32.917969 89.570312 33.371094 90.183594 33.691406 C 90.808594 33.886719 91.652344 33.894531 92.261719 33.660156 C 92.457031 33.539062 92.632812 33.410156 92.8125 33.269531 C 92.902344 33.226562 92.902344 33.226562 92.992188 33.179688 C 93.210938 33.066406 93.230469 32.914062 93.308594 32.6875 C 93.390625 32.5625 93.390625 32.5625 93.472656 32.4375 C 93.847656 32.476562 94.121094 32.585938 94.449219 32.761719 C 94.75 32.917969 95.058594 33.050781 95.371094 33.183594 C 95.296875 33.578125 95.296875 33.578125 95.203125 33.765625 C 95.152344 33.765625 95.097656 33.765625 95.039062 33.765625 C 95.019531 33.824219 95.003906 33.886719 94.984375 33.949219 C 94.851562 34.234375 94.695312 34.382812 94.460938 34.59375 C 94.417969 34.640625 94.371094 34.6875 94.324219 34.734375 C 93.695312 35.332031 92.929688 35.71875 92.070312 35.839844 C 91.976562 35.855469 91.976562 35.855469 91.882812 35.867188 C 90.46875 36.050781 89.277344 35.753906 88.117188 34.917969 C 87.796875 34.671875 87.507812 34.441406 87.285156 34.097656 C 87.285156 34.042969 87.285156 33.988281 87.285156 33.933594 C 87.230469 33.933594 87.175781 33.933594 87.121094 33.933594 C 87.078125 33.726562 87.078125 33.726562 87.039062 33.515625 C 86.984375 33.515625 86.929688 33.515625 86.871094 33.515625 C 86.84375 33.433594 86.816406 33.351562 86.785156 33.265625 C 86.746094 33.15625 86.710938 33.050781 86.671875 32.941406 C 86.652344 32.886719 86.632812 32.832031 86.613281 32.777344 C 86.53125 32.503906 86.53125 32.503906 86.378906 32.273438 C 86.300781 31.785156 86.285156 31.304688 86.285156 30.808594 C 86.285156 30.75 86.285156 30.691406 86.285156 30.628906 C 86.285156 29.503906 86.691406 28.285156 87.460938 27.445312 C 88.410156 26.523438 88.410156 26.523438 88.933594 26.464844 C 88.933594 26.410156 88.933594 26.355469 88.933594 26.300781 C 89.632812 25.992188 90.273438 25.933594 91.027344 25.9375 Z M 89.132812 28.648438 C 88.753906 29.128906 88.753906 29.128906 88.605469 29.699219 C 90.15625 29.699219 91.707031 29.699219 93.308594 29.699219 C 93.144531 28.957031 93.019531 28.597656 92.402344 28.179688 C 91.296875 27.585938 89.953125 27.617188 89.132812 28.648438 Z M 89.132812 28.648438 "/>
<path style=" stroke:none;fill-rule:nonzero;fill:rgb(37.254903%,36.862746%,36.470589%);fill-opacity:1;" d="M 30.140625 22.046875 C 30.25 22.046875 30.25 22.046875 30.359375 22.046875 C 30.4375 22.046875 30.515625 22.046875 30.59375 22.046875 C 30.847656 22.046875 31.105469 22.046875 31.359375 22.050781 C 31.539062 22.050781 31.714844 22.050781 31.890625 22.050781 C 32.261719 22.050781 32.632812 22.050781 33.003906 22.050781 C 33.480469 22.050781 33.957031 22.054688 34.433594 22.054688 C 34.800781 22.054688 35.164062 22.054688 35.53125 22.054688 C 35.707031 22.054688 35.882812 22.054688 36.058594 22.054688 C 36.304688 22.054688 36.550781 22.054688 36.792969 22.054688 C 36.867188 22.054688 36.941406 22.054688 37.015625 22.054688 C 37.519531 22.058594 37.519531 22.058594 37.703125 22.152344 C 37.703125 22.496094 37.707031 22.839844 37.707031 23.183594 C 37.707031 23.28125 37.710938 23.378906 37.710938 23.480469 C 37.710938 23.574219 37.710938 23.667969 37.710938 23.761719 C 37.710938 23.851562 37.710938 23.9375 37.710938 24.023438 C 37.703125 24.226562 37.703125 24.226562 37.621094 24.308594 C 37.4375 24.320312 37.253906 24.324219 37.074219 24.324219 C 37.015625 24.324219 36.957031 24.328125 36.898438 24.328125 C 36.710938 24.332031 36.519531 24.332031 36.332031 24.335938 C 36.199219 24.335938 36.066406 24.335938 35.9375 24.339844 C 35.589844 24.34375 35.246094 24.347656 34.898438 24.351562 C 34.546875 24.355469 34.195312 24.359375 33.839844 24.367188 C 33.148438 24.375 32.457031 24.382812 31.761719 24.390625 C 31.761719 24.542969 31.761719 24.542969 31.765625 24.699219 C 31.765625 25.078125 31.765625 25.457031 31.765625 25.835938 C 31.765625 26 31.769531 26.164062 31.769531 26.328125 C 31.769531 26.5625 31.769531 26.796875 31.769531 27.03125 C 31.769531 27.105469 31.769531 27.179688 31.773438 27.253906 C 31.773438 27.773438 31.773438 27.773438 31.679688 27.957031 C 33.449219 27.957031 35.21875 27.957031 37.042969 27.957031 C 37.042969 28.644531 37.042969 29.328125 37.042969 30.03125 C 35.273438 30.03125 33.503906 30.03125 31.679688 30.03125 C 31.722656 30.113281 31.722656 30.113281 31.761719 30.199219 C 31.769531 30.363281 31.773438 30.527344 31.773438 30.695312 C 31.773438 30.796875 31.777344 30.902344 31.777344 31.011719 C 31.777344 31.125 31.777344 31.238281 31.777344 31.351562 C 31.777344 31.46875 31.777344 31.585938 31.777344 31.703125 C 31.777344 31.945312 31.777344 32.191406 31.777344 32.433594 C 31.777344 32.75 31.777344 33.0625 31.78125 33.375 C 31.78125 33.617188 31.78125 33.855469 31.78125 34.097656 C 31.78125 34.214844 31.78125 34.328125 31.78125 34.445312 C 31.785156 34.605469 31.78125 34.769531 31.78125 34.929688 C 31.78125 35.019531 31.78125 35.113281 31.78125 35.207031 C 31.761719 35.425781 31.761719 35.425781 31.597656 35.589844 C 31.398438 35.609375 31.398438 35.609375 31.152344 35.609375 C 31.066406 35.609375 30.976562 35.609375 30.886719 35.609375 C 30.792969 35.609375 30.703125 35.609375 30.609375 35.605469 C 30.46875 35.605469 30.46875 35.605469 30.328125 35.605469 C 29.640625 35.601562 29.640625 35.601562 29.453125 35.507812 C 29.449219 33.78125 29.445312 32.050781 29.445312 30.324219 C 29.441406 29.523438 29.441406 28.71875 29.441406 27.917969 C 29.4375 27.21875 29.4375 26.519531 29.4375 25.820312 C 29.4375 25.449219 29.4375 25.082031 29.433594 24.710938 C 29.433594 24.363281 29.433594 24.011719 29.433594 23.664062 C 29.433594 23.539062 29.433594 23.410156 29.433594 23.28125 C 29.433594 23.105469 29.433594 22.933594 29.433594 22.757812 C 29.433594 22.660156 29.433594 22.5625 29.433594 22.460938 C 29.472656 22 29.742188 22.046875 30.140625 22.046875 Z M 30.140625 22.046875 "/>
<path style=" stroke:none;fill-rule:nonzero;fill:rgb(36.862746%,36.862746%,36.470589%);fill-opacity:1;" d="M 75.34375 26.449219 C 75.457031 26.539062 75.457031 26.539062 75.570312 26.632812 C 75.65625 26.691406 75.65625 26.691406 75.746094 26.753906 C 76.449219 27.25 76.875 27.9375 77.054688 28.789062 C 77.089844 29.300781 77.085938 29.8125 77.082031 30.328125 C 77.082031 30.476562 77.082031 30.625 77.082031 30.777344 C 77.082031 31.089844 77.078125 31.398438 77.078125 31.710938 C 77.074219 32.109375 77.074219 32.511719 77.074219 32.910156 C 77.074219 33.21875 77.074219 33.527344 77.074219 33.835938 C 77.070312 33.980469 77.070312 34.128906 77.070312 34.277344 C 77.070312 34.484375 77.070312 34.6875 77.066406 34.894531 C 77.066406 34.953125 77.066406 35.015625 77.066406 35.078125 C 77.066406 35.5 77.066406 35.5 76.972656 35.589844 C 76.832031 35.597656 76.691406 35.601562 76.550781 35.601562 C 76.46875 35.601562 76.382812 35.601562 76.292969 35.601562 C 76.160156 35.601562 76.160156 35.601562 76.023438 35.601562 C 75.933594 35.601562 75.84375 35.601562 75.753906 35.601562 C 75.625 35.601562 75.625 35.601562 75.496094 35.601562 C 75.417969 35.601562 75.339844 35.601562 75.257812 35.601562 C 75.074219 35.589844 75.074219 35.589844 74.992188 35.507812 C 74.972656 35.355469 74.957031 35.199219 74.945312 35.046875 C 74.9375 34.960938 74.933594 34.878906 74.925781 34.792969 C 74.921875 34.726562 74.914062 34.664062 74.910156 34.59375 C 74.878906 34.632812 74.847656 34.667969 74.8125 34.707031 C 74.175781 35.386719 73.449219 35.804688 72.515625 35.921875 C 71.554688 35.949219 70.464844 35.75 69.710938 35.09375 C 69.710938 35.039062 69.710938 34.984375 69.710938 34.925781 C 69.65625 34.925781 69.605469 34.925781 69.546875 34.925781 C 69.460938 34.789062 69.378906 34.652344 69.300781 34.511719 C 69.261719 34.476562 69.21875 34.4375 69.179688 34.398438 C 68.707031 33.894531 68.613281 33.054688 68.621094 32.390625 C 68.6875 31.621094 69.011719 30.941406 69.585938 30.429688 C 70.511719 29.71875 71.496094 29.417969 72.652344 29.4375 C 72.71875 29.4375 72.785156 29.4375 72.851562 29.4375 C 73.386719 29.441406 73.894531 29.480469 74.398438 29.660156 C 74.492188 29.691406 74.492188 29.691406 74.585938 29.722656 C 74.746094 29.785156 74.746094 29.785156 74.910156 29.867188 C 74.949219 29.371094 74.863281 29.035156 74.578125 28.621094 C 74.179688 28.171875 73.714844 27.902344 73.109375 27.859375 C 72.757812 27.851562 72.445312 27.867188 72.105469 27.957031 C 71.914062 27.988281 71.71875 28.015625 71.527344 28.042969 C 71.527344 28.097656 71.527344 28.152344 71.527344 28.207031 C 71.164062 28.457031 71.164062 28.457031 70.949219 28.457031 C 70.910156 28.535156 70.910156 28.535156 70.871094 28.613281 C 70.816406 28.726562 70.757812 28.839844 70.703125 28.953125 C 70.359375 28.90625 70.109375 28.707031 69.835938 28.507812 C 69.789062 28.476562 69.742188 28.441406 69.695312 28.40625 C 69.449219 28.234375 69.207031 28.058594 68.96875 27.875 C 69.023438 27.738281 69.078125 27.601562 69.136719 27.460938 C 69.1875 27.460938 69.242188 27.460938 69.300781 27.460938 C 69.320312 27.414062 69.335938 27.363281 69.355469 27.316406 C 69.742188 26.648438 70.664062 26.285156 71.363281 26.050781 C 72.621094 25.75 74.203125 25.8125 75.34375 26.449219 Z M 71.445312 31.527344 C 71.445312 31.582031 71.445312 31.636719 71.445312 31.691406 C 71.394531 31.714844 71.34375 31.738281 71.289062 31.757812 C 71.089844 31.855469 71.089844 31.855469 70.949219 32.105469 C 70.847656 32.519531 70.820312 32.902344 70.992188 33.300781 C 71.183594 33.625 71.414062 33.816406 71.773438 33.933594 C 72.492188 34.070312 73.183594 34.042969 73.847656 33.722656 C 73.898438 33.683594 73.949219 33.640625 74.003906 33.601562 C 74.003906 33.546875 74.003906 33.492188 74.003906 33.433594 C 74.050781 33.414062 74.101562 33.394531 74.152344 33.375 C 74.550781 33.144531 74.769531 32.660156 74.941406 32.246094 C 75.003906 32.007812 75.003906 32.007812 74.992188 31.691406 C 73.890625 31.078125 72.589844 30.949219 71.445312 31.527344 Z M 71.445312 31.527344 "/>
<path style=" stroke:none;fill-rule:nonzero;fill:rgb(37.254903%,36.862746%,36.470589%);fill-opacity:1;" d="M 84.308594 26.542969 C 84.421875 26.625 84.535156 26.710938 84.644531 26.796875 C 84.695312 26.835938 84.746094 26.875 84.800781 26.914062 C 84.9375 27.019531 84.9375 27.019531 85.140625 27.210938 C 85.140625 27.292969 85.140625 27.375 85.140625 27.460938 C 85.195312 27.460938 85.25 27.460938 85.304688 27.460938 C 85.550781 27.925781 85.550781 27.925781 85.550781 28.207031 C 85.488281 28.234375 85.425781 28.257812 85.359375 28.285156 C 84.960938 28.449219 84.570312 28.613281 84.191406 28.820312 C 83.902344 28.953125 83.902344 28.953125 83.730469 28.9375 C 83.574219 28.871094 83.574219 28.871094 83.421875 28.636719 C 83.125 28.199219 82.679688 28 82.171875 27.875 C 81.605469 27.804688 81.097656 27.917969 80.601562 28.207031 C 80.390625 28.441406 80.390625 28.441406 80.355469 28.742188 C 80.46875 29.03125 80.617188 29.167969 80.851562 29.367188 C 81.0625 29.457031 81.253906 29.527344 81.472656 29.585938 C 81.53125 29.605469 81.589844 29.621094 81.652344 29.640625 C 81.996094 29.738281 82.34375 29.828125 82.691406 29.914062 C 83.527344 30.121094 84.289062 30.402344 84.976562 30.945312 C 84.976562 31 84.976562 31.054688 84.976562 31.109375 C 85.097656 31.152344 85.097656 31.152344 85.222656 31.195312 C 85.660156 31.714844 85.839844 32.335938 85.820312 33.011719 C 85.761719 33.496094 85.578125 33.945312 85.304688 34.347656 C 85.261719 34.410156 85.21875 34.472656 85.175781 34.539062 C 85.136719 34.585938 85.097656 34.632812 85.058594 34.679688 C 85.003906 34.679688 84.949219 34.679688 84.890625 34.679688 C 84.863281 34.753906 84.863281 34.753906 84.832031 34.828125 C 84.511719 35.382812 83.695312 35.613281 83.117188 35.777344 C 82.050781 36.011719 80.65625 36.027344 79.679688 35.441406 C 79.628906 35.410156 79.582031 35.375 79.53125 35.34375 C 79.464844 35.304688 79.402344 35.265625 79.335938 35.226562 C 78.675781 34.8125 78.09375 34.164062 77.796875 33.433594 C 77.828125 33.246094 77.828125 33.246094 77.878906 33.101562 C 77.960938 33.101562 78.042969 33.101562 78.128906 33.101562 C 78.128906 33.046875 78.128906 32.992188 78.128906 32.9375 C 78.1875 32.914062 78.246094 32.894531 78.304688 32.871094 C 78.84375 32.679688 78.84375 32.679688 79.371094 32.460938 C 79.613281 32.355469 79.613281 32.355469 79.777344 32.355469 C 79.882812 32.496094 79.882812 32.496094 79.992188 32.675781 C 80.03125 32.738281 80.066406 32.796875 80.105469 32.859375 C 80.191406 33.019531 80.191406 33.019531 80.191406 33.183594 C 80.238281 33.207031 80.285156 33.230469 80.335938 33.253906 C 80.523438 33.351562 80.679688 33.472656 80.851562 33.601562 C 81.394531 33.914062 82.066406 33.890625 82.664062 33.765625 C 83.027344 33.625 83.269531 33.515625 83.488281 33.183594 C 83.46875 32.796875 83.417969 32.5625 83.160156 32.273438 C 82.550781 31.875 81.835938 31.753906 81.132812 31.605469 C 80.230469 31.414062 79.476562 31.175781 78.789062 30.53125 C 78.746094 30.40625 78.746094 30.40625 78.703125 30.28125 C 78.652344 30.28125 78.597656 30.28125 78.539062 30.28125 C 78.132812 29.683594 77.976562 29.003906 78.085938 28.28125 C 78.277344 27.523438 78.660156 27.011719 79.308594 26.59375 C 80.792969 25.734375 82.820312 25.589844 84.308594 26.542969 Z M 84.308594 26.542969 "/>
<path style=" stroke:none;fill-rule:nonzero;fill:rgb(99.607843%,56.470591%,0%);fill-opacity:1;" d="M 8.578125 25.71875 C 9.632812 25.886719 10.425781 26.375 11.300781 26.964844 C 11.300781 27.019531 11.300781 27.074219 11.300781 27.128906 C 11.359375 27.140625 11.414062 27.15625 11.472656 27.171875 C 11.828125 27.351562 12.0625 27.636719 12.292969 27.957031 C 12.292969 28.011719 12.292969 28.066406 12.292969 28.125 C 12.375 28.152344 12.457031 28.179688 12.539062 28.207031 C 12.539062 28.261719 12.539062 28.316406 12.539062 28.375 C 12.621094 28.414062 12.621094 28.414062 12.703125 28.457031 C 13.90625 30.105469 14.265625 32.023438 13.984375 34.03125 C 13.804688 34.949219 13.480469 35.816406 12.953125 36.585938 C 12.871094 36.53125 12.789062 36.476562 12.703125 36.421875 C 12.703125 36.367188 12.703125 36.3125 12.703125 36.253906 C 12.652344 36.253906 12.597656 36.253906 12.539062 36.253906 C 12.328125 36.050781 12.148438 35.816406 11.960938 35.589844 C 11.902344 35.523438 11.847656 35.453125 11.785156 35.382812 C 10.328125 33.652344 9.203125 31.449219 8.828125 29.203125 C 8.816406 29.136719 8.804688 29.074219 8.792969 29.007812 C 8.613281 27.90625 8.546875 26.835938 8.578125 25.71875 Z M 8.578125 25.71875 "/>
<path style=" stroke:none;fill-rule:nonzero;fill:rgb(37.254903%,36.862746%,36.470589%);fill-opacity:1;" d="M 48.59375 26.132812 C 48.59375 26.871094 48.59375 27.613281 48.59375 28.375 C 48.347656 28.375 48.136719 28.328125 47.898438 28.273438 C 47.257812 28.128906 46.734375 28.074219 46.117188 28.375 C 45.933594 28.5 45.785156 28.632812 45.621094 28.789062 C 45.566406 28.789062 45.511719 28.789062 45.457031 28.789062 C 45.4375 28.84375 45.417969 28.898438 45.394531 28.953125 C 45.292969 29.203125 45.292969 29.203125 45.210938 29.347656 C 44.777344 30.117188 44.871094 31.019531 44.878906 31.878906 C 44.882812 32.085938 44.882812 32.292969 44.886719 32.503906 C 44.886719 32.828125 44.890625 33.152344 44.894531 33.476562 C 44.898438 33.792969 44.898438 34.109375 44.902344 34.425781 C 44.902344 34.523438 44.90625 34.621094 44.90625 34.722656 C 44.90625 34.8125 44.90625 34.902344 44.90625 34.996094 C 44.90625 35.074219 44.910156 35.152344 44.910156 35.234375 C 44.898438 35.296875 44.890625 35.359375 44.878906 35.425781 C 44.605469 35.609375 44.515625 35.613281 44.195312 35.609375 C 44.113281 35.609375 44.027344 35.609375 43.941406 35.609375 C 43.851562 35.609375 43.765625 35.609375 43.671875 35.605469 C 43.585938 35.605469 43.496094 35.605469 43.40625 35.605469 C 42.746094 35.601562 42.746094 35.601562 42.652344 35.507812 C 42.644531 35.386719 42.640625 35.265625 42.644531 35.144531 C 42.640625 35.027344 42.640625 35.027344 42.640625 34.90625 C 42.640625 34.820312 42.644531 34.734375 42.644531 34.644531 C 42.644531 34.554688 42.644531 34.464844 42.644531 34.371094 C 42.644531 34.070312 42.644531 33.769531 42.644531 33.46875 C 42.644531 33.257812 42.644531 33.050781 42.644531 32.84375 C 42.644531 32.351562 42.644531 31.855469 42.648438 31.363281 C 42.648438 30.746094 42.648438 30.132812 42.648438 29.515625 C 42.648438 28.414062 42.652344 27.316406 42.652344 26.214844 C 43.332031 26.214844 44.015625 26.214844 44.714844 26.214844 C 44.753906 26.792969 44.753906 26.792969 44.796875 27.378906 C 44.878906 27.242188 44.960938 27.105469 45.046875 26.964844 C 45.097656 26.964844 45.152344 26.964844 45.210938 26.964844 C 45.238281 26.878906 45.265625 26.796875 45.292969 26.714844 C 46.199219 25.941406 47.480469 25.6875 48.59375 26.132812 Z M 48.59375 26.132812 "/>
<path style=" stroke:none;fill-rule:nonzero;fill:rgb(37.254903%,36.862746%,36.470589%);fill-opacity:1;" d="M 38.773438 26.214844 C 39.484375 26.214844 40.191406 26.214844 40.921875 26.214844 C 40.921875 29.28125 40.921875 32.347656 40.921875 35.507812 C 40.710938 35.613281 40.5625 35.601562 40.328125 35.601562 C 40.246094 35.601562 40.160156 35.601562 40.074219 35.601562 C 39.984375 35.601562 39.898438 35.601562 39.804688 35.601562 C 39.671875 35.601562 39.671875 35.601562 39.539062 35.601562 C 39.453125 35.601562 39.371094 35.601562 39.28125 35.601562 C 39.207031 35.601562 39.128906 35.601562 39.046875 35.601562 C 38.859375 35.589844 38.859375 35.589844 38.691406 35.507812 C 38.691406 34.308594 38.6875 33.109375 38.6875 31.910156 C 38.6875 31.355469 38.6875 30.796875 38.6875 30.238281 C 38.683594 29.703125 38.683594 29.167969 38.683594 28.628906 C 38.683594 28.425781 38.683594 28.21875 38.683594 28.011719 C 38.683594 27.726562 38.683594 27.441406 38.683594 27.152344 C 38.683594 27.066406 38.683594 26.980469 38.683594 26.894531 C 38.683594 26.816406 38.683594 26.738281 38.683594 26.660156 C 38.683594 26.589844 38.683594 26.523438 38.683594 26.453125 C 38.691406 26.300781 38.691406 26.300781 38.773438 26.214844 Z M 38.773438 26.214844 "/>
<path style=" stroke:none;fill-rule:nonzero;fill:rgb(98.431373%,56.470591%,0.392157%);fill-opacity:1;" d="M 12.953125 36.667969 C 13.300781 36.898438 13.632812 37.140625 13.957031 37.402344 C 14.933594 38.164062 16 38.796875 17.160156 39.242188 C 17.082031 39.441406 17.035156 39.550781 16.847656 39.65625 C 16.789062 39.675781 16.730469 39.691406 16.667969 39.710938 C 16.605469 39.734375 16.539062 39.753906 16.472656 39.777344 C 16.371094 39.804688 16.371094 39.804688 16.269531 39.835938 C 16.203125 39.859375 16.132812 39.882812 16.066406 39.902344 C 15.589844 40.054688 15.160156 40.164062 14.660156 40.160156 C 14.585938 40.160156 14.511719 40.15625 14.4375 40.15625 C 14.382812 40.15625 14.328125 40.15625 14.273438 40.152344 C 14.273438 40.207031 14.273438 40.261719 14.273438 40.320312 C 13.484375 40.320312 12.695312 40.320312 11.878906 40.320312 C 11.878906 40.265625 11.878906 40.210938 11.878906 40.152344 C 11.808594 40.148438 11.738281 40.144531 11.664062 40.140625 C 11.566406 40.136719 11.472656 40.128906 11.375 40.121094 C 11.28125 40.117188 11.1875 40.113281 11.089844 40.105469 C 10.808594 40.070312 10.578125 40.003906 10.3125 39.90625 C 10.25 39.882812 10.183594 39.859375 10.121094 39.835938 C 9.964844 39.773438 9.808594 39.714844 9.652344 39.65625 C 9.957031 39.300781 10.265625 39.128906 10.6875 38.933594 C 10.957031 38.792969 11.15625 38.613281 11.386719 38.410156 C 11.4375 38.410156 11.492188 38.410156 11.550781 38.410156 C 11.550781 38.355469 11.550781 38.300781 11.550781 38.246094 C 11.6875 38.136719 11.824219 38.023438 11.960938 37.914062 C 12.023438 37.839844 12.082031 37.761719 12.144531 37.6875 C 12.191406 37.625 12.242188 37.5625 12.292969 37.5 C 12.347656 37.5 12.402344 37.5 12.457031 37.5 C 12.476562 37.4375 12.5 37.378906 12.519531 37.316406 C 12.632812 37.0625 12.773438 36.878906 12.953125 36.667969 Z M 12.953125 36.667969 "/>
<path style=" stroke:none;fill-rule:nonzero;fill:rgb(37.254903%,36.862746%,36.470589%);fill-opacity:1;" d="M 40.835938 22.234375 C 41.191406 22.640625 41.257812 23.035156 41.25 23.5625 C 41.15625 24.0625 40.871094 24.386719 40.492188 24.710938 C 40.066406 24.882812 39.648438 24.890625 39.21875 24.722656 C 38.710938 24.453125 38.710938 24.453125 38.609375 24.140625 C 38.554688 24.113281 38.5 24.085938 38.445312 24.058594 C 38.347656 23.617188 38.339844 23.175781 38.445312 22.730469 C 38.5 22.730469 38.554688 22.730469 38.609375 22.730469 C 38.628906 22.671875 38.644531 22.609375 38.660156 22.546875 C 38.8125 22.242188 38.972656 22.144531 39.269531 21.984375 C 39.832031 21.851562 40.371094 21.867188 40.835938 22.234375 Z M 40.835938 22.234375 "/>
<path style=" stroke:none;fill-rule:nonzero;fill:rgb(81.568629%,60.000002%,10.980392%);fill-opacity:1;" d="M 6.023438 25.304688 C 7.90625 25.269531 7.90625 25.269531 8.414062 25.46875 C 8.441406 25.523438 8.46875 25.578125 8.496094 25.636719 C 8.394531 25.628906 8.292969 25.625 8.1875 25.617188 C 7.464844 25.578125 6.746094 25.539062 6.023438 25.550781 C 6.023438 25.46875 6.023438 25.386719 6.023438 25.304688 Z M 6.023438 25.304688 "/>
<path style=" stroke:none;fill-rule:nonzero;fill:rgb(87.058824%,63.137257%,7.450981%);fill-opacity:1;" d="M 3.464844 30.449219 C 3.519531 30.449219 3.574219 30.449219 3.628906 30.449219 C 3.636719 30.527344 3.640625 30.609375 3.644531 30.695312 C 3.683594 31.277344 3.722656 31.859375 3.796875 32.4375 C 3.742188 32.4375 3.6875 32.4375 3.628906 32.4375 C 3.480469 31.769531 3.445312 31.132812 3.464844 30.449219 Z M 3.464844 30.449219 "/>
<path style=" stroke:none;fill-rule:nonzero;fill:rgb(81.960785%,60.000002%,10.588235%);fill-opacity:1;" d="M 4.207031 26.878906 C 4.304688 27.179688 4.265625 27.234375 4.140625 27.511719 C 4.109375 27.578125 4.082031 27.644531 4.050781 27.710938 C 3.960938 27.875 3.960938 27.875 3.796875 27.957031 C 3.832031 27.792969 3.871094 27.628906 3.910156 27.464844 C 3.941406 27.328125 3.941406 27.328125 3.972656 27.1875 C 4.007812 27.078125 4.007812 27.078125 4.042969 26.964844 C 4.097656 26.9375 4.152344 26.910156 4.207031 26.878906 Z M 4.207031 26.878906 "/>
<path style=" stroke:none;fill-rule:nonzero;fill:rgb(80.000001%,59.215689%,11.764706%);fill-opacity:1;" d="M 8.828125 39.242188 C 9.46875 39.3125 9.46875 39.3125 9.652344 39.40625 C 9.652344 39.460938 9.652344 39.515625 9.652344 39.574219 C 9.371094 39.507812 9.101562 39.417969 8.828125 39.324219 C 8.828125 39.296875 8.828125 39.269531 8.828125 39.242188 Z M 8.828125 39.242188 "/>
<path style=" stroke:none;fill-rule:nonzero;fill:rgb(80.392158%,59.215689%,11.372549%);fill-opacity:1;" d="M 5.691406 36.667969 C 5.851562 36.738281 5.851562 36.738281 6.023438 36.835938 C 6.050781 36.917969 6.078125 37 6.105469 37.085938 C 6.160156 37.085938 6.214844 37.085938 6.269531 37.085938 C 6.242188 37.167969 6.214844 37.25 6.1875 37.332031 C 6.1875 37.277344 6.1875 37.222656 6.1875 37.167969 C 6.136719 37.148438 6.085938 37.125 6.03125 37.105469 C 5.828125 36.984375 5.777344 36.886719 5.691406 36.667969 Z M 5.691406 36.667969 "/>
</g>
</svg>
