<?xml version="1.0" encoding="UTF-8"?>
<svg xmlns="http://www.w3.org/2000/svg" xmlns:xlink="http://www.w3.org/1999/xlink" width="100px" height="px" viewBox="0 0 99 37" version="1.1">
<g id="surface1">
<path style=" stroke:none;fill-rule:nonzero;fill:rgb(9.019608%,8.235294%,8.235294%);fill-opacity:1;" d="M 27.015625 8.429688 C 27.105469 8.460938 27.195312 8.492188 27.289062 8.523438 C 28.453125 8.972656 29.527344 9.71875 30.449219 10.558594 C 30.535156 10.636719 30.621094 10.714844 30.707031 10.796875 C 32.183594 12.1875 33.175781 14.019531 33.703125 15.972656 C 33.71875 16.03125 33.734375 16.085938 33.75 16.148438 C 34.214844 17.960938 34.121094 20.035156 33.617188 21.828125 C 33.597656 21.890625 33.582031 21.957031 33.5625 22.023438 C 33.160156 23.417969 32.464844 24.738281 31.503906 25.820312 C 31.441406 25.894531 31.378906 25.964844 31.316406 26.042969 C 30.296875 27.222656 29.128906 28.117188 27.730469 28.792969 C 27.671875 28.820312 27.613281 28.851562 27.550781 28.878906 C 27.128906 29.074219 26.6875 29.234375 26.222656 29.28125 C 25.953125 29.164062 25.828125 29.101562 25.695312 28.835938 C 25.6875 28.714844 25.683594 28.589844 25.683594 28.464844 C 25.683594 28.347656 25.683594 28.347656 25.683594 28.230469 C 25.679688 28.148438 25.679688 28.0625 25.679688 27.976562 C 25.679688 27.800781 25.675781 27.621094 25.675781 27.445312 C 25.671875 27.164062 25.667969 26.886719 25.667969 26.605469 C 25.664062 26.335938 25.664062 26.066406 25.660156 25.796875 C 25.660156 25.675781 25.660156 25.675781 25.660156 25.550781 C 25.644531 24.84375 25.503906 24.195312 24.992188 23.691406 C 24.992188 23.632812 24.992188 23.574219 24.992188 23.511719 C 25.039062 23.503906 25.085938 23.496094 25.136719 23.488281 C 26.699219 23.207031 28.089844 22.875 29.078125 21.519531 C 29.863281 20.246094 30.074219 18.671875 29.808594 17.214844 C 29.667969 16.628906 29.484375 16.15625 29.101562 15.695312 C 28.894531 15.429688 28.863281 15.386719 28.875 15.035156 C 28.886719 14.976562 28.898438 14.917969 28.914062 14.859375 C 29.0625 14.027344 28.964844 13.148438 28.777344 12.332031 C 27.839844 12.523438 26.664062 12.777344 25.960938 13.488281 C 25.605469 13.457031 25.253906 13.414062 24.902344 13.351562 C 23.632812 13.140625 22.375 13.136719 21.113281 13.398438 C 20.480469 13.527344 20.109375 13.457031 19.574219 13.105469 C 18.921875 12.707031 18.199219 12.386719 17.425781 12.421875 C 17.140625 13.277344 17.066406 14.085938 17.238281 14.972656 C 17.292969 15.394531 17.109375 15.613281 16.863281 15.941406 C 16.148438 16.96875 16.148438 18.351562 16.308594 19.550781 C 16.542969 20.796875 17.082031 21.871094 18.128906 22.597656 C 19.015625 23.136719 20.011719 23.386719 21.03125 23.511719 C 21.03125 23.820312 20.945312 23.910156 20.773438 24.152344 C 20.664062 24.339844 20.617188 24.515625 20.566406 24.726562 C 20.46875 25.03125 20.4375 25.097656 20.167969 25.292969 C 19.664062 25.460938 19.09375 25.394531 18.566406 25.375 C 18.597656 25.464844 18.625 25.550781 18.65625 25.644531 C 18.480469 25.730469 18.480469 25.730469 18.304688 25.820312 C 18.171875 25.730469 18.171875 25.730469 18.039062 25.644531 C 18.070312 25.554688 18.097656 25.46875 18.128906 25.375 C 18.1875 25.347656 18.246094 25.316406 18.304688 25.289062 C 18.128906 25.199219 18.128906 25.199219 17.953125 25.109375 C 17.894531 25.199219 17.835938 25.285156 17.777344 25.375 C 17.660156 25.347656 17.542969 25.316406 17.425781 25.289062 C 17.367188 25.121094 17.367188 25.121094 17.335938 24.933594 C 17.394531 24.875 17.453125 24.816406 17.511719 24.753906 C 17.453125 24.667969 17.394531 24.578125 17.335938 24.488281 C 17.308594 24.578125 17.277344 24.664062 17.246094 24.753906 C 17.132812 24.726562 17.015625 24.695312 16.894531 24.667969 C 16.867188 24.550781 16.839844 24.433594 16.808594 24.3125 C 16.925781 24.28125 17.039062 24.253906 17.160156 24.222656 C 16.765625 23.695312 16.394531 23.335938 15.753906 23.160156 C 15.535156 23.132812 15.351562 23.140625 15.136719 23.160156 C 15.34375 23.445312 15.558594 23.664062 15.828125 23.882812 C 16.316406 24.300781 16.589844 24.828125 16.859375 25.402344 C 17.183594 26.019531 17.734375 26.339844 18.371094 26.550781 C 19.050781 26.703125 19.734375 26.621094 20.414062 26.53125 C 20.421875 26.921875 20.429688 27.316406 20.433594 27.710938 C 20.433594 27.824219 20.4375 27.933594 20.4375 28.050781 C 20.441406 28.15625 20.441406 28.265625 20.441406 28.375 C 20.441406 28.472656 20.445312 28.574219 20.445312 28.675781 C 20.414062 28.925781 20.414062 28.925781 20.292969 29.089844 C 20.070312 29.25 19.894531 29.292969 19.621094 29.257812 C 17.082031 28.5 14.863281 26.609375 13.550781 24.3125 C 12.125 21.644531 11.683594 18.601562 12.519531 15.664062 C 13.363281 12.851562 15.214844 10.460938 17.78125 9.039062 C 20.695312 7.507812 23.929688 7.3125 27.015625 8.429688 Z M 27.015625 8.429688 "/>
<path style=" stroke:none;fill-rule:nonzero;fill:rgb(5.882353%,5.098039%,5.490196%);fill-opacity:1;" d="M 46.726562 12.332031 C 46.671875 13.121094 46.476562 13.875 46.289062 14.640625 C 45.945312 14.734375 45.753906 14.71875 45.425781 14.601562 C 44.859375 14.449219 44.3125 14.429688 43.730469 14.425781 C 43.640625 14.421875 43.554688 14.421875 43.460938 14.417969 C 42.71875 14.421875 41.863281 14.570312 41.300781 15.109375 C 40.363281 16.320312 40.261719 17.972656 40.410156 19.449219 C 40.539062 20.445312 40.777344 21.410156 41.59375 22.058594 C 42.453125 22.582031 43.398438 22.445312 44.351562 22.359375 C 44.382812 21.570312 44.410156 20.777344 44.441406 19.964844 C 43.898438 19.972656 43.898438 19.972656 43.355469 19.980469 C 43.253906 19.980469 43.253906 19.980469 43.152344 19.980469 C 43.082031 19.980469 43.011719 19.984375 42.941406 19.984375 C 42.769531 19.964844 42.769531 19.964844 42.59375 19.785156 C 42.570312 19.566406 42.570312 19.566406 42.570312 19.289062 C 42.570312 19.191406 42.570312 19.09375 42.570312 18.992188 C 42.574219 18.835938 42.574219 18.835938 42.574219 18.675781 C 42.574219 18.574219 42.574219 18.46875 42.574219 18.363281 C 42.578125 17.59375 42.578125 17.59375 42.679688 17.390625 C 43.316406 17.386719 43.957031 17.386719 44.59375 17.386719 C 44.808594 17.386719 45.027344 17.386719 45.242188 17.382812 C 45.554688 17.382812 45.867188 17.382812 46.175781 17.382812 C 46.273438 17.382812 46.375 17.382812 46.472656 17.378906 C 46.609375 17.378906 46.609375 17.378906 46.746094 17.378906 C 46.824219 17.378906 46.90625 17.378906 46.988281 17.378906 C 47.167969 17.390625 47.167969 17.390625 47.257812 17.480469 C 47.265625 17.683594 47.273438 17.890625 47.277344 18.09375 C 47.277344 18.191406 47.277344 18.191406 47.277344 18.289062 C 47.289062 18.960938 47.292969 19.632812 47.296875 20.304688 C 47.296875 20.625 47.300781 20.945312 47.308594 21.261719 C 47.3125 21.648438 47.316406 22.03125 47.316406 22.417969 C 47.320312 22.5625 47.320312 22.710938 47.324219 22.859375 C 47.347656 24.003906 47.347656 24.003906 47.125 24.320312 C 46.964844 24.441406 46.964844 24.441406 46.640625 24.578125 C 46.539062 24.621094 46.433594 24.667969 46.328125 24.710938 C 44.226562 25.394531 41.984375 25.480469 39.96875 24.453125 C 38.765625 23.765625 38.117188 22.65625 37.734375 21.339844 C 37.527344 20.40625 37.453125 19.5 37.453125 18.542969 C 37.453125 18.480469 37.453125 18.417969 37.453125 18.351562 C 37.460938 16.441406 37.757812 14.496094 39.074219 13.019531 C 40.804688 11.359375 44.6875 10.960938 46.726562 12.332031 Z M 46.726562 12.332031 "/>
<path style=" stroke:none;fill-rule:nonzero;fill:rgb(5.882353%,4.705882%,5.098039%);fill-opacity:1;" d="M 59.574219 12.144531 C 59.6875 12.144531 59.800781 12.148438 59.917969 12.148438 C 60.027344 12.148438 60.136719 12.148438 60.253906 12.148438 C 60.394531 12.148438 60.535156 12.148438 60.679688 12.148438 C 61.128906 12.152344 61.578125 12.152344 62.039062 12.15625 C 62.039062 13.707031 62.039062 15.257812 62.039062 16.859375 C 63.203125 16.859375 64.363281 16.859375 65.558594 16.859375 C 65.558594 16.535156 65.558594 16.210938 65.558594 15.875 C 65.554688 15.5625 65.554688 15.25 65.554688 14.933594 C 65.554688 14.714844 65.554688 14.5 65.554688 14.28125 C 65.550781 13.96875 65.550781 13.652344 65.550781 13.339844 C 65.550781 13.242188 65.550781 13.144531 65.550781 13.042969 C 65.550781 12.953125 65.550781 12.863281 65.550781 12.769531 C 65.550781 12.6875 65.550781 12.609375 65.550781 12.527344 C 65.558594 12.332031 65.558594 12.332031 65.648438 12.15625 C 66.546875 12.15625 67.449219 12.15625 68.375 12.15625 C 68.375 16.371094 68.375 20.589844 68.375 24.933594 C 67.476562 24.933594 66.574219 24.933594 65.648438 24.933594 C 65.53125 24.695312 65.550781 24.511719 65.550781 24.246094 C 65.550781 24.085938 65.550781 24.085938 65.550781 23.921875 C 65.550781 23.808594 65.550781 23.691406 65.550781 23.574219 C 65.550781 23.453125 65.550781 23.335938 65.550781 23.214844 C 65.550781 22.902344 65.554688 22.589844 65.554688 22.273438 C 65.554688 21.957031 65.554688 21.636719 65.554688 21.316406 C 65.554688 20.6875 65.558594 20.058594 65.558594 19.433594 C 64.398438 19.433594 63.238281 19.433594 62.039062 19.433594 C 62.042969 19.820312 62.042969 20.210938 62.042969 20.613281 C 62.042969 20.921875 62.042969 21.230469 62.042969 21.542969 C 62.046875 21.871094 62.046875 22.199219 62.046875 22.523438 C 62.046875 22.839844 62.046875 23.15625 62.046875 23.472656 C 62.046875 23.589844 62.050781 23.710938 62.050781 23.832031 C 62.050781 24 62.050781 24.167969 62.050781 24.335938 C 62.050781 24.433594 62.050781 24.527344 62.050781 24.628906 C 62.039062 24.84375 62.039062 24.84375 61.953125 24.933594 C 61.757812 24.941406 61.5625 24.945312 61.367188 24.945312 C 61.3125 24.945312 61.253906 24.945312 61.191406 24.945312 C 61.070312 24.945312 60.945312 24.945312 60.824219 24.945312 C 60.632812 24.945312 60.441406 24.945312 60.253906 24.945312 C 60.132812 24.945312 60.015625 24.945312 59.894531 24.945312 C 59.785156 24.945312 59.675781 24.945312 59.5625 24.945312 C 59.3125 24.933594 59.3125 24.933594 59.222656 24.84375 C 59.214844 24.679688 59.210938 24.519531 59.210938 24.355469 C 59.210938 24.25 59.210938 24.144531 59.210938 24.035156 C 59.210938 23.914062 59.210938 23.796875 59.210938 23.679688 C 59.210938 23.554688 59.210938 23.429688 59.210938 23.308594 C 59.210938 22.96875 59.210938 22.632812 59.210938 22.292969 C 59.210938 21.941406 59.210938 21.589844 59.210938 21.234375 C 59.210938 20.644531 59.210938 20.050781 59.210938 19.460938 C 59.214844 18.773438 59.210938 18.085938 59.210938 17.402344 C 59.210938 16.8125 59.210938 16.226562 59.210938 15.640625 C 59.210938 15.289062 59.210938 14.9375 59.210938 14.585938 C 59.210938 14.253906 59.210938 13.925781 59.210938 13.59375 C 59.210938 13.472656 59.210938 13.351562 59.210938 13.230469 C 59.210938 13.0625 59.210938 12.898438 59.210938 12.734375 C 59.210938 12.640625 59.214844 12.546875 59.214844 12.453125 C 59.230469 12.140625 59.257812 12.15625 59.574219 12.144531 Z M 59.574219 12.144531 "/>
<path style=" stroke:none;fill-rule:nonzero;fill:rgb(5.882353%,5.098039%,5.490196%);fill-opacity:1;" d="M 79.253906 12.144531 C 79.3125 12.144531 79.371094 12.144531 79.429688 12.144531 C 79.554688 12.144531 79.679688 12.144531 79.800781 12.144531 C 79.992188 12.144531 80.179688 12.144531 80.371094 12.144531 C 80.488281 12.144531 80.609375 12.144531 80.730469 12.144531 C 80.894531 12.144531 80.894531 12.144531 81.0625 12.144531 C 81.3125 12.15625 81.3125 12.15625 81.398438 12.246094 C 81.40625 12.375 81.410156 12.507812 81.410156 12.636719 C 81.410156 12.722656 81.410156 12.804688 81.410156 12.890625 C 81.410156 12.980469 81.410156 13.070312 81.410156 13.164062 C 81.410156 13.257812 81.410156 13.351562 81.410156 13.445312 C 81.40625 13.742188 81.40625 14.039062 81.40625 14.335938 C 81.40625 14.535156 81.40625 14.734375 81.402344 14.9375 C 81.402344 15.429688 81.402344 15.921875 81.398438 16.414062 C 81.453125 16.390625 81.507812 16.367188 81.5625 16.339844 C 81.636719 16.308594 81.707031 16.273438 81.78125 16.242188 C 81.851562 16.210938 81.921875 16.179688 81.992188 16.144531 C 82.933594 15.742188 84.074219 15.785156 85.023438 16.128906 C 85.816406 16.488281 86.285156 17.113281 86.59375 17.921875 C 87.171875 19.613281 87.074219 22.027344 86.351562 23.667969 C 85.945312 24.386719 85.421875 24.828125 84.648438 25.082031 C 83.433594 25.40625 82.121094 25.179688 81.03125 24.585938 C 80.871094 24.488281 80.871094 24.488281 80.785156 24.402344 C 80.773438 24.472656 80.761719 24.542969 80.75 24.617188 C 80.734375 24.691406 80.714844 24.765625 80.695312 24.84375 C 80.480469 24.953125 80.339844 24.945312 80.101562 24.945312 C 80.019531 24.945312 79.9375 24.945312 79.851562 24.945312 C 79.765625 24.945312 79.679688 24.945312 79.589844 24.945312 C 79.503906 24.945312 79.417969 24.945312 79.328125 24.945312 C 79.246094 24.945312 79.164062 24.945312 79.078125 24.945312 C 79.003906 24.945312 78.925781 24.945312 78.847656 24.945312 C 78.671875 24.933594 78.671875 24.933594 78.585938 24.84375 C 78.574219 24.679688 78.574219 24.519531 78.574219 24.355469 C 78.574219 24.25 78.574219 24.144531 78.570312 24.035156 C 78.570312 23.914062 78.574219 23.796875 78.574219 23.679688 C 78.574219 23.554688 78.574219 23.429688 78.570312 23.308594 C 78.570312 22.96875 78.570312 22.632812 78.570312 22.292969 C 78.574219 21.941406 78.570312 21.589844 78.570312 21.234375 C 78.570312 20.644531 78.570312 20.050781 78.574219 19.460938 C 78.574219 18.773438 78.574219 18.085938 78.574219 17.402344 C 78.570312 16.8125 78.570312 16.226562 78.570312 15.640625 C 78.574219 15.289062 78.574219 14.9375 78.570312 14.585938 C 78.570312 14.253906 78.570312 13.925781 78.574219 13.59375 C 78.574219 13.472656 78.574219 13.351562 78.574219 13.230469 C 78.570312 13.0625 78.574219 12.898438 78.574219 12.734375 C 78.574219 12.640625 78.574219 12.546875 78.574219 12.453125 C 78.59375 12.027344 78.894531 12.144531 79.253906 12.144531 Z M 81.3125 18.632812 C 81.3125 19.890625 81.3125 21.152344 81.3125 22.449219 C 82.035156 22.8125 82.457031 22.964844 83.238281 22.835938 C 83.636719 22.660156 83.796875 22.4375 83.957031 22.035156 C 84.050781 21.695312 84.085938 21.371094 84.105469 21.023438 C 84.109375 20.957031 84.113281 20.890625 84.117188 20.824219 C 84.148438 20.03125 84.160156 19.15625 83.601562 18.542969 C 83.261719 18.234375 82.910156 18.242188 82.472656 18.234375 C 82.082031 18.285156 82.082031 18.285156 81.3125 18.632812 Z M 81.3125 18.632812 "/>
<path style=" stroke:none;fill-rule:nonzero;fill:rgb(5.882353%,5.098039%,5.098039%);fill-opacity:1;" d="M 69.859375 16.128906 C 70.019531 16.128906 70.019531 16.128906 70.179688 16.128906 C 70.292969 16.128906 70.410156 16.128906 70.527344 16.128906 C 70.585938 16.128906 70.644531 16.128906 70.707031 16.128906 C 70.890625 16.132812 71.070312 16.132812 71.253906 16.132812 C 72.148438 16.136719 72.148438 16.136719 72.246094 16.238281 C 72.257812 16.40625 72.261719 16.578125 72.261719 16.75 C 72.265625 16.859375 72.265625 16.96875 72.265625 17.082031 C 72.265625 17.140625 72.269531 17.199219 72.269531 17.261719 C 72.269531 17.445312 72.273438 17.628906 72.273438 17.8125 C 72.28125 18.339844 72.285156 18.863281 72.289062 19.390625 C 72.292969 19.710938 72.296875 20.03125 72.300781 20.355469 C 72.300781 20.476562 72.304688 20.597656 72.304688 20.71875 C 72.304688 21.644531 72.304688 21.644531 72.511719 22.539062 C 72.914062 22.808594 73.230469 22.839844 73.703125 22.761719 C 73.921875 22.714844 74.128906 22.648438 74.339844 22.578125 C 74.410156 22.550781 74.480469 22.527344 74.554688 22.503906 C 74.605469 22.484375 74.65625 22.46875 74.710938 22.449219 C 74.710938 22.371094 74.710938 22.292969 74.710938 22.214844 C 74.710938 21.484375 74.707031 20.753906 74.707031 20.023438 C 74.707031 19.648438 74.707031 19.273438 74.707031 18.898438 C 74.703125 18.535156 74.703125 18.175781 74.703125 17.8125 C 74.703125 17.671875 74.703125 17.535156 74.703125 17.398438 C 74.703125 17.203125 74.703125 17.011719 74.703125 16.816406 C 74.703125 16.707031 74.703125 16.597656 74.703125 16.484375 C 74.710938 16.238281 74.710938 16.238281 74.800781 16.148438 C 74.988281 16.140625 75.175781 16.136719 75.363281 16.136719 C 75.476562 16.136719 75.59375 16.136719 75.710938 16.136719 C 75.800781 16.136719 75.800781 16.136719 75.890625 16.136719 C 76.074219 16.136719 76.257812 16.136719 76.441406 16.136719 C 76.613281 16.136719 76.613281 16.136719 76.789062 16.136719 C 76.894531 16.136719 77 16.136719 77.109375 16.136719 C 77.351562 16.148438 77.351562 16.148438 77.441406 16.238281 C 77.449219 16.507812 77.449219 16.777344 77.449219 17.046875 C 77.449219 17.128906 77.449219 17.214844 77.449219 17.304688 C 77.449219 17.585938 77.449219 17.867188 77.449219 18.148438 C 77.449219 18.34375 77.449219 18.539062 77.449219 18.734375 C 77.449219 19.246094 77.445312 19.761719 77.445312 20.273438 C 77.445312 20.796875 77.445312 21.324219 77.445312 21.847656 C 77.441406 22.875 77.441406 23.902344 77.441406 24.933594 C 76.832031 24.933594 76.21875 24.933594 75.59375 24.933594 C 75.535156 24.785156 75.476562 24.640625 75.414062 24.488281 C 75.328125 24.527344 75.242188 24.5625 75.15625 24.597656 C 73.691406 25.210938 72.28125 25.484375 70.746094 24.859375 C 70.195312 24.578125 69.828125 24.136719 69.625 23.558594 C 69.457031 23.015625 69.421875 22.464844 69.417969 21.898438 C 69.417969 21.839844 69.417969 21.777344 69.417969 21.714844 C 69.417969 21.519531 69.417969 21.320312 69.417969 21.125 C 69.417969 20.984375 69.417969 20.847656 69.417969 20.710938 C 69.414062 20.421875 69.414062 20.132812 69.414062 19.847656 C 69.414062 19.476562 69.414062 19.109375 69.414062 18.738281 C 69.410156 18.453125 69.410156 18.167969 69.410156 17.886719 C 69.410156 17.75 69.410156 17.613281 69.410156 17.476562 C 69.410156 17.285156 69.410156 17.097656 69.410156 16.90625 C 69.410156 16.796875 69.410156 16.691406 69.410156 16.578125 C 69.441406 16.226562 69.511719 16.15625 69.859375 16.128906 Z M 69.859375 16.128906 "/>
<path style=" stroke:none;fill-rule:nonzero;fill:rgb(5.882353%,5.098039%,5.490196%);fill-opacity:1;" d="M 54.15625 13.652344 C 54.269531 13.652344 54.382812 13.652344 54.503906 13.652344 C 54.59375 13.652344 54.59375 13.652344 54.683594 13.652344 C 54.867188 13.652344 55.050781 13.652344 55.234375 13.652344 C 55.40625 13.652344 55.40625 13.652344 55.582031 13.652344 C 55.6875 13.652344 55.792969 13.652344 55.902344 13.652344 C 56.144531 13.664062 56.144531 13.664062 56.230469 13.753906 C 56.238281 13.929688 56.242188 14.109375 56.242188 14.285156 C 56.242188 14.394531 56.238281 14.5 56.238281 14.613281 C 56.238281 14.78125 56.238281 14.78125 56.238281 14.957031 C 56.238281 15.070312 56.238281 15.183594 56.234375 15.300781 C 56.234375 15.582031 56.234375 15.867188 56.230469 16.148438 C 56.289062 16.148438 56.34375 16.148438 56.398438 16.148438 C 56.648438 16.144531 56.902344 16.144531 57.152344 16.144531 C 57.28125 16.140625 57.28125 16.140625 57.414062 16.140625 C 57.539062 16.140625 57.539062 16.140625 57.667969 16.140625 C 57.78125 16.140625 57.78125 16.140625 57.898438 16.136719 C 58.078125 16.148438 58.078125 16.148438 58.167969 16.238281 C 58.175781 16.402344 58.179688 16.566406 58.179688 16.726562 C 58.179688 16.828125 58.179688 16.925781 58.179688 17.03125 C 58.179688 17.132812 58.179688 17.238281 58.179688 17.347656 C 58.179688 17.453125 58.179688 17.554688 58.179688 17.664062 C 58.179688 17.761719 58.179688 17.863281 58.179688 17.964844 C 58.179688 18.058594 58.179688 18.148438 58.179688 18.242188 C 58.167969 18.457031 58.167969 18.457031 58.078125 18.542969 C 57.941406 18.550781 57.804688 18.554688 57.667969 18.554688 C 57.585938 18.554688 57.5 18.550781 57.414062 18.550781 C 57.328125 18.550781 57.242188 18.550781 57.152344 18.550781 C 57.0625 18.550781 56.976562 18.550781 56.882812 18.546875 C 56.667969 18.546875 56.449219 18.546875 56.230469 18.542969 C 56.238281 19.054688 56.246094 19.5625 56.253906 20.074219 C 56.257812 20.246094 56.261719 20.421875 56.261719 20.59375 C 56.265625 20.84375 56.269531 21.09375 56.273438 21.34375 C 56.277344 21.421875 56.277344 21.496094 56.277344 21.578125 C 56.285156 21.996094 56.3125 22.285156 56.585938 22.625 C 56.90625 22.789062 57.308594 22.746094 57.667969 22.761719 C 57.835938 22.769531 58 22.785156 58.167969 22.804688 C 58.328125 23.125 58.277344 23.507812 58.277344 23.863281 C 58.28125 23.945312 58.28125 24.027344 58.285156 24.109375 C 58.285156 24.226562 58.285156 24.226562 58.285156 24.347656 C 58.285156 24.417969 58.285156 24.492188 58.289062 24.566406 C 58.25 24.800781 58.175781 24.875 57.992188 25.023438 C 57.089844 25.316406 55.800781 25.296875 54.914062 24.945312 C 54.230469 24.558594 53.765625 24.019531 53.546875 23.265625 C 53.5 23.042969 53.492188 22.839844 53.492188 22.613281 C 53.492188 22.523438 53.492188 22.433594 53.492188 22.339844 C 53.496094 22.242188 53.496094 22.144531 53.496094 22.046875 C 53.496094 21.945312 53.496094 21.84375 53.496094 21.742188 C 53.496094 21.421875 53.496094 21.105469 53.5 20.785156 C 53.5 20.570312 53.5 20.351562 53.5 20.136719 C 53.5 19.605469 53.503906 19.074219 53.503906 18.542969 C 53.039062 18.542969 52.574219 18.542969 52.097656 18.542969 C 52.097656 17.898438 52.097656 17.257812 52.097656 16.59375 C 52.5625 16.476562 53.023438 16.359375 53.503906 16.238281 C 53.503906 15.96875 53.503906 15.96875 53.5 15.695312 C 53.5 15.523438 53.5 15.351562 53.5 15.179688 C 53.5 15.0625 53.5 14.941406 53.496094 14.820312 C 53.496094 14.648438 53.496094 14.476562 53.496094 14.304688 C 53.496094 14.148438 53.496094 14.148438 53.492188 13.992188 C 53.511719 13.542969 53.765625 13.652344 54.15625 13.652344 Z M 54.15625 13.652344 "/>
<path style=" stroke:none;fill-rule:nonzero;fill:rgb(5.882353%,4.705882%,5.490196%);fill-opacity:1;" d="M 49.160156 16.136719 C 49.21875 16.136719 49.277344 16.136719 49.335938 16.136719 C 49.457031 16.136719 49.582031 16.136719 49.707031 16.136719 C 49.894531 16.136719 50.085938 16.136719 50.273438 16.136719 C 50.394531 16.136719 50.511719 16.136719 50.632812 16.136719 C 50.796875 16.136719 50.796875 16.136719 50.964844 16.136719 C 51.214844 16.148438 51.214844 16.148438 51.304688 16.238281 C 51.3125 16.5 51.316406 16.761719 51.316406 17.027344 C 51.316406 17.109375 51.316406 17.191406 51.316406 17.277344 C 51.316406 17.554688 51.316406 17.828125 51.316406 18.101562 C 51.316406 18.292969 51.316406 18.484375 51.316406 18.675781 C 51.316406 19.074219 51.316406 19.472656 51.316406 19.875 C 51.316406 20.386719 51.316406 20.898438 51.316406 21.414062 C 51.316406 21.808594 51.316406 22.199219 51.316406 22.59375 C 51.316406 22.785156 51.316406 22.972656 51.316406 23.160156 C 51.316406 23.425781 51.316406 23.691406 51.316406 23.953125 C 51.316406 24.035156 51.316406 24.113281 51.316406 24.195312 C 51.3125 24.734375 51.3125 24.734375 51.214844 24.933594 C 50.839844 24.933594 50.46875 24.9375 50.09375 24.9375 C 49.964844 24.9375 49.839844 24.9375 49.710938 24.941406 C 49.527344 24.941406 49.34375 24.941406 49.160156 24.941406 C 49.050781 24.941406 48.941406 24.941406 48.828125 24.941406 C 48.574219 24.933594 48.574219 24.933594 48.488281 24.84375 C 48.480469 24.578125 48.476562 24.3125 48.476562 24.046875 C 48.476562 23.960938 48.476562 23.878906 48.476562 23.792969 C 48.476562 23.511719 48.476562 23.234375 48.476562 22.957031 C 48.476562 22.761719 48.476562 22.570312 48.476562 22.378906 C 48.476562 21.972656 48.476562 21.570312 48.476562 21.164062 C 48.476562 20.644531 48.476562 20.125 48.476562 19.605469 C 48.476562 19.207031 48.476562 18.8125 48.476562 18.414062 C 48.476562 18.222656 48.476562 18.03125 48.476562 17.839844 C 48.476562 17.570312 48.476562 17.304688 48.476562 17.035156 C 48.476562 16.957031 48.476562 16.875 48.476562 16.792969 C 48.476562 16.128906 48.511719 16.136719 49.160156 16.136719 Z M 49.160156 16.136719 "/>
<path style=" stroke:none;fill-rule:nonzero;fill:rgb(5.882353%,5.098039%,5.490196%);fill-opacity:1;" d="M 50.515625 12.488281 C 50.953125 12.71875 51.207031 13.019531 51.417969 13.460938 C 51.515625 13.929688 51.511719 14.386719 51.304688 14.824219 C 51.003906 15.289062 50.660156 15.464844 50.132812 15.605469 C 49.648438 15.621094 49.242188 15.527344 48.855469 15.222656 C 48.5 14.847656 48.339844 14.449219 48.3125 13.929688 C 48.351562 13.394531 48.550781 13.058594 48.929688 12.6875 C 49.398438 12.355469 49.972656 12.292969 50.515625 12.488281 Z M 50.515625 12.488281 "/>
<path style=" stroke:none;fill-rule:nonzero;fill:rgb(7.450981%,6.666667%,6.666667%);fill-opacity:1;" d="M 19.097656 25.464844 C 19.277344 25.503906 19.277344 25.503906 19.449219 25.554688 C 19.449219 25.671875 19.449219 25.789062 19.449219 25.910156 C 19.304688 25.910156 19.15625 25.910156 19.007812 25.910156 C 19.007812 25.554688 19.007812 25.554688 19.097656 25.464844 Z M 19.097656 25.464844 "/>
<path style=" stroke:none;fill-rule:nonzero;fill:rgb(7.450981%,7.058824%,7.058824%);fill-opacity:1;" d="M 19.886719 25.375 C 20.03125 25.40625 20.179688 25.433594 20.328125 25.464844 C 20.300781 25.582031 20.269531 25.699219 20.238281 25.820312 C 20.09375 25.789062 19.949219 25.761719 19.800781 25.730469 C 19.828125 25.613281 19.859375 25.496094 19.886719 25.375 Z M 19.886719 25.375 "/>
<path style=" stroke:none;fill-rule:nonzero;fill:rgb(7.058824%,6.27451%,6.27451%);fill-opacity:1;" d="M 16.457031 23.691406 C 16.628906 23.777344 16.628906 23.777344 16.808594 23.867188 C 16.808594 23.925781 16.808594 23.984375 16.808594 24.046875 C 16.691406 24.046875 16.574219 24.046875 16.457031 24.046875 C 16.457031 23.929688 16.457031 23.8125 16.457031 23.691406 Z M 16.457031 23.691406 "/>
<path style=" stroke:none;fill-rule:nonzero;fill:rgb(6.666667%,5.882353%,6.27451%);fill-opacity:1;" d="M 16.015625 23.335938 C 16.132812 23.363281 16.25 23.394531 16.367188 23.425781 C 16.367188 23.484375 16.367188 23.542969 16.367188 23.601562 C 16.25 23.601562 16.136719 23.601562 16.015625 23.601562 C 16.015625 23.515625 16.015625 23.425781 16.015625 23.335938 Z M 16.015625 23.335938 "/>
</g>
</svg>
