<?xml version="1.0" encoding="UTF-8"?>
<svg xmlns="http://www.w3.org/2000/svg" xmlns:xlink="http://www.w3.org/1999/xlink" width="100px" height="40px" viewBox="0 0 98 40" version="1.1">
<g id="surface1">
<path style=" stroke:none;fill-rule:nonzero;fill:rgb(0%,0%,0%);fill-opacity:1;" d="M 58.195312 15.804688 C 57.671875 15.804688 57.234375 16.046875 56.882812 16.527344 C 56.53125 17.011719 56.351562 17.6875 56.351562 18.558594 C 56.351562 19.433594 56.519531 20.101562 56.859375 20.566406 C 57.195312 21.035156 57.636719 21.265625 58.1875 21.265625 C 58.734375 21.265625 59.179688 21.03125 59.523438 20.558594 C 59.863281 20.085938 60.035156 19.414062 60.035156 18.535156 C 60.035156 17.65625 59.859375 16.984375 59.503906 16.511719 C 59.152344 16.039062 58.714844 15.804688 58.195312 15.804688 M 58.1875 24.472656 C 56.660156 24.472656 55.414062 23.96875 54.453125 22.960938 C 53.492188 21.953125 53.011719 20.480469 53.011719 18.542969 C 53.011719 16.605469 53.5 15.140625 54.46875 14.140625 C 55.441406 13.144531 56.699219 12.644531 58.234375 12.644531 C 59.773438 12.644531 61.011719 13.136719 61.957031 14.117188 C 62.902344 15.101562 63.375 16.585938 63.375 18.578125 C 63.375 20.566406 62.894531 22.046875 61.925781 23.019531 C 60.957031 23.988281 59.710938 24.472656 58.1875 24.472656 "/>
<path style=" stroke:none;fill-rule:nonzero;fill:rgb(0%,0%,0%);fill-opacity:1;" d="M 67.941406 15.917969 L 67.941406 20.839844 C 67.941406 21.070312 67.960938 21.214844 67.992188 21.273438 C 68.023438 21.335938 68.121094 21.363281 68.285156 21.363281 C 68.882812 21.363281 69.335938 21.140625 69.644531 20.691406 C 69.957031 20.242188 70.109375 19.492188 70.109375 18.445312 C 70.109375 17.398438 69.949219 16.714844 69.628906 16.398438 C 69.308594 16.078125 68.800781 15.917969 68.105469 15.917969 Z M 64.816406 23.550781 L 64.816406 13.683594 C 64.816406 13.410156 64.882812 13.191406 65.019531 13.03125 C 65.152344 12.875 65.332031 12.792969 65.546875 12.792969 L 68.269531 12.792969 C 69.996094 12.792969 71.308594 13.234375 72.203125 14.109375 C 73.101562 14.988281 73.550781 16.367188 73.550781 18.253906 C 73.550781 22.292969 71.84375 24.308594 68.433594 24.308594 L 65.644531 24.308594 C 65.09375 24.308594 64.816406 24.058594 64.816406 23.550781 "/>
<path style=" stroke:none;fill-rule:nonzero;fill:rgb(0%,0%,0%);fill-opacity:1;" d="M 79.804688 15.804688 C 79.285156 15.804688 78.847656 16.046875 78.492188 16.527344 C 78.140625 17.011719 77.964844 17.6875 77.964844 18.558594 C 77.964844 19.433594 78.132812 20.101562 78.46875 20.566406 C 78.804688 21.035156 79.246094 21.265625 79.796875 21.265625 C 80.34375 21.265625 80.792969 21.03125 81.132812 20.558594 C 81.476562 20.085938 81.648438 19.414062 81.648438 18.535156 C 81.648438 17.65625 81.46875 16.984375 81.117188 16.511719 C 80.761719 16.039062 80.328125 15.804688 79.804688 15.804688 M 79.796875 24.472656 C 78.269531 24.472656 77.027344 23.96875 76.066406 22.960938 C 75.105469 21.953125 74.625 20.480469 74.625 18.542969 C 74.625 16.605469 75.109375 15.140625 76.082031 14.140625 C 77.054688 13.144531 78.308594 12.644531 79.847656 12.644531 C 81.382812 12.644531 82.625 13.136719 83.570312 14.117188 C 84.515625 15.101562 84.988281 16.585938 84.988281 18.578125 C 84.988281 20.566406 84.503906 22.046875 83.535156 23.019531 C 82.570312 23.988281 81.324219 24.472656 79.796875 24.472656 "/>
<path style=" stroke:none;fill-rule:nonzero;fill:rgb(0%,0%,0%);fill-opacity:1;" d="M 91.058594 24.046875 C 91.058594 24.265625 90.523438 24.375 89.445312 24.375 C 88.371094 24.375 87.832031 24.265625 87.832031 24.046875 L 87.832031 15.789062 L 85.878906 15.789062 C 85.695312 15.789062 85.5625 15.535156 85.488281 15.03125 C 85.453125 14.789062 85.4375 14.542969 85.4375 14.289062 C 85.4375 14.039062 85.453125 13.792969 85.488281 13.550781 C 85.5625 13.046875 85.695312 12.792969 85.878906 12.792969 L 92.964844 12.792969 C 93.152344 12.792969 93.28125 13.046875 93.359375 13.550781 C 93.390625 13.792969 93.40625 14.039062 93.40625 14.289062 C 93.40625 14.542969 93.390625 14.789062 93.359375 15.03125 C 93.28125 15.535156 93.152344 15.789062 92.964844 15.789062 L 91.058594 15.789062 Z M 91.058594 24.046875 "/>
<path style=" stroke:none;fill-rule:nonzero;fill:rgb(0%,0%,0%);fill-opacity:1;" d="M 50.132812 18.199219 C 49.253906 18.1875 48.25 18.371094 48.25 18.371094 L 48.25 20.101562 L 49.257812 20.101562 L 49.25 20.871094 C 49.25 21.15625 48.96875 21.300781 48.410156 21.300781 C 47.847656 21.300781 47.355469 21.0625 46.925781 20.582031 C 46.496094 20.105469 46.28125 19.40625 46.28125 18.488281 C 46.28125 17.566406 46.492188 16.886719 46.910156 16.445312 C 47.328125 16.007812 47.875 15.789062 48.546875 15.789062 C 48.832031 15.789062 49.121094 15.835938 49.425781 15.929688 C 49.730469 16.019531 49.933594 16.109375 50.039062 16.191406 C 50.140625 16.273438 50.238281 16.3125 50.332031 16.3125 C 50.425781 16.3125 50.574219 16.207031 50.78125 15.984375 C 50.984375 15.765625 51.171875 15.433594 51.335938 14.992188 C 51.496094 14.546875 51.578125 14.203125 51.578125 13.960938 C 51.578125 13.722656 51.574219 13.554688 51.5625 13.46875 C 51.335938 13.214844 50.914062 13.015625 50.300781 12.867188 C 49.6875 12.71875 49 12.644531 48.238281 12.644531 C 46.566406 12.644531 45.257812 13.179688 44.3125 14.242188 C 43.367188 15.304688 42.894531 16.6875 42.894531 18.386719 C 42.894531 20.382812 43.375 21.898438 44.34375 22.925781 C 45.3125 23.957031 46.582031 24.472656 48.15625 24.472656 C 49.003906 24.472656 49.757812 24.398438 50.414062 24.25 C 51.070312 24.105469 51.507812 23.953125 51.726562 23.800781 L 51.789062 18.652344 C 51.789062 18.351562 51.007812 18.214844 50.132812 18.199219 "/>
<path style=" stroke:none;fill-rule:nonzero;fill:rgb(0%,0%,0%);fill-opacity:1;" d="M 46.695312 31.207031 C 46.605469 31.394531 46.441406 31.566406 46.199219 31.71875 C 45.957031 31.875 45.648438 31.953125 45.277344 31.953125 C 44.785156 31.953125 44.386719 31.796875 44.085938 31.480469 C 43.789062 31.164062 43.636719 30.710938 43.636719 30.121094 L 43.636719 28.648438 C 43.636719 28.070312 43.777344 27.625 44.0625 27.316406 C 44.34375 27.007812 44.726562 26.851562 45.199219 26.851562 C 45.660156 26.851562 46.019531 26.976562 46.273438 27.21875 C 46.527344 27.464844 46.660156 27.804688 46.671875 28.238281 L 46.667969 28.257812 L 46.289062 28.257812 C 46.273438 27.925781 46.179688 27.667969 45.996094 27.484375 C 45.820312 27.304688 45.550781 27.214844 45.199219 27.214844 C 44.839844 27.214844 44.558594 27.335938 44.351562 27.582031 C 44.144531 27.824219 44.042969 28.179688 44.042969 28.644531 L 44.042969 30.125 C 44.042969 30.609375 44.152344 30.976562 44.375 31.226562 C 44.597656 31.480469 44.898438 31.605469 45.277344 31.605469 C 45.550781 31.605469 45.773438 31.554688 45.941406 31.453125 C 46.105469 31.355469 46.222656 31.234375 46.289062 31.089844 L 46.289062 29.796875 L 45.269531 29.796875 L 45.269531 29.4375 L 46.695312 29.4375 Z M 46.695312 31.207031 "/>
<path style=" stroke:none;fill-rule:nonzero;fill:rgb(0%,0%,0%);fill-opacity:1;" d="M 48.566406 31.585938 C 48.792969 31.585938 48.992188 31.519531 49.167969 31.390625 C 49.339844 31.257812 49.464844 31.09375 49.535156 30.890625 L 49.535156 30.09375 L 48.886719 30.09375 C 48.613281 30.09375 48.390625 30.171875 48.226562 30.332031 C 48.058594 30.488281 47.976562 30.683594 47.976562 30.914062 C 47.976562 31.113281 48.03125 31.273438 48.132812 31.398438 C 48.238281 31.523438 48.382812 31.585938 48.566406 31.585938 M 49.597656 31.882812 C 49.574219 31.753906 49.558594 31.652344 49.550781 31.570312 C 49.539062 31.488281 49.535156 31.40625 49.535156 31.320312 C 49.425781 31.503906 49.28125 31.65625 49.105469 31.773438 C 48.929688 31.894531 48.734375 31.953125 48.519531 31.953125 C 48.214844 31.953125 47.984375 31.859375 47.820312 31.667969 C 47.65625 31.480469 47.574219 31.222656 47.574219 30.902344 C 47.574219 30.558594 47.691406 30.285156 47.929688 30.082031 C 48.167969 29.878906 48.492188 29.777344 48.898438 29.777344 L 49.535156 29.777344 L 49.535156 29.324219 C 49.535156 29.0625 49.46875 28.859375 49.339844 28.710938 C 49.207031 28.566406 49.027344 28.492188 48.792969 28.492188 C 48.574219 28.492188 48.398438 28.5625 48.253906 28.703125 C 48.113281 28.84375 48.046875 29.015625 48.046875 29.21875 L 47.667969 29.214844 L 47.660156 29.195312 C 47.648438 28.917969 47.753906 28.671875 47.972656 28.457031 C 48.191406 28.238281 48.472656 28.128906 48.8125 28.128906 C 49.152344 28.128906 49.421875 28.234375 49.628906 28.441406 C 49.835938 28.648438 49.941406 28.945312 49.941406 29.332031 L 49.941406 31.140625 C 49.941406 31.269531 49.945312 31.398438 49.957031 31.519531 C 49.96875 31.644531 49.988281 31.761719 50.019531 31.882812 Z M 49.597656 31.882812 "/>
<path style=" stroke:none;fill-rule:nonzero;fill:rgb(0%,0%,0%);fill-opacity:1;" d="M 51.210938 28.199219 L 51.246094 28.769531 C 51.34375 28.566406 51.46875 28.410156 51.628906 28.296875 C 51.789062 28.1875 51.976562 28.128906 52.191406 28.128906 C 52.414062 28.128906 52.597656 28.195312 52.75 28.324219 C 52.898438 28.457031 53.007812 28.652344 53.078125 28.917969 C 53.171875 28.675781 53.296875 28.480469 53.460938 28.339844 C 53.628906 28.199219 53.828125 28.128906 54.058594 28.128906 C 54.378906 28.128906 54.628906 28.261719 54.804688 28.523438 C 54.980469 28.785156 55.070312 29.1875 55.070312 29.730469 L 55.070312 31.882812 L 54.660156 31.882812 L 54.660156 29.722656 C 54.660156 29.269531 54.601562 28.953125 54.480469 28.769531 C 54.359375 28.585938 54.183594 28.496094 53.960938 28.496094 C 53.722656 28.496094 53.539062 28.597656 53.40625 28.800781 C 53.273438 29.003906 53.195312 29.261719 53.164062 29.570312 L 53.164062 31.882812 L 52.757812 31.882812 L 52.757812 29.726562 C 52.757812 29.285156 52.699219 28.96875 52.570312 28.78125 C 52.449219 28.589844 52.273438 28.496094 52.050781 28.496094 C 51.839844 28.496094 51.667969 28.5625 51.539062 28.695312 C 51.40625 28.824219 51.316406 29.003906 51.257812 29.230469 L 51.257812 31.882812 L 50.855469 31.882812 L 50.855469 28.199219 Z M 51.210938 28.199219 "/>
<path style=" stroke:none;fill-rule:nonzero;fill:rgb(0%,0%,0%);fill-opacity:1;" d="M 57.09375 28.492188 C 56.839844 28.492188 56.632812 28.609375 56.46875 28.839844 C 56.304688 29.074219 56.21875 29.363281 56.210938 29.707031 L 57.894531 29.707031 L 57.894531 29.550781 C 57.894531 29.246094 57.824219 28.992188 57.683594 28.792969 C 57.542969 28.589844 57.34375 28.492188 57.09375 28.492188 M 57.148438 31.953125 C 56.757812 31.953125 56.433594 31.804688 56.183594 31.503906 C 55.9375 31.207031 55.8125 30.828125 55.8125 30.363281 L 55.8125 29.75 C 55.8125 29.285156 55.9375 28.898438 56.1875 28.589844 C 56.4375 28.285156 56.738281 28.128906 57.09375 28.128906 C 57.476562 28.128906 57.769531 28.265625 57.984375 28.542969 C 58.195312 28.816406 58.300781 29.1875 58.300781 29.648438 L 58.300781 30.054688 L 56.210938 30.054688 L 56.210938 30.359375 C 56.210938 30.714844 56.296875 31.011719 56.464844 31.25 C 56.632812 31.488281 56.863281 31.605469 57.148438 31.605469 C 57.351562 31.605469 57.523438 31.570312 57.667969 31.5 C 57.8125 31.429688 57.9375 31.328125 58.039062 31.195312 L 58.207031 31.484375 C 58.097656 31.628906 57.953125 31.742188 57.777344 31.824219 C 57.605469 31.910156 57.394531 31.953125 57.148438 31.953125 "/>
<path style=" stroke:none;fill-rule:nonzero;fill:rgb(0%,0%,0%);fill-opacity:1;" d="M 61.59375 28.492188 C 61.335938 28.492188 61.128906 28.609375 60.964844 28.839844 C 60.804688 29.074219 60.71875 29.363281 60.710938 29.707031 L 62.394531 29.707031 L 62.394531 29.550781 C 62.394531 29.246094 62.324219 28.992188 62.179688 28.792969 C 62.039062 28.589844 61.84375 28.492188 61.59375 28.492188 M 61.648438 31.953125 C 61.253906 31.953125 60.933594 31.804688 60.683594 31.503906 C 60.433594 31.207031 60.308594 30.828125 60.308594 30.363281 L 60.308594 29.75 C 60.308594 29.285156 60.433594 28.898438 60.683594 28.589844 C 60.9375 28.285156 61.238281 28.128906 61.59375 28.128906 C 61.972656 28.128906 62.269531 28.265625 62.480469 28.542969 C 62.691406 28.816406 62.796875 29.1875 62.796875 29.648438 L 62.796875 30.054688 L 60.710938 30.054688 L 60.710938 30.359375 C 60.710938 30.714844 60.796875 31.011719 60.964844 31.25 C 61.132812 31.488281 61.359375 31.605469 61.648438 31.605469 C 61.847656 31.605469 62.023438 31.570312 62.167969 31.5 C 62.3125 31.429688 62.4375 31.328125 62.539062 31.195312 L 62.703125 31.484375 C 62.59375 31.628906 62.453125 31.742188 62.277344 31.824219 C 62.105469 31.910156 61.894531 31.953125 61.648438 31.953125 "/>
<path style=" stroke:none;fill-rule:nonzero;fill:rgb(0%,0%,0%);fill-opacity:1;" d="M 63.867188 28.199219 L 63.902344 28.808594 C 64 28.589844 64.128906 28.425781 64.289062 28.308594 C 64.449219 28.191406 64.636719 28.128906 64.851562 28.128906 C 65.179688 28.128906 65.429688 28.253906 65.601562 28.496094 C 65.777344 28.742188 65.863281 29.121094 65.863281 29.636719 L 65.863281 31.882812 L 65.457031 31.882812 L 65.457031 29.636719 C 65.457031 29.21875 65.394531 28.925781 65.273438 28.753906 C 65.152344 28.582031 64.976562 28.496094 64.746094 28.496094 C 64.539062 28.496094 64.363281 28.566406 64.226562 28.703125 C 64.085938 28.839844 63.980469 29.023438 63.910156 29.253906 L 63.910156 31.882812 L 63.507812 31.882812 L 63.507812 28.199219 Z M 63.867188 28.199219 "/>
<path style=" stroke:none;fill-rule:nonzero;fill:rgb(0%,0%,0%);fill-opacity:1;" d="M 67.050781 30.363281 C 67.050781 30.738281 67.121094 31.035156 67.265625 31.253906 C 67.40625 31.476562 67.617188 31.589844 67.90625 31.589844 C 68.101562 31.589844 68.265625 31.535156 68.402344 31.429688 C 68.535156 31.320312 68.640625 31.167969 68.71875 30.980469 L 68.71875 29.15625 C 68.644531 28.960938 68.539062 28.800781 68.410156 28.679688 C 68.277344 28.558594 68.113281 28.496094 67.910156 28.496094 C 67.625 28.496094 67.410156 28.625 67.269531 28.875 C 67.125 29.128906 67.050781 29.457031 67.050781 29.859375 Z M 66.644531 29.859375 C 66.644531 29.335938 66.746094 28.917969 66.957031 28.601562 C 67.164062 28.289062 67.453125 28.128906 67.824219 28.128906 C 68.027344 28.128906 68.207031 28.179688 68.363281 28.28125 C 68.515625 28.382812 68.644531 28.527344 68.746094 28.710938 L 68.785156 28.199219 L 69.128906 28.199219 L 69.128906 31.886719 C 69.128906 32.355469 69.019531 32.722656 68.800781 32.980469 C 68.582031 33.238281 68.273438 33.371094 67.875 33.371094 C 67.730469 33.371094 67.574219 33.347656 67.410156 33.304688 C 67.246094 33.257812 67.097656 33.199219 66.96875 33.128906 L 67.082031 32.769531 C 67.191406 32.839844 67.3125 32.894531 67.449219 32.933594 C 67.585938 32.976562 67.722656 32.996094 67.867188 32.996094 C 68.15625 32.996094 68.371094 32.902344 68.511719 32.714844 C 68.652344 32.523438 68.71875 32.25 68.71875 31.886719 L 68.71875 31.441406 C 68.617188 31.605469 68.488281 31.734375 68.339844 31.820312 C 68.191406 31.910156 68.015625 31.953125 67.816406 31.953125 C 67.449219 31.953125 67.164062 31.808594 66.957031 31.519531 C 66.746094 31.230469 66.644531 30.84375 66.644531 30.363281 Z M 66.644531 29.859375 "/>
<path style=" stroke:none;fill-rule:nonzero;fill:rgb(0%,0%,0%);fill-opacity:1;" d="M 70.492188 31.882812 L 70.082031 31.882812 L 70.082031 28.199219 L 70.492188 28.199219 Z M 70.492188 27.152344 L 70.082031 27.152344 L 70.082031 26.570312 L 70.492188 26.570312 Z M 70.492188 27.152344 "/>
<path style=" stroke:none;fill-rule:nonzero;fill:rgb(0%,0%,0%);fill-opacity:1;" d="M 71.808594 28.199219 L 71.84375 28.808594 C 71.941406 28.589844 72.070312 28.425781 72.230469 28.308594 C 72.390625 28.191406 72.578125 28.128906 72.792969 28.128906 C 73.121094 28.128906 73.371094 28.253906 73.546875 28.496094 C 73.71875 28.742188 73.804688 29.121094 73.804688 29.636719 L 73.804688 31.882812 L 73.398438 31.882812 L 73.398438 29.636719 C 73.398438 29.21875 73.335938 28.925781 73.214844 28.753906 C 73.09375 28.582031 72.917969 28.496094 72.6875 28.496094 C 72.480469 28.496094 72.304688 28.566406 72.167969 28.703125 C 72.027344 28.839844 71.921875 29.023438 71.855469 29.253906 L 71.855469 31.882812 L 71.449219 31.882812 L 71.449219 28.199219 Z M 71.808594 28.199219 "/>
<path style=" stroke:none;fill-rule:nonzero;fill:rgb(0%,0%,0%);fill-opacity:1;" d="M 75.835938 28.492188 C 75.582031 28.492188 75.375 28.609375 75.210938 28.839844 C 75.046875 29.074219 74.960938 29.363281 74.957031 29.707031 L 76.640625 29.707031 L 76.640625 29.550781 C 76.640625 29.246094 76.570312 28.992188 76.425781 28.792969 C 76.285156 28.589844 76.089844 28.492188 75.835938 28.492188 M 75.894531 31.953125 C 75.5 31.953125 75.179688 31.804688 74.929688 31.503906 C 74.679688 31.207031 74.554688 30.828125 74.554688 30.363281 L 74.554688 29.75 C 74.554688 29.285156 74.679688 28.898438 74.929688 28.589844 C 75.179688 28.285156 75.484375 28.128906 75.835938 28.128906 C 76.21875 28.128906 76.515625 28.265625 76.726562 28.542969 C 76.9375 28.816406 77.042969 29.1875 77.042969 29.648438 L 77.042969 30.054688 L 74.957031 30.054688 L 74.957031 30.359375 C 74.957031 30.714844 75.039062 31.011719 75.210938 31.25 C 75.378906 31.488281 75.605469 31.605469 75.894531 31.605469 C 76.09375 31.605469 76.265625 31.570312 76.410156 31.5 C 76.554688 31.429688 76.679688 31.328125 76.785156 31.195312 L 76.949219 31.484375 C 76.839844 31.628906 76.695312 31.742188 76.523438 31.824219 C 76.347656 31.910156 76.140625 31.953125 75.894531 31.953125 "/>
<path style=" stroke:none;fill-rule:nonzero;fill:rgb(0%,0%,0%);fill-opacity:1;" d="M 17.410156 4.730469 C 15.9375 5.058594 14.484375 5.519531 13.121094 6.210938 C 13.152344 7.425781 13.230469 8.589844 13.390625 9.773438 C 12.859375 10.117188 12.304688 10.410156 11.808594 10.8125 C 11.304688 11.199219 10.792969 11.574219 10.339844 12.03125 C 9.429688 11.421875 8.46875 10.851562 7.476562 10.351562 C 6.410156 11.511719 5.410156 12.761719 4.59375 14.164062 C 5.234375 15.179688 5.921875 16.203125 6.558594 17 L 6.558594 25.601562 C 6.574219 25.601562 6.589844 25.601562 6.605469 25.605469 L 11.832031 26.113281 C 12.105469 26.140625 12.320312 26.359375 12.335938 26.636719 L 12.5 28.964844 L 17.054688 29.292969 L 17.371094 27.144531 C 17.410156 26.867188 17.648438 26.660156 17.925781 26.660156 L 23.4375 26.660156 C 23.714844 26.660156 23.953125 26.867188 23.992188 27.144531 L 24.308594 29.292969 L 28.863281 28.964844 L 29.027344 26.636719 C 29.046875 26.359375 29.257812 26.140625 29.53125 26.113281 L 34.753906 25.605469 C 34.769531 25.601562 34.785156 25.601562 34.800781 25.601562 L 34.800781 24.914062 L 34.804688 24.914062 L 34.804688 17 C 35.539062 16.0625 36.234375 15.03125 36.769531 14.164062 C 35.953125 12.761719 34.953125 11.511719 33.886719 10.351562 C 32.894531 10.851562 31.933594 11.421875 31.023438 12.03125 C 30.570312 11.574219 30.058594 11.199219 29.554688 10.8125 C 29.058594 10.410156 28.503906 10.117188 27.976562 9.773438 C 28.132812 8.589844 28.210938 7.425781 28.242188 6.210938 C 26.878906 5.519531 25.425781 5.058594 23.953125 4.730469 C 23.367188 5.726562 22.828125 6.804688 22.363281 7.859375 C 21.808594 7.765625 21.25 7.730469 20.691406 7.722656 C 20.6875 7.722656 20.683594 7.722656 20.683594 7.722656 C 20.679688 7.722656 20.675781 7.722656 20.671875 7.722656 C 20.113281 7.730469 19.554688 7.765625 19 7.859375 C 18.535156 6.804688 17.996094 5.726562 17.410156 4.730469 Z M 13.277344 17.3125 C 15.015625 17.3125 16.425781 18.734375 16.425781 20.492188 C 16.425781 22.246094 15.015625 23.667969 13.277344 23.667969 C 11.539062 23.667969 10.128906 22.246094 10.128906 20.492188 C 10.128906 18.734375 11.539062 17.3125 13.277344 17.3125 Z M 28.085938 17.3125 C 29.824219 17.3125 31.234375 18.734375 31.234375 20.492188 C 31.234375 22.246094 29.824219 23.667969 28.085938 23.667969 C 26.347656 23.667969 24.9375 22.246094 24.9375 20.492188 C 24.9375 18.734375 26.347656 17.3125 28.085938 17.3125 Z M 20.679688 19.171875 C 21.242188 19.171875 21.695312 19.589844 21.695312 20.101562 L 21.695312 23.027344 C 21.695312 23.542969 21.242188 23.957031 20.679688 23.957031 C 20.121094 23.957031 19.667969 23.542969 19.667969 23.027344 L 19.667969 20.101562 C 19.667969 19.589844 20.121094 19.171875 20.679688 19.171875 Z M 20.679688 19.171875 "/>
<path style=" stroke:none;fill-rule:nonzero;fill:rgb(0%,0%,0%);fill-opacity:1;" d="M 30.113281 27.195312 L 29.953125 29.539062 C 29.933594 29.820312 29.710938 30.042969 29.433594 30.0625 L 23.867188 30.464844 C 23.855469 30.464844 23.839844 30.464844 23.828125 30.464844 C 23.550781 30.464844 23.3125 30.261719 23.269531 29.980469 L 22.953125 27.796875 L 18.410156 27.796875 L 18.09375 29.980469 C 18.050781 30.273438 17.789062 30.488281 17.496094 30.464844 L 11.929688 30.0625 C 11.652344 30.042969 11.429688 29.820312 11.410156 29.539062 L 11.25 27.195312 L 6.550781 26.738281 C 6.554688 27.25 6.558594 27.808594 6.558594 27.917969 C 6.558594 32.925781 12.851562 35.335938 20.671875 35.363281 L 20.691406 35.363281 C 28.511719 35.335938 34.800781 32.925781 34.800781 27.917969 C 34.800781 27.804688 34.808594 27.25 34.8125 26.738281 Z M 30.113281 27.195312 "/>
<path style=" stroke:none;fill-rule:nonzero;fill:rgb(0%,0%,0%);fill-opacity:1;" d="M 15.667969 20.679688 C 15.667969 21.84375 14.730469 22.789062 13.578125 22.789062 C 12.421875 22.789062 11.488281 21.84375 11.488281 20.679688 C 11.488281 19.515625 12.421875 18.570312 13.578125 18.570312 C 14.730469 18.570312 15.667969 19.515625 15.667969 20.679688 "/>
<path style=" stroke:none;fill-rule:nonzero;fill:rgb(0%,0%,0%);fill-opacity:1;" d="M 25.695312 20.679688 C 25.695312 21.84375 26.632812 22.789062 27.785156 22.789062 C 28.941406 22.789062 29.875 21.84375 29.875 20.679688 C 29.875 19.515625 28.941406 18.570312 27.785156 18.570312 C 26.632812 18.570312 25.695312 19.515625 25.695312 20.679688 "/>
</g>
</svg>
