<?xml version="1.0" encoding="UTF-8"?>
<svg xmlns="http://www.w3.org/2000/svg" xmlns:xlink="http://www.w3.org/1999/xlink" width="100px" height="56px" viewBox="0 0 99 56" version="1.1">
<g id="surface1">
<path style=" stroke:none;fill-rule:nonzero;fill:rgb(29.411766%,29.411766%,29.411766%);fill-opacity:1;" d="M 15.390625 10.007812 C 15.390625 12.144531 15.390625 14.285156 15.390625 16.488281 C 15.152344 16.625 14.914062 16.761719 14.667969 16.902344 C 14.507812 17 14.507812 17 14.34375 17.09375 C 14.171875 17.199219 13.996094 17.300781 13.820312 17.402344 C 13.632812 17.511719 13.441406 17.621094 13.253906 17.730469 C 13.015625 17.871094 12.777344 18.011719 12.535156 18.148438 C 12.300781 18.285156 12.066406 18.417969 11.832031 18.558594 C 11.503906 18.75 11.175781 18.941406 10.847656 19.128906 C 10.707031 19.210938 10.566406 19.292969 10.425781 19.375 C 10.3125 19.441406 10.199219 19.507812 10.082031 19.570312 C 10.027344 19.605469 9.96875 19.636719 9.914062 19.667969 C 9.886719 19.683594 9.859375 19.699219 9.832031 19.714844 C 9.808594 19.730469 9.785156 19.742188 9.757812 19.757812 C 9.738281 19.769531 9.714844 19.78125 9.695312 19.792969 C 9.636719 19.835938 9.617188 19.871094 9.589844 19.9375 C 9.585938 19.996094 9.585938 19.996094 9.59375 20.054688 C 9.59375 20.082031 9.59375 20.082031 9.597656 20.113281 C 9.652344 20.269531 9.875 20.351562 10.011719 20.425781 C 10.222656 20.542969 10.429688 20.664062 10.640625 20.789062 C 10.863281 20.921875 11.089844 21.050781 11.316406 21.179688 C 11.570312 21.324219 11.816406 21.46875 12.066406 21.617188 C 12.339844 21.777344 12.609375 21.933594 12.882812 22.089844 C 13.023438 22.171875 13.164062 22.253906 13.304688 22.335938 C 13.359375 22.367188 13.414062 22.398438 13.46875 22.433594 C 15.148438 23.40625 15.148438 23.40625 15.230469 23.453125 C 15.285156 23.484375 15.339844 23.519531 15.398438 23.550781 C 15.527344 23.625 15.65625 23.699219 15.785156 23.777344 C 15.832031 23.800781 15.875 23.828125 15.921875 23.855469 C 15.980469 23.890625 16.035156 23.921875 16.09375 23.957031 C 16.4375 24.183594 16.4375 24.183594 16.832031 24.230469 C 17.011719 24.171875 17.164062 24.082031 17.324219 23.988281 C 17.367188 23.960938 17.414062 23.933594 17.457031 23.910156 C 17.503906 23.882812 17.550781 23.855469 17.59375 23.828125 C 17.738281 23.742188 17.878906 23.660156 18.019531 23.578125 C 18.078125 23.546875 18.132812 23.515625 18.1875 23.480469 C 19.195312 22.898438 19.195312 22.898438 19.277344 22.851562 C 19.332031 22.816406 19.390625 22.785156 19.445312 22.753906 C 19.585938 22.671875 19.726562 22.589844 19.867188 22.507812 C 20.136719 22.351562 20.40625 22.195312 20.671875 22.039062 C 20.914062 21.898438 21.152344 21.757812 21.394531 21.621094 C 21.628906 21.488281 21.863281 21.351562 22.097656 21.214844 C 22.285156 21.101562 22.472656 20.992188 22.660156 20.886719 C 22.6875 20.867188 22.714844 20.851562 22.742188 20.835938 C 22.875 20.761719 23.003906 20.683594 23.136719 20.609375 C 23.199219 20.574219 23.257812 20.539062 23.320312 20.503906 C 23.363281 20.476562 23.40625 20.453125 23.449219 20.425781 C 23.6875 20.304688 23.6875 20.304688 23.875 20.117188 C 23.875 19.96875 23.875 19.96875 23.789062 19.847656 C 23.722656 19.785156 23.65625 19.738281 23.578125 19.691406 C 23.550781 19.675781 23.519531 19.65625 23.492188 19.640625 C 23.460938 19.625 23.433594 19.605469 23.402344 19.589844 C 23.371094 19.570312 23.339844 19.550781 23.308594 19.535156 C 23.074219 19.394531 22.835938 19.261719 22.597656 19.128906 C 22.445312 19.042969 22.292969 18.953125 22.140625 18.863281 C 21.902344 18.714844 21.65625 18.574219 21.410156 18.433594 C 21.269531 18.351562 21.128906 18.269531 20.984375 18.1875 C 20.816406 18.089844 20.648438 17.992188 20.480469 17.894531 C 20.183594 17.722656 19.890625 17.550781 19.59375 17.378906 C 19.382812 17.25 19.167969 17.128906 18.953125 17.003906 C 18.902344 16.972656 18.851562 16.941406 18.800781 16.914062 C 18.714844 16.863281 18.628906 16.824219 18.539062 16.785156 C 18.125 16.589844 18.125 16.589844 18.039062 16.421875 C 17.980469 16.238281 17.996094 16.042969 18.003906 15.851562 C 18.003906 15.789062 18.003906 15.726562 18.003906 15.660156 C 18.003906 15.523438 18.003906 15.386719 18.007812 15.25 C 18.011719 15.050781 18.015625 14.855469 18.015625 14.65625 C 18.015625 14.335938 18.019531 14.011719 18.027344 13.691406 C 18.03125 13.378906 18.035156 13.070312 18.039062 12.757812 C 18.039062 12.738281 18.039062 12.71875 18.039062 12.699219 C 18.039062 12.601562 18.039062 12.503906 18.042969 12.410156 C 18.046875 11.609375 18.058594 10.808594 18.074219 10.007812 C 18.117188 10.03125 18.164062 10.058594 18.207031 10.082031 C 18.246094 10.101562 18.246094 10.101562 18.285156 10.125 C 18.363281 10.167969 18.441406 10.210938 18.519531 10.253906 C 18.546875 10.269531 18.574219 10.289062 18.605469 10.304688 C 18.648438 10.328125 18.648438 10.328125 18.691406 10.355469 C 18.726562 10.375 18.757812 10.390625 18.789062 10.410156 C 19.082031 10.578125 19.375 10.75 19.664062 10.917969 C 19.777344 10.984375 19.886719 11.046875 20 11.113281 C 20.082031 11.160156 20.167969 11.210938 20.25 11.257812 C 20.363281 11.324219 20.476562 11.386719 20.589844 11.453125 C 20.859375 11.609375 21.128906 11.765625 21.398438 11.925781 C 21.859375 12.195312 22.324219 12.464844 22.789062 12.730469 C 23.019531 12.867188 23.253906 13 23.484375 13.136719 C 23.683594 13.253906 23.878906 13.367188 24.078125 13.480469 C 24.328125 13.625 24.578125 13.769531 24.824219 13.914062 C 25.023438 14.03125 25.222656 14.144531 25.421875 14.257812 C 25.667969 14.402344 25.917969 14.546875 26.164062 14.691406 C 26.363281 14.808594 26.5625 14.921875 26.761719 15.035156 C 27.011719 15.179688 27.257812 15.324219 27.507812 15.46875 C 27.703125 15.585938 27.902344 15.699219 28.101562 15.816406 C 28.351562 15.957031 28.601562 16.101562 28.851562 16.25 C 29.121094 16.410156 29.394531 16.566406 29.667969 16.726562 C 29.808594 16.804688 29.945312 16.886719 30.085938 16.96875 C 30.140625 17 30.199219 17.035156 30.253906 17.066406 C 30.589844 17.261719 30.925781 17.453125 31.257812 17.648438 C 31.289062 17.664062 31.316406 17.679688 31.34375 17.699219 C 31.398438 17.730469 31.453125 17.761719 31.511719 17.792969 C 31.640625 17.871094 31.773438 17.945312 31.902344 18.023438 C 31.964844 18.058594 32.027344 18.09375 32.089844 18.128906 C 32.132812 18.152344 32.175781 18.179688 32.21875 18.203125 C 32.246094 18.21875 32.273438 18.234375 32.300781 18.25 C 32.324219 18.265625 32.347656 18.277344 32.371094 18.292969 C 32.484375 18.363281 32.484375 18.363281 32.535156 18.40625 C 32.546875 18.460938 32.546875 18.460938 32.546875 18.523438 C 32.550781 18.5625 32.550781 18.5625 32.550781 18.597656 C 32.550781 18.625 32.550781 18.652344 32.546875 18.679688 C 32.546875 18.707031 32.550781 18.734375 32.550781 18.765625 C 32.550781 18.863281 32.546875 18.957031 32.546875 19.054688 C 32.546875 19.125 32.546875 19.191406 32.546875 19.261719 C 32.546875 19.414062 32.546875 19.566406 32.546875 19.714844 C 32.546875 19.941406 32.546875 20.167969 32.546875 20.390625 C 32.546875 20.769531 32.546875 21.148438 32.546875 21.527344 C 32.546875 21.902344 32.546875 22.277344 32.546875 22.652344 C 32.546875 22.675781 32.546875 22.699219 32.546875 22.722656 C 32.546875 22.839844 32.546875 22.957031 32.546875 23.078125 C 32.546875 23.914062 32.542969 24.753906 32.542969 25.589844 C 32.542969 26.40625 32.542969 27.21875 32.542969 28.035156 C 32.542969 28.058594 32.542969 28.085938 32.542969 28.109375 C 32.542969 28.363281 32.542969 28.613281 32.542969 28.867188 C 32.539062 29.378906 32.539062 29.890625 32.539062 30.40625 C 32.539062 30.429688 32.539062 30.453125 32.539062 30.476562 C 32.539062 32.054688 32.539062 33.628906 32.535156 35.207031 C 32.519531 35.199219 32.5 35.191406 32.484375 35.179688 C 32.476562 35.207031 32.46875 35.234375 32.457031 35.257812 C 32.332031 35.222656 32.226562 35.164062 32.113281 35.097656 C 32.074219 35.074219 32.035156 35.050781 31.996094 35.027344 C 31.976562 35.015625 31.953125 35 31.933594 34.988281 C 31.8125 34.917969 31.691406 34.84375 31.570312 34.773438 C 31.542969 34.757812 31.519531 34.746094 31.492188 34.726562 C 31.269531 34.597656 31.050781 34.46875 30.828125 34.339844 C 30.613281 34.21875 30.402344 34.09375 30.191406 33.96875 C 30 33.859375 29.8125 33.75 29.621094 33.640625 C 29.277344 33.441406 28.933594 33.238281 28.59375 33.035156 C 28.269531 32.847656 27.949219 32.660156 27.625 32.472656 C 27.574219 32.441406 27.523438 32.414062 27.472656 32.382812 C 27.40625 32.34375 27.339844 32.3125 27.269531 32.285156 C 27.125 32.226562 26.980469 32.160156 26.917969 32.007812 C 26.875 31.820312 26.886719 31.628906 26.890625 31.433594 C 26.890625 31.371094 26.890625 31.304688 26.890625 31.242188 C 26.890625 31.101562 26.890625 30.960938 26.894531 30.820312 C 26.894531 30.617188 26.894531 30.417969 26.894531 30.214844 C 26.894531 29.886719 26.898438 29.558594 26.902344 29.226562 C 26.90625 28.910156 26.90625 28.589844 26.910156 28.273438 C 26.910156 28.253906 26.910156 28.234375 26.910156 28.210938 C 26.910156 28 26.910156 27.785156 26.910156 27.570312 C 26.910156 27.511719 26.910156 27.457031 26.910156 27.398438 C 26.910156 27.359375 26.910156 27.324219 26.910156 27.285156 C 26.914062 27.046875 26.914062 26.808594 26.917969 26.570312 C 26.917969 26.433594 26.917969 26.296875 26.917969 26.160156 C 26.917969 26.097656 26.921875 26.035156 26.921875 25.972656 C 26.921875 25.882812 26.921875 25.796875 26.921875 25.710938 C 26.921875 25.675781 26.921875 25.675781 26.925781 25.636719 C 26.925781 25.480469 26.90625 25.339844 26.839844 25.199219 C 26.78125 25.140625 26.78125 25.140625 26.710938 25.121094 C 26.589844 25.132812 26.507812 25.167969 26.40625 25.226562 C 26.375 25.246094 26.347656 25.261719 26.320312 25.277344 C 26.289062 25.296875 26.257812 25.316406 26.226562 25.332031 C 26.195312 25.351562 26.160156 25.371094 26.128906 25.390625 C 26.0625 25.429688 25.996094 25.46875 25.929688 25.507812 C 25.8125 25.574219 25.695312 25.644531 25.578125 25.710938 C 25.492188 25.757812 25.410156 25.808594 25.328125 25.855469 C 25.160156 25.953125 24.996094 26.050781 24.828125 26.144531 C 24.769531 26.179688 24.714844 26.210938 24.660156 26.242188 C 24.324219 26.4375 24.324219 26.4375 24.242188 26.488281 C 24.183594 26.519531 24.128906 26.550781 24.074219 26.582031 C 23.933594 26.664062 23.792969 26.746094 23.652344 26.828125 C 23.382812 26.984375 23.113281 27.140625 22.84375 27.296875 C 22.605469 27.4375 22.367188 27.578125 22.125 27.714844 C 21.890625 27.851562 21.65625 27.988281 21.421875 28.125 C 21.234375 28.234375 21.046875 28.34375 20.859375 28.453125 C 20.832031 28.46875 20.804688 28.484375 20.777344 28.5 C 20.644531 28.578125 20.515625 28.652344 20.382812 28.726562 C 20.339844 28.753906 20.292969 28.78125 20.246094 28.804688 C 20.1875 28.839844 20.132812 28.871094 20.074219 28.90625 C 19.738281 29.085938 19.738281 29.085938 19.542969 29.398438 C 19.519531 29.492188 19.511719 29.574219 19.511719 29.667969 C 19.511719 29.695312 19.511719 29.722656 19.511719 29.75 C 19.511719 29.796875 19.511719 29.796875 19.511719 29.84375 C 19.511719 29.875 19.511719 29.90625 19.511719 29.941406 C 19.511719 30.03125 19.511719 30.117188 19.511719 30.207031 C 19.511719 30.304688 19.511719 30.402344 19.511719 30.496094 C 19.511719 30.6875 19.511719 30.875 19.511719 31.0625 C 19.511719 31.214844 19.511719 31.371094 19.511719 31.523438 C 19.511719 31.957031 19.511719 32.390625 19.511719 32.824219 C 19.511719 32.847656 19.511719 32.871094 19.511719 32.898438 C 19.511719 32.921875 19.511719 32.945312 19.511719 32.96875 C 19.511719 33.347656 19.511719 33.726562 19.511719 34.109375 C 19.511719 34.5 19.511719 34.886719 19.511719 35.277344 C 19.511719 35.496094 19.511719 35.71875 19.511719 35.9375 C 19.511719 36.121094 19.511719 36.308594 19.511719 36.496094 C 19.511719 36.589844 19.511719 36.6875 19.511719 36.78125 C 19.507812 36.882812 19.511719 36.988281 19.511719 37.089844 C 19.511719 37.136719 19.511719 37.136719 19.507812 37.183594 C 19.507812 37.421875 19.507812 37.421875 19.601562 37.640625 C 19.664062 37.683594 19.699219 37.691406 19.773438 37.695312 C 19.910156 37.644531 20.035156 37.578125 20.160156 37.507812 C 20.1875 37.488281 20.1875 37.488281 20.21875 37.472656 C 20.4375 37.347656 20.65625 37.21875 20.875 37.09375 C 21.039062 36.996094 21.203125 36.898438 21.371094 36.804688 C 21.398438 36.789062 21.425781 36.769531 21.453125 36.753906 C 21.566406 36.6875 21.679688 36.625 21.792969 36.558594 C 22.089844 36.386719 22.390625 36.210938 22.6875 36.035156 C 22.984375 35.863281 23.285156 35.6875 23.582031 35.515625 C 23.75 35.417969 23.917969 35.320312 24.085938 35.222656 C 24.226562 35.140625 24.367188 35.058594 24.507812 34.980469 C 24.550781 34.953125 24.550781 34.953125 24.59375 34.929688 C 24.648438 34.898438 24.707031 34.863281 24.761719 34.832031 C 24.898438 34.753906 25.035156 34.671875 25.171875 34.585938 C 25.199219 34.570312 25.222656 34.554688 25.25 34.539062 C 25.300781 34.507812 25.347656 34.476562 25.394531 34.449219 C 25.417969 34.433594 25.441406 34.421875 25.460938 34.40625 C 25.488281 34.390625 25.488281 34.390625 25.519531 34.371094 C 25.574219 34.351562 25.574219 34.351562 25.636719 34.371094 C 25.710938 34.40625 25.78125 34.445312 25.851562 34.488281 C 25.882812 34.503906 25.910156 34.519531 25.941406 34.539062 C 25.972656 34.554688 26.003906 34.574219 26.035156 34.589844 C 26.066406 34.609375 26.097656 34.628906 26.132812 34.648438 C 26.359375 34.78125 26.585938 34.914062 26.8125 35.046875 C 27.003906 35.15625 27.191406 35.265625 27.378906 35.375 C 27.722656 35.574219 28.066406 35.777344 28.410156 35.976562 C 28.703125 36.148438 28.996094 36.320312 29.289062 36.492188 C 29.578125 36.660156 29.871094 36.832031 30.164062 37.003906 C 30.246094 37.050781 30.328125 37.097656 30.410156 37.144531 C 30.4375 37.164062 30.464844 37.179688 30.492188 37.195312 C 30.542969 37.226562 30.597656 37.257812 30.648438 37.285156 C 30.695312 37.316406 30.742188 37.34375 30.789062 37.371094 C 30.839844 37.398438 30.886719 37.425781 30.933594 37.453125 C 30.957031 37.46875 30.984375 37.480469 31.007812 37.496094 C 31.027344 37.507812 31.050781 37.519531 31.070312 37.535156 C 31.085938 37.542969 31.101562 37.554688 31.117188 37.566406 C 31.117188 37.582031 31.117188 37.601562 31.117188 37.617188 C 31.101562 37.628906 31.082031 37.636719 31.066406 37.648438 C 30.632812 37.890625 30.632812 37.890625 30.203125 38.140625 C 30.042969 38.238281 29.878906 38.332031 29.714844 38.425781 C 29.6875 38.445312 29.65625 38.460938 29.628906 38.476562 C 29.570312 38.511719 29.511719 38.546875 29.453125 38.578125 C 29.3125 38.660156 29.171875 38.742188 29.03125 38.824219 C 28.972656 38.855469 28.917969 38.890625 28.863281 38.921875 C 28.835938 38.9375 28.808594 38.953125 28.777344 38.96875 C 26.011719 40.574219 23.25 42.179688 18.472656 44.949219 C 18.445312 44.964844 18.417969 44.980469 18.386719 44.996094 C 18.332031 45.03125 18.277344 45.0625 18.222656 45.09375 C 18.078125 45.175781 17.9375 45.257812 17.796875 45.339844 C 17.742188 45.375 17.683594 45.40625 17.625 45.441406 C 17.597656 45.457031 17.570312 45.472656 17.542969 45.488281 C 17.410156 45.566406 17.273438 45.644531 17.136719 45.722656 C 17.113281 45.734375 17.089844 45.75 17.0625 45.765625 C 17.015625 45.792969 16.96875 45.820312 16.921875 45.84375 C 16.898438 45.855469 16.878906 45.867188 16.859375 45.882812 C 16.839844 45.890625 16.820312 45.902344 16.800781 45.914062 C 16.753906 45.941406 16.753906 45.941406 16.707031 45.992188 C 16.601562 45.960938 16.507812 45.917969 16.410156 45.863281 C 16.371094 45.839844 16.371094 45.839844 16.332031 45.816406 C 16.304688 45.800781 16.273438 45.78125 16.246094 45.765625 C 16.214844 45.75 16.183594 45.730469 16.15625 45.714844 C 16.078125 45.667969 16.003906 45.625 15.925781 45.578125 C 15.859375 45.539062 15.789062 45.496094 15.722656 45.457031 C 15.59375 45.382812 15.464844 45.308594 15.339844 45.234375 C 15.261719 45.1875 15.1875 45.144531 15.113281 45.101562 C 14.894531 44.972656 14.675781 44.84375 14.457031 44.714844 C 14.042969 44.472656 14.042969 44.472656 13.625 44.230469 C 13.410156 44.105469 13.199219 43.984375 12.984375 43.855469 C 12.96875 43.847656 12.953125 43.839844 12.9375 43.828125 C 12.875 43.789062 12.808594 43.753906 12.746094 43.714844 C 12.351562 43.480469 11.953125 43.25 11.554688 43.019531 C 11.386719 42.921875 11.214844 42.820312 11.042969 42.71875 C 10.8125 42.582031 10.574219 42.445312 10.339844 42.304688 C 10.261719 42.261719 10.183594 42.214844 10.105469 42.167969 C 9.8125 41.996094 9.519531 41.824219 9.222656 41.652344 C 9.035156 41.542969 8.847656 41.433594 8.664062 41.324219 C 8.335938 41.132812 8.011719 40.945312 7.683594 40.753906 C 7.355469 40.566406 7.027344 40.375 6.703125 40.183594 C 6.238281 39.914062 5.773438 39.640625 5.304688 39.375 C 5.101562 39.257812 4.898438 39.140625 4.695312 39.023438 C 4.578125 38.953125 4.460938 38.886719 4.34375 38.816406 C 3.792969 38.5 3.792969 38.5 3.582031 38.367188 C 3.492188 38.308594 3.398438 38.257812 3.304688 38.207031 C 3.152344 38.125 3.007812 38.039062 2.859375 37.953125 C 2.8125 37.925781 2.765625 37.898438 2.71875 37.871094 C 2.671875 37.847656 2.628906 37.820312 2.582031 37.792969 C 2.496094 37.746094 2.40625 37.699219 2.316406 37.652344 C 2.253906 37.609375 2.226562 37.554688 2.191406 37.488281 C 2.207031 37.480469 2.222656 37.472656 2.238281 37.460938 C 2.722656 37.1875 3.203125 36.90625 3.683594 36.625 C 3.9375 36.472656 4.191406 36.324219 4.449219 36.179688 C 4.632812 36.070312 4.816406 35.964844 5 35.855469 C 5.214844 35.730469 5.429688 35.605469 5.644531 35.480469 C 5.9375 35.308594 6.230469 35.140625 6.523438 34.96875 C 6.601562 34.921875 6.679688 34.875 6.761719 34.828125 C 6.789062 34.8125 6.8125 34.796875 6.839844 34.78125 C 6.894531 34.75 6.945312 34.71875 7 34.6875 C 7.117188 34.621094 7.234375 34.550781 7.347656 34.476562 C 7.371094 34.464844 7.390625 34.453125 7.410156 34.441406 C 7.445312 34.417969 7.484375 34.394531 7.519531 34.371094 C 7.59375 34.324219 7.640625 34.300781 7.730469 34.304688 C 7.816406 34.328125 7.875 34.355469 7.949219 34.398438 C 7.976562 34.414062 8.003906 34.429688 8.03125 34.445312 C 8.058594 34.464844 8.085938 34.480469 8.113281 34.496094 C 8.144531 34.515625 8.175781 34.53125 8.203125 34.550781 C 8.265625 34.585938 8.328125 34.625 8.390625 34.660156 C 8.535156 34.746094 8.683594 34.832031 8.828125 34.914062 C 9.039062 35.035156 9.246094 35.160156 9.457031 35.28125 C 9.570312 35.347656 9.683594 35.414062 9.800781 35.480469 C 10.074219 35.640625 10.347656 35.796875 10.621094 35.960938 C 10.917969 36.132812 11.21875 36.308594 11.515625 36.480469 C 11.683594 36.578125 11.851562 36.675781 12.019531 36.773438 C 12.164062 36.855469 12.304688 36.9375 12.449219 37.019531 C 12.492188 37.046875 12.492188 37.046875 12.535156 37.070312 C 12.59375 37.105469 12.648438 37.136719 12.707031 37.167969 C 12.828125 37.242188 12.953125 37.3125 13.074219 37.390625 C 13.09375 37.402344 13.113281 37.414062 13.132812 37.425781 C 13.171875 37.449219 13.207031 37.472656 13.242188 37.496094 C 13.363281 37.570312 13.445312 37.582031 13.585938 37.566406 C 13.691406 37.511719 13.75 37.46875 13.792969 37.359375 C 13.800781 37.292969 13.800781 37.292969 13.800781 37.222656 C 13.800781 37.195312 13.800781 37.167969 13.800781 37.136719 C 13.800781 37.109375 13.800781 37.078125 13.800781 37.046875 C 13.800781 37.011719 13.800781 36.980469 13.800781 36.949219 C 13.800781 36.859375 13.800781 36.765625 13.800781 36.675781 C 13.800781 36.582031 13.800781 36.484375 13.800781 36.386719 C 13.800781 36.195312 13.800781 36.003906 13.800781 35.816406 C 13.800781 35.660156 13.800781 35.503906 13.800781 35.351562 C 13.800781 35.316406 13.800781 35.316406 13.800781 35.285156 C 13.800781 35.238281 13.800781 35.195312 13.800781 35.148438 C 13.800781 34.730469 13.800781 34.308594 13.800781 33.890625 C 13.800781 33.507812 13.800781 33.121094 13.800781 32.738281 C 13.800781 32.34375 13.800781 31.949219 13.800781 31.554688 C 13.800781 31.335938 13.800781 31.113281 13.800781 30.894531 C 13.804688 30.703125 13.804688 30.515625 13.804688 30.328125 C 13.800781 30.230469 13.800781 30.136719 13.804688 30.039062 C 13.804688 29.933594 13.804688 29.832031 13.800781 29.726562 C 13.804688 29.695312 13.804688 29.664062 13.804688 29.632812 C 13.800781 29.425781 13.777344 29.238281 13.632812 29.074219 C 13.527344 28.984375 13.40625 28.921875 13.285156 28.855469 C 13.253906 28.839844 13.226562 28.824219 13.195312 28.804688 C 13.132812 28.769531 13.070312 28.734375 13.007812 28.699219 C 12.867188 28.621094 12.722656 28.535156 12.582031 28.453125 C 12.527344 28.421875 12.46875 28.390625 12.414062 28.355469 C 12.386719 28.339844 12.359375 28.324219 12.332031 28.308594 C 12.246094 28.257812 12.160156 28.210938 12.078125 28.160156 C 11.808594 28.003906 11.539062 27.847656 11.269531 27.691406 C 11.046875 27.558594 10.820312 27.429688 10.597656 27.300781 C 10.34375 27.15625 10.09375 27.011719 9.847656 26.863281 C 9.410156 26.609375 8.972656 26.355469 8.535156 26.105469 C 8.300781 25.972656 8.070312 25.835938 7.835938 25.699219 C 7.609375 25.566406 7.382812 25.433594 7.152344 25.300781 C 7.125 25.285156 7.101562 25.269531 7.074219 25.253906 C 7.050781 25.242188 7.027344 25.226562 7 25.210938 C 6.957031 25.1875 6.910156 25.160156 6.867188 25.128906 C 6.769531 25.074219 6.679688 25.09375 6.574219 25.121094 C 6.5 25.167969 6.457031 25.199219 6.417969 25.277344 C 6.417969 25.316406 6.417969 25.351562 6.417969 25.386719 C 6.417969 25.410156 6.417969 25.433594 6.417969 25.457031 C 6.417969 25.484375 6.417969 25.511719 6.417969 25.535156 C 6.417969 25.5625 6.417969 25.589844 6.417969 25.621094 C 6.417969 25.710938 6.417969 25.804688 6.417969 25.894531 C 6.417969 25.960938 6.417969 26.027344 6.417969 26.09375 C 6.417969 26.195312 6.417969 26.300781 6.417969 26.40625 C 6.417969 26.667969 6.417969 26.929688 6.417969 27.1875 C 6.417969 27.21875 6.417969 27.21875 6.417969 27.246094 C 6.417969 27.402344 6.417969 27.554688 6.417969 27.710938 C 6.417969 27.851562 6.417969 27.992188 6.417969 28.132812 C 6.417969 28.152344 6.417969 28.171875 6.417969 28.191406 C 6.417969 28.515625 6.421875 28.835938 6.421875 29.160156 C 6.421875 29.492188 6.421875 29.824219 6.421875 30.15625 C 6.421875 30.359375 6.421875 30.5625 6.421875 30.769531 C 6.421875 30.925781 6.421875 31.082031 6.421875 31.238281 C 6.421875 31.300781 6.421875 31.367188 6.421875 31.429688 C 6.425781 31.519531 6.421875 31.605469 6.421875 31.695312 C 6.421875 31.734375 6.421875 31.734375 6.425781 31.773438 C 6.421875 31.878906 6.421875 31.941406 6.34375 32.015625 C 6.285156 32.054688 6.226562 32.089844 6.160156 32.121094 C 6.136719 32.136719 6.113281 32.152344 6.089844 32.167969 C 6.066406 32.179688 6.046875 32.191406 6.023438 32.203125 C 5.988281 32.222656 5.988281 32.222656 5.953125 32.242188 C 5.914062 32.261719 5.914062 32.261719 5.878906 32.285156 C 5.703125 32.382812 5.527344 32.484375 5.351562 32.585938 C 5.335938 32.597656 5.316406 32.609375 5.300781 32.617188 C 5.261719 32.640625 5.226562 32.660156 5.191406 32.683594 C 4.824219 32.898438 4.457031 33.113281 4.09375 33.324219 C 3.90625 33.433594 3.71875 33.542969 3.53125 33.652344 C 3.316406 33.777344 3.101562 33.902344 2.886719 34.027344 C 2.59375 34.199219 2.300781 34.367188 2.011719 34.539062 C 1.929688 34.585938 1.851562 34.632812 1.773438 34.679688 C 1.746094 34.695312 1.71875 34.710938 1.691406 34.726562 C 1.640625 34.757812 1.585938 34.789062 1.535156 34.820312 C 1.417969 34.886719 1.296875 34.957031 1.179688 35.027344 C 1.160156 35.039062 1.136719 35.054688 1.117188 35.066406 C 1.078125 35.089844 1.042969 35.109375 1.003906 35.132812 C 0.878906 35.207031 0.878906 35.207031 0.851562 35.207031 C 0.851562 29.65625 0.851562 24.101562 0.851562 18.382812 C 1.195312 18.1875 1.195312 18.1875 1.546875 17.992188 C 1.777344 17.859375 1.777344 17.859375 2.007812 17.722656 C 2.175781 17.621094 2.347656 17.523438 2.519531 17.425781 C 2.542969 17.414062 2.542969 17.414062 2.566406 17.398438 C 2.6875 17.328125 2.8125 17.257812 2.933594 17.1875 C 3.039062 17.128906 3.148438 17.066406 3.253906 17.003906 C 3.269531 16.996094 3.285156 16.988281 3.300781 16.976562 C 3.507812 16.859375 3.714844 16.738281 3.921875 16.617188 C 4.164062 16.476562 4.402344 16.339844 4.644531 16.203125 C 4.808594 16.109375 4.972656 16.015625 5.136719 15.917969 C 5.308594 15.816406 5.484375 15.714844 5.65625 15.617188 C 5.894531 15.480469 6.132812 15.34375 6.367188 15.207031 C 6.613281 15.0625 6.863281 14.917969 7.109375 14.777344 C 7.328125 14.652344 7.542969 14.527344 7.761719 14.402344 C 8.007812 14.257812 8.253906 14.117188 8.5 13.972656 C 8.71875 13.847656 8.9375 13.722656 9.152344 13.597656 C 9.398438 13.453125 9.648438 13.3125 9.894531 13.171875 C 10.109375 13.046875 10.328125 12.921875 10.542969 12.792969 C 10.792969 12.652344 11.039062 12.507812 11.285156 12.367188 C 11.503906 12.242188 11.71875 12.117188 11.9375 11.992188 C 12.183594 11.847656 12.429688 11.703125 12.679688 11.5625 C 12.894531 11.4375 13.113281 11.3125 13.328125 11.1875 C 13.5625 11.050781 13.792969 10.917969 14.023438 10.785156 C 14.265625 10.648438 14.507812 10.507812 14.746094 10.367188 C 14.773438 10.351562 14.800781 10.339844 14.828125 10.320312 C 14.933594 10.261719 15.039062 10.199219 15.144531 10.136719 C 15.171875 10.121094 15.199219 10.105469 15.230469 10.085938 C 15.253906 10.070312 15.28125 10.054688 15.304688 10.039062 C 15.367188 10.007812 15.367188 10.007812 15.390625 10.007812 Z M 15.390625 10.007812 "/>
<path style=" stroke:none;fill-rule:nonzero;fill:rgb(49.803922%,49.803922%,49.803922%);fill-opacity:1;" d="M 15.390625 10.007812 C 15.390625 12.144531 15.390625 14.285156 15.390625 16.488281 C 15.152344 16.625 14.914062 16.761719 14.667969 16.902344 C 14.507812 17 14.507812 17 14.34375 17.09375 C 14.171875 17.199219 13.996094 17.300781 13.820312 17.402344 C 13.632812 17.511719 13.441406 17.621094 13.253906 17.730469 C 13.015625 17.871094 12.777344 18.011719 12.535156 18.148438 C 12.300781 18.285156 12.066406 18.417969 11.832031 18.558594 C 11.503906 18.75 11.175781 18.941406 10.847656 19.128906 C 10.707031 19.210938 10.566406 19.292969 10.425781 19.375 C 10.3125 19.441406 10.199219 19.507812 10.082031 19.570312 C 10.027344 19.605469 9.96875 19.636719 9.914062 19.667969 C 9.886719 19.683594 9.859375 19.699219 9.832031 19.714844 C 9.808594 19.730469 9.785156 19.742188 9.757812 19.757812 C 9.738281 19.769531 9.714844 19.78125 9.695312 19.792969 C 9.636719 19.835938 9.617188 19.871094 9.589844 19.9375 C 9.585938 19.996094 9.585938 19.996094 9.59375 20.054688 C 9.59375 20.082031 9.59375 20.082031 9.597656 20.113281 C 9.652344 20.269531 9.875 20.351562 10.011719 20.425781 C 10.222656 20.542969 10.429688 20.664062 10.640625 20.789062 C 10.863281 20.921875 11.089844 21.050781 11.316406 21.179688 C 11.570312 21.324219 11.816406 21.46875 12.066406 21.617188 C 12.339844 21.777344 12.609375 21.933594 12.882812 22.089844 C 13.023438 22.171875 13.164062 22.253906 13.304688 22.335938 C 13.359375 22.367188 13.414062 22.398438 13.46875 22.433594 C 15.148438 23.40625 15.148438 23.40625 15.230469 23.453125 C 15.285156 23.484375 15.339844 23.519531 15.398438 23.550781 C 15.527344 23.625 15.65625 23.699219 15.785156 23.777344 C 15.832031 23.800781 15.875 23.828125 15.921875 23.855469 C 15.980469 23.890625 16.035156 23.921875 16.09375 23.957031 C 16.4375 24.183594 16.4375 24.183594 16.832031 24.230469 C 17.011719 24.171875 17.164062 24.082031 17.324219 23.988281 C 17.367188 23.960938 17.414062 23.933594 17.457031 23.910156 C 17.503906 23.882812 17.550781 23.855469 17.59375 23.828125 C 17.738281 23.742188 17.878906 23.660156 18.019531 23.578125 C 18.078125 23.546875 18.132812 23.515625 18.1875 23.480469 C 19.195312 22.898438 19.195312 22.898438 19.277344 22.851562 C 19.332031 22.816406 19.390625 22.785156 19.445312 22.753906 C 19.585938 22.671875 19.726562 22.589844 19.867188 22.507812 C 20.136719 22.351562 20.40625 22.195312 20.671875 22.039062 C 20.914062 21.898438 21.152344 21.757812 21.394531 21.621094 C 21.628906 21.488281 21.863281 21.351562 22.097656 21.214844 C 22.285156 21.101562 22.472656 20.992188 22.660156 20.886719 C 22.6875 20.867188 22.714844 20.851562 22.742188 20.835938 C 22.875 20.761719 23.003906 20.683594 23.136719 20.609375 C 23.199219 20.574219 23.257812 20.539062 23.320312 20.503906 C 23.363281 20.476562 23.40625 20.453125 23.449219 20.425781 C 23.6875 20.304688 23.6875 20.304688 23.875 20.117188 C 23.875 19.96875 23.875 19.96875 23.789062 19.847656 C 23.722656 19.785156 23.65625 19.738281 23.578125 19.691406 C 23.550781 19.675781 23.519531 19.65625 23.492188 19.640625 C 23.460938 19.625 23.433594 19.605469 23.402344 19.589844 C 23.371094 19.570312 23.339844 19.550781 23.308594 19.535156 C 23.074219 19.394531 22.835938 19.261719 22.597656 19.128906 C 22.445312 19.042969 22.292969 18.953125 22.140625 18.863281 C 21.902344 18.714844 21.65625 18.574219 21.410156 18.433594 C 21.269531 18.351562 21.128906 18.269531 20.984375 18.1875 C 20.816406 18.089844 20.648438 17.992188 20.480469 17.894531 C 20.183594 17.722656 19.890625 17.550781 19.59375 17.378906 C 19.382812 17.25 19.167969 17.128906 18.953125 17.003906 C 18.902344 16.972656 18.851562 16.941406 18.800781 16.914062 C 18.714844 16.863281 18.628906 16.824219 18.539062 16.785156 C 18.125 16.589844 18.125 16.589844 18.039062 16.421875 C 17.980469 16.238281 17.996094 16.042969 18.003906 15.851562 C 18.003906 15.789062 18.003906 15.726562 18.003906 15.660156 C 18.003906 15.523438 18.003906 15.386719 18.007812 15.25 C 18.011719 15.050781 18.015625 14.855469 18.015625 14.65625 C 18.015625 14.335938 18.019531 14.011719 18.027344 13.691406 C 18.03125 13.378906 18.035156 13.070312 18.039062 12.757812 C 18.039062 12.738281 18.039062 12.71875 18.039062 12.699219 C 18.039062 12.601562 18.039062 12.503906 18.042969 12.410156 C 18.046875 11.609375 18.058594 10.808594 18.074219 10.007812 C 18.117188 10.03125 18.164062 10.058594 18.207031 10.082031 C 18.246094 10.101562 18.246094 10.101562 18.285156 10.125 C 18.363281 10.167969 18.441406 10.210938 18.519531 10.253906 C 18.546875 10.269531 18.574219 10.289062 18.605469 10.304688 C 18.648438 10.328125 18.648438 10.328125 18.691406 10.355469 C 18.726562 10.375 18.757812 10.390625 18.789062 10.410156 C 19.082031 10.578125 19.375 10.75 19.664062 10.917969 C 19.777344 10.984375 19.886719 11.046875 20 11.113281 C 20.082031 11.160156 20.167969 11.210938 20.25 11.257812 C 20.363281 11.324219 20.476562 11.386719 20.589844 11.453125 C 20.859375 11.609375 21.128906 11.765625 21.398438 11.925781 C 21.859375 12.195312 22.324219 12.464844 22.789062 12.730469 C 23.019531 12.867188 23.253906 13 23.484375 13.136719 C 23.683594 13.253906 23.878906 13.367188 24.078125 13.480469 C 24.328125 13.625 24.578125 13.769531 24.824219 13.914062 C 25.023438 14.03125 25.222656 14.144531 25.421875 14.257812 C 25.667969 14.402344 25.917969 14.546875 26.164062 14.691406 C 26.363281 14.808594 26.5625 14.921875 26.761719 15.035156 C 27.011719 15.179688 27.257812 15.324219 27.507812 15.46875 C 27.703125 15.585938 27.902344 15.699219 28.101562 15.816406 C 28.351562 15.957031 28.601562 16.101562 28.851562 16.25 C 29.121094 16.410156 29.394531 16.566406 29.667969 16.726562 C 29.808594 16.804688 29.945312 16.886719 30.085938 16.96875 C 30.140625 17 30.199219 17.035156 30.253906 17.066406 C 30.589844 17.261719 30.925781 17.453125 31.257812 17.648438 C 31.289062 17.664062 31.316406 17.679688 31.34375 17.699219 C 31.398438 17.730469 31.453125 17.761719 31.511719 17.792969 C 31.640625 17.871094 31.773438 17.945312 31.902344 18.023438 C 31.964844 18.058594 32.027344 18.09375 32.089844 18.128906 C 32.132812 18.152344 32.175781 18.179688 32.21875 18.203125 C 32.246094 18.21875 32.273438 18.234375 32.300781 18.25 C 32.324219 18.265625 32.347656 18.277344 32.371094 18.292969 C 32.484375 18.363281 32.484375 18.363281 32.535156 18.40625 C 32.546875 18.460938 32.546875 18.460938 32.546875 18.523438 C 32.550781 18.5625 32.550781 18.5625 32.550781 18.597656 C 32.550781 18.625 32.550781 18.652344 32.546875 18.679688 C 32.546875 18.707031 32.550781 18.734375 32.550781 18.765625 C 32.550781 18.863281 32.546875 18.957031 32.546875 19.054688 C 32.546875 19.125 32.546875 19.191406 32.546875 19.261719 C 32.546875 19.414062 32.546875 19.566406 32.546875 19.714844 C 32.546875 19.941406 32.546875 20.167969 32.546875 20.390625 C 32.546875 20.769531 32.546875 21.148438 32.546875 21.527344 C 32.546875 21.902344 32.546875 22.277344 32.546875 22.652344 C 32.546875 22.675781 32.546875 22.699219 32.546875 22.722656 C 32.546875 22.839844 32.546875 22.957031 32.546875 23.078125 C 32.546875 23.914062 32.542969 24.753906 32.542969 25.589844 C 32.542969 26.40625 32.542969 27.21875 32.542969 28.035156 C 32.542969 28.058594 32.542969 28.085938 32.542969 28.109375 C 32.542969 28.363281 32.542969 28.613281 32.542969 28.867188 C 32.539062 29.378906 32.539062 29.890625 32.539062 30.40625 C 32.539062 30.429688 32.539062 30.453125 32.539062 30.476562 C 32.539062 32.054688 32.539062 33.628906 32.535156 35.207031 C 32.511719 35.191406 32.484375 35.171875 32.457031 35.15625 C 32.449219 35.105469 32.449219 35.105469 32.449219 35.042969 C 32.449219 35.019531 32.449219 34.992188 32.449219 34.96875 C 32.449219 34.929688 32.449219 34.929688 32.449219 34.886719 C 32.449219 34.859375 32.449219 34.832031 32.449219 34.800781 C 32.449219 34.707031 32.449219 34.609375 32.449219 34.515625 C 32.449219 34.445312 32.449219 34.375 32.449219 34.308594 C 32.449219 34.15625 32.449219 34.007812 32.449219 33.855469 C 32.449219 33.632812 32.449219 33.40625 32.449219 33.183594 C 32.449219 32.808594 32.449219 32.429688 32.449219 32.054688 C 32.449219 31.679688 32.449219 31.308594 32.453125 30.933594 C 32.453125 30.898438 32.453125 30.898438 32.453125 30.863281 C 32.453125 30.746094 32.453125 30.628906 32.453125 30.511719 C 32.453125 29.675781 32.453125 28.839844 32.453125 28.007812 C 32.453125 27.195312 32.453125 26.386719 32.453125 25.574219 C 32.453125 25.550781 32.453125 25.523438 32.453125 25.5 C 32.453125 25.25 32.453125 24.996094 32.453125 24.746094 C 32.453125 24.234375 32.457031 23.726562 32.457031 23.214844 C 32.457031 23.191406 32.457031 23.167969 32.457031 23.144531 C 32.457031 21.574219 32.457031 20.003906 32.457031 18.433594 C 32.363281 18.488281 32.269531 18.539062 32.175781 18.59375 C 32.148438 18.609375 32.121094 18.625 32.09375 18.640625 C 31.910156 18.746094 31.726562 18.851562 31.542969 18.960938 C 31.046875 19.253906 30.550781 19.542969 30.054688 19.832031 C 29.601562 20.09375 29.148438 20.355469 28.699219 20.621094 C 28.40625 20.792969 28.117188 20.960938 27.824219 21.128906 C 27.535156 21.292969 27.25 21.460938 26.964844 21.628906 C 26.480469 21.914062 25.996094 22.195312 25.511719 22.476562 C 25.210938 22.652344 24.90625 22.828125 24.605469 23.007812 C 24.242188 23.222656 23.878906 23.433594 23.511719 23.644531 C 23.210938 23.816406 22.910156 23.992188 22.609375 24.171875 C 22.125 24.453125 21.640625 24.738281 21.15625 25.015625 C 20.851562 25.191406 20.550781 25.371094 20.246094 25.546875 C 19.886719 25.761719 19.519531 25.976562 19.15625 26.183594 C 18.851562 26.359375 18.550781 26.535156 18.25 26.710938 C 18.097656 26.800781 17.945312 26.890625 17.789062 26.980469 C 17.65625 27.058594 17.523438 27.136719 17.390625 27.21875 C 17.363281 27.234375 17.335938 27.25 17.304688 27.265625 C 17.253906 27.296875 17.203125 27.328125 17.148438 27.359375 C 17.101562 27.386719 17.054688 27.414062 17.007812 27.441406 C 16.9375 27.480469 16.9375 27.480469 16.871094 27.527344 C 16.808594 27.566406 16.757812 27.59375 16.679688 27.609375 C 16.574219 27.582031 16.492188 27.527344 16.398438 27.464844 C 16.34375 27.429688 16.289062 27.394531 16.234375 27.359375 C 16.207031 27.339844 16.179688 27.324219 16.148438 27.304688 C 16.019531 27.21875 15.882812 27.144531 15.746094 27.066406 C 15.667969 27.023438 15.59375 26.980469 15.515625 26.933594 C 15.503906 26.925781 15.488281 26.917969 15.472656 26.910156 C 15.296875 26.808594 15.125 26.707031 14.953125 26.605469 C 14.515625 26.351562 14.078125 26.097656 13.640625 25.847656 C 13.40625 25.710938 13.171875 25.574219 12.941406 25.4375 C 12.667969 25.28125 12.398438 25.121094 12.125 24.964844 C 11.984375 24.882812 11.84375 24.800781 11.703125 24.71875 C 11.648438 24.6875 11.59375 24.65625 11.539062 24.625 C 9.636719 23.519531 7.738281 22.417969 5.839844 21.316406 C 5.8125 21.300781 5.785156 21.285156 5.753906 21.269531 C 5.699219 21.238281 5.644531 21.203125 5.589844 21.171875 C 5.449219 21.089844 5.308594 21.007812 5.167969 20.929688 C 4.898438 20.773438 4.628906 20.613281 4.359375 20.457031 C 4.136719 20.324219 3.910156 20.195312 3.6875 20.066406 C 3.4375 19.921875 3.1875 19.777344 2.9375 19.632812 C 2.667969 19.472656 2.394531 19.316406 2.121094 19.15625 C 1.976562 19.074219 1.835938 18.988281 1.691406 18.90625 C 1.648438 18.882812 1.648438 18.882812 1.605469 18.859375 C 1.363281 18.714844 1.121094 18.574219 0.875 18.433594 C 0.910156 18.335938 0.9375 18.328125 1.023438 18.28125 C 1.050781 18.265625 1.074219 18.253906 1.101562 18.238281 C 1.144531 18.214844 1.144531 18.214844 1.1875 18.191406 C 1.246094 18.160156 1.304688 18.125 1.367188 18.09375 C 1.390625 18.082031 1.390625 18.082031 1.410156 18.066406 C 1.558594 17.984375 1.707031 17.902344 1.851562 17.8125 C 2.074219 17.683594 2.296875 17.554688 2.519531 17.425781 C 2.535156 17.417969 2.550781 17.410156 2.566406 17.398438 C 2.6875 17.328125 2.8125 17.257812 2.933594 17.1875 C 3.039062 17.128906 3.148438 17.066406 3.253906 17.003906 C 3.269531 16.996094 3.285156 16.988281 3.300781 16.976562 C 3.507812 16.859375 3.714844 16.738281 3.921875 16.617188 C 4.164062 16.476562 4.402344 16.339844 4.644531 16.203125 C 4.808594 16.109375 4.972656 16.015625 5.136719 15.917969 C 5.308594 15.816406 5.484375 15.714844 5.65625 15.617188 C 5.894531 15.480469 6.132812 15.34375 6.367188 15.207031 C 6.613281 15.0625 6.863281 14.917969 7.109375 14.777344 C 7.328125 14.652344 7.542969 14.527344 7.761719 14.402344 C 8.007812 14.257812 8.253906 14.117188 8.5 13.972656 C 8.71875 13.847656 8.9375 13.722656 9.152344 13.597656 C 9.398438 13.453125 9.648438 13.3125 9.894531 13.171875 C 10.109375 13.046875 10.328125 12.921875 10.542969 12.792969 C 10.792969 12.652344 11.039062 12.507812 11.285156 12.367188 C 11.503906 12.242188 11.71875 12.117188 11.9375 11.992188 C 12.183594 11.847656 12.429688 11.703125 12.679688 11.5625 C 12.894531 11.4375 13.113281 11.3125 13.328125 11.1875 C 13.5625 11.050781 13.792969 10.917969 14.023438 10.785156 C 14.265625 10.648438 14.507812 10.507812 14.746094 10.367188 C 14.773438 10.351562 14.800781 10.339844 14.828125 10.320312 C 14.933594 10.261719 15.039062 10.199219 15.144531 10.136719 C 15.171875 10.121094 15.199219 10.105469 15.230469 10.085938 C 15.253906 10.070312 15.28125 10.054688 15.304688 10.039062 C 15.367188 10.007812 15.367188 10.007812 15.390625 10.007812 Z M 15.390625 10.007812 "/>
<path style=" stroke:none;fill-rule:nonzero;fill:rgb(0%,0%,0%);fill-opacity:1;" d="M 32.457031 18.433594 C 32.457031 23.984375 32.457031 29.539062 32.457031 35.257812 C 32.328125 35.214844 32.226562 35.167969 32.113281 35.097656 C 32.074219 35.074219 32.035156 35.050781 31.996094 35.027344 C 31.976562 35.015625 31.953125 35 31.933594 34.988281 C 31.8125 34.917969 31.691406 34.84375 31.570312 34.773438 C 31.542969 34.757812 31.519531 34.746094 31.492188 34.726562 C 31.269531 34.597656 31.050781 34.46875 30.828125 34.339844 C 30.613281 34.21875 30.402344 34.09375 30.191406 33.96875 C 30 33.859375 29.8125 33.75 29.621094 33.640625 C 29.277344 33.441406 28.933594 33.238281 28.59375 33.035156 C 28.269531 32.847656 27.949219 32.660156 27.625 32.472656 C 27.574219 32.441406 27.523438 32.414062 27.472656 32.382812 C 27.40625 32.34375 27.339844 32.3125 27.269531 32.285156 C 27.125 32.226562 26.980469 32.160156 26.917969 32.007812 C 26.875 31.820312 26.886719 31.628906 26.890625 31.433594 C 26.890625 31.371094 26.890625 31.304688 26.890625 31.242188 C 26.890625 31.101562 26.890625 30.960938 26.894531 30.820312 C 26.894531 30.617188 26.894531 30.417969 26.894531 30.214844 C 26.894531 29.886719 26.898438 29.558594 26.902344 29.226562 C 26.90625 28.910156 26.90625 28.589844 26.910156 28.273438 C 26.910156 28.242188 26.910156 28.242188 26.910156 28.210938 C 26.910156 28 26.910156 27.785156 26.910156 27.570312 C 26.910156 27.511719 26.910156 27.457031 26.910156 27.398438 C 26.910156 27.359375 26.910156 27.324219 26.910156 27.285156 C 26.914062 27.046875 26.914062 26.808594 26.917969 26.570312 C 26.917969 26.433594 26.917969 26.296875 26.917969 26.160156 C 26.917969 26.097656 26.921875 26.035156 26.921875 25.972656 C 26.921875 25.882812 26.921875 25.796875 26.921875 25.710938 C 26.921875 25.6875 26.921875 25.660156 26.925781 25.636719 C 26.925781 25.480469 26.90625 25.339844 26.839844 25.199219 C 26.78125 25.140625 26.78125 25.140625 26.710938 25.121094 C 26.589844 25.132812 26.507812 25.167969 26.40625 25.226562 C 26.375 25.246094 26.347656 25.261719 26.320312 25.277344 C 26.289062 25.296875 26.257812 25.316406 26.226562 25.332031 C 26.195312 25.351562 26.160156 25.371094 26.128906 25.390625 C 26.0625 25.429688 25.996094 25.46875 25.929688 25.507812 C 25.8125 25.574219 25.695312 25.644531 25.578125 25.710938 C 25.492188 25.757812 25.410156 25.808594 25.328125 25.855469 C 25.160156 25.953125 24.996094 26.050781 24.828125 26.144531 C 24.769531 26.179688 24.714844 26.210938 24.660156 26.242188 C 24.324219 26.4375 24.324219 26.4375 24.242188 26.488281 C 24.183594 26.519531 24.128906 26.550781 24.074219 26.582031 C 23.933594 26.664062 23.792969 26.746094 23.652344 26.828125 C 23.382812 26.984375 23.113281 27.140625 22.84375 27.296875 C 22.605469 27.4375 22.367188 27.578125 22.125 27.714844 C 21.890625 27.851562 21.65625 27.988281 21.421875 28.125 C 21.234375 28.234375 21.046875 28.34375 20.859375 28.453125 C 20.832031 28.46875 20.804688 28.484375 20.777344 28.5 C 20.644531 28.578125 20.515625 28.652344 20.382812 28.726562 C 20.339844 28.753906 20.292969 28.78125 20.246094 28.804688 C 20.1875 28.839844 20.132812 28.871094 20.074219 28.90625 C 19.738281 29.085938 19.738281 29.085938 19.542969 29.398438 C 19.519531 29.492188 19.511719 29.574219 19.511719 29.667969 C 19.511719 29.710938 19.511719 29.710938 19.511719 29.75 C 19.511719 29.78125 19.511719 29.8125 19.511719 29.84375 C 19.511719 29.890625 19.511719 29.890625 19.511719 29.941406 C 19.511719 30.03125 19.511719 30.117188 19.511719 30.207031 C 19.511719 30.304688 19.511719 30.402344 19.511719 30.496094 C 19.511719 30.6875 19.511719 30.875 19.511719 31.0625 C 19.511719 31.214844 19.511719 31.371094 19.511719 31.523438 C 19.511719 31.957031 19.511719 32.390625 19.511719 32.824219 C 19.511719 32.859375 19.511719 32.859375 19.511719 32.898438 C 19.511719 32.933594 19.511719 32.933594 19.511719 32.96875 C 19.511719 33.347656 19.511719 33.726562 19.511719 34.109375 C 19.511719 34.5 19.511719 34.886719 19.511719 35.277344 C 19.511719 35.496094 19.511719 35.71875 19.511719 35.9375 C 19.511719 36.121094 19.511719 36.308594 19.511719 36.496094 C 19.511719 36.589844 19.511719 36.6875 19.511719 36.78125 C 19.507812 36.882812 19.511719 36.988281 19.511719 37.089844 C 19.511719 37.121094 19.511719 37.152344 19.507812 37.183594 C 19.507812 37.421875 19.507812 37.421875 19.601562 37.640625 C 19.664062 37.683594 19.699219 37.691406 19.773438 37.695312 C 19.910156 37.644531 20.035156 37.578125 20.160156 37.507812 C 20.1875 37.488281 20.1875 37.488281 20.21875 37.472656 C 20.4375 37.347656 20.65625 37.21875 20.875 37.09375 C 21.039062 36.996094 21.203125 36.898438 21.371094 36.804688 C 21.410156 36.78125 21.410156 36.78125 21.453125 36.753906 C 21.566406 36.6875 21.679688 36.625 21.792969 36.558594 C 22.089844 36.386719 22.390625 36.210938 22.6875 36.035156 C 22.984375 35.863281 23.285156 35.6875 23.582031 35.515625 C 23.75 35.417969 23.917969 35.320312 24.085938 35.222656 C 24.226562 35.140625 24.367188 35.058594 24.507812 34.980469 C 24.535156 34.960938 24.566406 34.945312 24.59375 34.929688 C 24.648438 34.898438 24.707031 34.863281 24.761719 34.832031 C 24.898438 34.753906 25.035156 34.671875 25.171875 34.585938 C 25.199219 34.570312 25.222656 34.554688 25.25 34.539062 C 25.300781 34.507812 25.347656 34.476562 25.394531 34.449219 C 25.417969 34.433594 25.441406 34.421875 25.460938 34.40625 C 25.488281 34.390625 25.488281 34.390625 25.519531 34.371094 C 25.574219 34.351562 25.574219 34.351562 25.636719 34.371094 C 25.710938 34.40625 25.78125 34.445312 25.851562 34.488281 C 25.882812 34.503906 25.910156 34.519531 25.941406 34.539062 C 25.972656 34.554688 26.003906 34.574219 26.035156 34.589844 C 26.066406 34.609375 26.097656 34.628906 26.132812 34.648438 C 26.359375 34.78125 26.585938 34.914062 26.8125 35.046875 C 27.003906 35.15625 27.191406 35.265625 27.378906 35.375 C 27.722656 35.574219 28.066406 35.777344 28.410156 35.976562 C 28.703125 36.148438 28.996094 36.320312 29.289062 36.492188 C 29.578125 36.660156 29.871094 36.832031 30.164062 37.003906 C 30.246094 37.050781 30.328125 37.097656 30.410156 37.144531 C 30.4375 37.164062 30.464844 37.179688 30.492188 37.195312 C 30.542969 37.226562 30.597656 37.257812 30.648438 37.285156 C 30.695312 37.316406 30.742188 37.34375 30.789062 37.371094 C 30.839844 37.398438 30.886719 37.425781 30.933594 37.453125 C 30.957031 37.46875 30.984375 37.480469 31.007812 37.496094 C 31.027344 37.507812 31.050781 37.519531 31.070312 37.535156 C 31.085938 37.542969 31.101562 37.554688 31.117188 37.566406 C 31.117188 37.582031 31.117188 37.601562 31.117188 37.617188 C 31.101562 37.628906 31.082031 37.636719 31.066406 37.648438 C 30.632812 37.890625 30.632812 37.890625 30.203125 38.140625 C 30.042969 38.238281 29.878906 38.332031 29.714844 38.425781 C 29.6875 38.445312 29.65625 38.460938 29.628906 38.476562 C 29.570312 38.511719 29.511719 38.546875 29.453125 38.578125 C 29.3125 38.660156 29.171875 38.742188 29.03125 38.824219 C 28.972656 38.855469 28.917969 38.890625 28.863281 38.921875 C 28.820312 38.945312 28.820312 38.945312 28.777344 38.96875 C 26.011719 40.574219 23.25 42.179688 18.472656 44.949219 C 18.445312 44.964844 18.417969 44.980469 18.386719 44.996094 C 18.332031 45.03125 18.277344 45.0625 18.222656 45.09375 C 18.078125 45.175781 17.9375 45.257812 17.796875 45.339844 C 17.632812 45.4375 17.464844 45.535156 17.300781 45.628906 C 17.273438 45.644531 17.246094 45.660156 17.21875 45.675781 C 17.140625 45.722656 17.066406 45.765625 16.988281 45.808594 C 16.964844 45.824219 16.941406 45.835938 16.917969 45.851562 C 16.898438 45.863281 16.875 45.875 16.855469 45.886719 C 16.835938 45.898438 16.820312 45.90625 16.800781 45.917969 C 16.757812 45.941406 16.757812 45.941406 16.730469 45.941406 C 16.722656 39.882812 16.714844 33.824219 16.707031 27.585938 C 16.859375 27.5 17.011719 27.414062 17.171875 27.324219 C 17.328125 27.230469 17.328125 27.230469 17.488281 27.136719 C 17.875 26.910156 18.261719 26.683594 18.648438 26.460938 C 18.835938 26.351562 19.019531 26.242188 19.207031 26.132812 C 19.449219 25.992188 19.691406 25.847656 19.9375 25.707031 C 20.125 25.601562 20.308594 25.492188 20.496094 25.382812 C 20.851562 25.171875 21.207031 24.96875 21.5625 24.761719 C 21.988281 24.515625 22.417969 24.265625 22.84375 24.011719 C 23.136719 23.839844 23.425781 23.671875 23.71875 23.503906 C 23.996094 23.34375 24.269531 23.183594 24.542969 23.023438 C 25 22.753906 25.457031 22.488281 25.917969 22.222656 C 26.347656 21.972656 26.773438 21.722656 27.199219 21.472656 C 27.492188 21.300781 27.785156 21.128906 28.078125 20.960938 C 28.351562 20.804688 28.625 20.640625 28.902344 20.480469 C 29.246094 20.277344 29.59375 20.074219 29.941406 19.875 C 30.125 19.765625 30.3125 19.65625 30.5 19.546875 C 30.714844 19.421875 30.929688 19.296875 31.144531 19.171875 C 31.414062 19.015625 31.683594 18.855469 31.957031 18.699219 C 31.988281 18.679688 31.988281 18.679688 32.023438 18.65625 C 32.078125 18.625 32.128906 18.59375 32.183594 18.5625 C 32.222656 18.539062 32.222656 18.539062 32.265625 18.511719 C 32.292969 18.5 32.316406 18.484375 32.34375 18.46875 C 32.40625 18.433594 32.40625 18.433594 32.457031 18.433594 Z M 32.457031 18.433594 "/>
<path style=" stroke:none;fill-rule:nonzero;fill:rgb(0%,0%,0%);fill-opacity:1;" d="M 40.863281 19.367188 C 42.277344 19.367188 43.6875 19.367188 45.144531 19.367188 C 45.144531 19.851562 45.144531 19.851562 45.144531 20.347656 C 45.144531 21.382812 45.148438 22.417969 45.148438 23.453125 C 45.148438 23.613281 45.148438 23.777344 45.148438 23.9375 C 45.148438 23.984375 45.148438 23.984375 45.148438 24.035156 C 45.152344 24.550781 45.152344 25.070312 45.152344 25.589844 C 45.152344 26.121094 45.152344 26.652344 45.15625 27.183594 C 45.15625 27.511719 45.15625 27.839844 45.15625 28.167969 C 45.15625 28.394531 45.15625 28.621094 45.15625 28.84375 C 45.15625 28.976562 45.15625 29.105469 45.15625 29.234375 C 45.15625 29.355469 45.15625 29.472656 45.160156 29.59375 C 45.160156 29.636719 45.160156 29.679688 45.160156 29.71875 C 45.15625 30.425781 45.296875 31.171875 45.789062 31.707031 C 45.804688 31.726562 45.820312 31.746094 45.839844 31.765625 C 46.359375 32.328125 47.160156 32.507812 47.890625 32.539062 C 48.738281 32.570312 49.546875 32.40625 50.1875 31.824219 C 50.699219 31.332031 50.957031 30.613281 50.976562 29.90625 C 50.980469 29.808594 50.980469 29.710938 50.980469 29.613281 C 50.980469 29.566406 50.980469 29.523438 50.980469 29.480469 C 50.980469 29.359375 50.980469 29.238281 50.980469 29.117188 C 50.980469 28.988281 50.980469 28.855469 50.980469 28.726562 C 50.980469 28.5 50.980469 28.273438 50.980469 28.046875 C 50.980469 27.71875 50.980469 27.394531 50.984375 27.066406 C 50.984375 26.535156 50.984375 26.007812 50.984375 25.476562 C 50.984375 24.960938 50.984375 24.445312 50.988281 23.933594 C 50.988281 23.886719 50.988281 23.886719 50.988281 23.835938 C 50.988281 23.488281 50.988281 23.144531 50.988281 22.796875 C 50.988281 22.765625 50.988281 22.734375 50.988281 22.703125 C 50.988281 22.582031 50.988281 22.460938 50.988281 22.339844 C 50.988281 21.984375 50.988281 21.628906 50.992188 21.269531 C 50.992188 21.046875 50.992188 20.824219 50.992188 20.601562 C 50.992188 20.472656 50.992188 20.34375 50.992188 20.214844 C 50.992188 20.097656 50.992188 19.980469 50.992188 19.863281 C 50.992188 19.820312 50.992188 19.777344 50.992188 19.734375 C 50.992188 19.675781 50.992188 19.617188 50.992188 19.5625 C 50.992188 19.527344 50.992188 19.496094 50.992188 19.464844 C 50.996094 19.394531 50.996094 19.394531 51.019531 19.367188 C 51.074219 19.363281 51.128906 19.363281 51.1875 19.363281 C 51.203125 19.363281 51.21875 19.363281 51.238281 19.363281 C 51.296875 19.363281 51.355469 19.363281 51.414062 19.363281 C 51.457031 19.363281 51.5 19.363281 51.539062 19.363281 C 51.65625 19.363281 51.769531 19.363281 51.882812 19.363281 C 52 19.363281 52.121094 19.363281 52.238281 19.363281 C 52.464844 19.363281 52.691406 19.363281 52.917969 19.363281 C 53.175781 19.363281 53.429688 19.363281 53.6875 19.367188 C 54.21875 19.367188 54.746094 19.367188 55.273438 19.367188 C 55.277344 20.714844 55.277344 22.058594 55.277344 23.40625 C 55.277344 23.566406 55.277344 23.726562 55.277344 23.886719 C 55.277344 23.933594 55.277344 23.933594 55.277344 23.980469 C 55.277344 24.492188 55.277344 25.003906 55.277344 25.519531 C 55.28125 26.042969 55.28125 26.570312 55.28125 27.097656 C 55.28125 27.421875 55.28125 27.746094 55.28125 28.070312 C 55.28125 28.292969 55.28125 28.515625 55.28125 28.738281 C 55.28125 28.867188 55.28125 28.996094 55.28125 29.125 C 55.285156 30.359375 55.285156 30.359375 55.175781 30.960938 C 55.171875 31 55.171875 31 55.164062 31.039062 C 55.058594 31.625 54.886719 32.183594 54.628906 32.71875 C 54.617188 32.746094 54.617188 32.746094 54.605469 32.773438 C 54.460938 33.070312 54.285156 33.335938 54.089844 33.601562 C 54.0625 33.636719 54.0625 33.636719 54.035156 33.671875 C 53.753906 34.039062 53.410156 34.375 53.03125 34.636719 C 53.003906 34.65625 52.976562 34.675781 52.949219 34.699219 C 51.820312 35.507812 50.378906 35.851562 49.011719 35.933594 C 48.988281 35.933594 48.96875 35.9375 48.945312 35.9375 C 46.8125 36.074219 44.410156 35.855469 42.734375 34.378906 C 42.660156 34.3125 42.585938 34.242188 42.511719 34.171875 C 42.484375 34.140625 42.484375 34.140625 42.453125 34.113281 C 42.28125 33.949219 42.140625 33.765625 41.996094 33.574219 C 41.980469 33.554688 41.964844 33.535156 41.949219 33.511719 C 41.675781 33.136719 41.464844 32.714844 41.300781 32.277344 C 41.292969 32.25 41.292969 32.25 41.28125 32.222656 C 40.960938 31.355469 40.859375 30.433594 40.859375 29.519531 C 40.859375 29.472656 40.859375 29.429688 40.859375 29.386719 C 40.859375 29.265625 40.859375 29.144531 40.859375 29.027344 C 40.859375 28.894531 40.859375 28.765625 40.859375 28.636719 C 40.859375 28.410156 40.859375 28.1875 40.859375 27.960938 C 40.859375 27.636719 40.859375 27.3125 40.859375 26.988281 C 40.859375 26.460938 40.859375 25.933594 40.863281 25.410156 C 40.863281 24.898438 40.863281 24.386719 40.863281 23.875 C 40.863281 23.84375 40.863281 23.8125 40.863281 23.777344 C 40.863281 23.621094 40.863281 23.460938 40.863281 23.304688 C 40.863281 21.992188 40.863281 20.679688 40.863281 19.367188 Z M 40.863281 19.367188 "/>
<path style=" stroke:none;fill-rule:nonzero;fill:rgb(0%,0%,0%);fill-opacity:1;" d="M 67.652344 23.917969 C 67.957031 24.191406 68.207031 24.488281 68.421875 24.835938 C 68.449219 24.878906 68.449219 24.878906 68.476562 24.925781 C 69.085938 25.9375 69.15625 27.128906 69.152344 28.28125 C 69.152344 28.378906 69.152344 28.480469 69.152344 28.582031 C 69.152344 28.753906 69.152344 28.925781 69.152344 29.101562 C 69.148438 29.351562 69.148438 29.601562 69.148438 29.851562 C 69.148438 30.257812 69.148438 30.664062 69.148438 31.070312 C 69.148438 31.464844 69.148438 31.859375 69.148438 32.25 C 69.148438 32.277344 69.148438 32.300781 69.148438 32.328125 C 69.148438 32.519531 69.148438 32.710938 69.148438 32.902344 C 69.148438 33.84375 69.144531 34.785156 69.144531 35.726562 C 67.835938 35.726562 66.523438 35.726562 65.175781 35.726562 C 65.171875 35.195312 65.171875 34.667969 65.171875 34.121094 C 65.171875 33.785156 65.167969 33.449219 65.167969 33.113281 C 65.167969 32.9375 65.167969 32.761719 65.167969 32.582031 C 65.167969 32.5625 65.167969 32.539062 65.167969 32.515625 C 65.164062 32.160156 65.164062 31.804688 65.164062 31.449219 C 65.164062 31.082031 65.164062 30.714844 65.160156 30.351562 C 65.160156 30.125 65.160156 29.898438 65.160156 29.671875 C 65.160156 29.519531 65.160156 29.363281 65.15625 29.207031 C 65.15625 29.117188 65.15625 29.03125 65.15625 28.941406 C 65.15625 28.179688 65.140625 27.390625 64.589844 26.808594 C 64.234375 26.453125 63.746094 26.308594 63.253906 26.304688 C 62.71875 26.308594 62.246094 26.492188 61.847656 26.859375 C 61.839844 26.875 61.832031 26.894531 61.824219 26.910156 C 61.804688 26.910156 61.789062 26.910156 61.773438 26.910156 C 61.765625 26.925781 61.757812 26.941406 61.75 26.957031 C 61.714844 27.023438 61.671875 27.078125 61.625 27.136719 C 61.113281 27.84375 61.097656 28.664062 61.097656 29.503906 C 61.097656 29.570312 61.097656 29.640625 61.09375 29.707031 C 61.09375 29.855469 61.09375 30 61.09375 30.144531 C 61.09375 30.355469 61.09375 30.566406 61.09375 30.777344 C 61.089844 31.121094 61.089844 31.460938 61.089844 31.804688 C 61.085938 32.136719 61.085938 32.46875 61.085938 32.800781 C 61.085938 32.832031 61.085938 32.832031 61.085938 32.863281 C 61.085938 32.964844 61.085938 33.066406 61.085938 33.171875 C 61.082031 34.023438 61.078125 34.875 61.074219 35.726562 C 60.5625 35.726562 60.046875 35.726562 59.535156 35.726562 C 59.296875 35.726562 59.058594 35.726562 58.820312 35.726562 C 58.609375 35.726562 58.402344 35.726562 58.195312 35.726562 C 58.085938 35.726562 57.976562 35.726562 57.863281 35.730469 C 57.761719 35.730469 57.65625 35.730469 57.554688 35.730469 C 57.515625 35.730469 57.476562 35.730469 57.441406 35.730469 C 57.386719 35.730469 57.335938 35.730469 57.285156 35.730469 C 57.253906 35.730469 57.226562 35.730469 57.195312 35.730469 C 57.132812 35.726562 57.132812 35.726562 57.105469 35.699219 C 57.101562 35.632812 57.101562 35.570312 57.101562 35.503906 C 57.101562 35.480469 57.101562 35.460938 57.101562 35.4375 C 57.101562 35.367188 57.101562 35.296875 57.101562 35.226562 C 57.101562 35.175781 57.101562 35.121094 57.101562 35.070312 C 57.101562 34.929688 57.101562 34.789062 57.101562 34.648438 C 57.101562 34.496094 57.101562 34.34375 57.101562 34.191406 C 57.101562 33.925781 57.101562 33.660156 57.101562 33.398438 C 57.101562 33.121094 57.101562 32.84375 57.101562 32.566406 C 57.101562 32.546875 57.101562 32.53125 57.101562 32.511719 C 57.101562 32.425781 57.101562 32.339844 57.101562 32.25 C 57.101562 31.632812 57.101562 31.011719 57.105469 30.390625 C 57.105469 29.789062 57.105469 29.1875 57.105469 28.585938 C 57.105469 28.566406 57.105469 28.546875 57.105469 28.53125 C 57.105469 28.34375 57.105469 28.15625 57.105469 27.972656 C 57.105469 27.589844 57.105469 27.210938 57.105469 26.832031 C 57.105469 26.816406 57.105469 26.796875 57.105469 26.78125 C 57.105469 25.613281 57.105469 24.449219 57.105469 23.28125 C 58.398438 23.28125 59.691406 23.28125 61.023438 23.28125 C 61.023438 23.847656 61.023438 24.410156 61.023438 24.992188 C 61.117188 24.898438 61.1875 24.820312 61.261719 24.714844 C 61.355469 24.585938 61.457031 24.464844 61.566406 24.347656 C 61.605469 24.304688 61.644531 24.257812 61.683594 24.210938 C 62.351562 23.4375 63.417969 23.058594 64.402344 22.976562 C 65.578125 22.902344 66.738281 23.132812 67.652344 23.917969 Z M 67.652344 23.917969 "/>
<path style=" stroke:none;fill-rule:nonzero;fill:rgb(0%,0%,0%);fill-opacity:1;" d="M 85.390625 23.328125 C 85.40625 23.328125 85.421875 23.328125 85.441406 23.328125 C 85.496094 23.328125 85.550781 23.328125 85.609375 23.328125 C 85.648438 23.328125 85.6875 23.328125 85.726562 23.328125 C 85.859375 23.328125 85.992188 23.328125 86.125 23.328125 C 86.167969 23.324219 86.214844 23.324219 86.257812 23.324219 C 86.449219 23.324219 86.636719 23.324219 86.824219 23.324219 C 87.09375 23.324219 87.363281 23.324219 87.636719 23.320312 C 87.824219 23.320312 88.015625 23.320312 88.203125 23.320312 C 88.316406 23.320312 88.429688 23.320312 88.542969 23.320312 C 88.652344 23.316406 88.757812 23.316406 88.863281 23.316406 C 88.902344 23.316406 88.941406 23.316406 88.980469 23.316406 C 89.035156 23.316406 89.089844 23.316406 89.140625 23.316406 C 89.1875 23.316406 89.1875 23.316406 89.234375 23.316406 C 89.304688 23.332031 89.304688 23.332031 89.351562 23.394531 C 89.386719 23.46875 89.410156 23.539062 89.433594 23.617188 C 89.445312 23.644531 89.453125 23.675781 89.464844 23.707031 C 89.476562 23.742188 89.484375 23.773438 89.496094 23.808594 C 89.507812 23.84375 89.515625 23.878906 89.527344 23.914062 C 89.550781 23.992188 89.574219 24.066406 89.597656 24.144531 C 89.636719 24.265625 89.675781 24.390625 89.714844 24.511719 C 89.757812 24.660156 89.804688 24.808594 89.851562 24.957031 C 89.960938 25.3125 90.074219 25.667969 90.183594 26.023438 C 90.222656 26.152344 90.265625 26.285156 90.304688 26.414062 C 90.414062 26.757812 90.519531 27.097656 90.628906 27.441406 C 91.042969 28.757812 91.402344 30.082031 91.730469 31.421875 C 91.78125 31.34375 91.796875 31.289062 91.820312 31.199219 C 91.828125 31.167969 91.835938 31.136719 91.84375 31.105469 C 91.851562 31.074219 91.859375 31.039062 91.867188 31.003906 C 91.875 30.972656 91.882812 30.9375 91.894531 30.902344 C 91.910156 30.828125 91.929688 30.753906 91.945312 30.679688 C 91.992188 30.488281 92.042969 30.296875 92.089844 30.105469 C 92.09375 30.085938 92.097656 30.066406 92.101562 30.046875 C 92.339844 29.09375 92.640625 28.15625 92.9375 27.21875 C 93.011719 26.984375 93.085938 26.746094 93.160156 26.507812 C 93.179688 26.449219 93.195312 26.390625 93.214844 26.332031 C 93.222656 26.300781 93.222656 26.300781 93.234375 26.273438 C 93.269531 26.152344 93.308594 26.035156 93.34375 25.917969 C 93.472656 25.515625 93.597656 25.113281 93.722656 24.707031 C 93.742188 24.644531 93.761719 24.585938 93.78125 24.523438 C 93.785156 24.503906 93.792969 24.480469 93.800781 24.460938 C 93.8125 24.421875 93.824219 24.382812 93.835938 24.34375 C 93.871094 24.226562 93.90625 24.109375 93.945312 23.996094 C 93.964844 23.921875 93.988281 23.851562 94.007812 23.78125 C 94.023438 23.734375 94.039062 23.683594 94.054688 23.636719 C 94.0625 23.609375 94.070312 23.578125 94.082031 23.550781 C 94.09375 23.511719 94.09375 23.511719 94.105469 23.472656 C 94.128906 23.410156 94.128906 23.410156 94.179688 23.332031 C 94.246094 23.324219 94.246094 23.324219 94.335938 23.324219 C 94.367188 23.324219 94.402344 23.324219 94.4375 23.324219 C 94.472656 23.324219 94.511719 23.324219 94.546875 23.324219 C 94.585938 23.324219 94.625 23.324219 94.664062 23.324219 C 94.769531 23.324219 94.875 23.324219 94.980469 23.324219 C 95.089844 23.324219 95.203125 23.324219 95.3125 23.324219 C 95.519531 23.328125 95.730469 23.328125 95.9375 23.328125 C 96.175781 23.328125 96.414062 23.328125 96.652344 23.328125 C 97.144531 23.332031 97.632812 23.332031 98.125 23.332031 C 98.097656 23.457031 98.070312 23.582031 98.03125 23.703125 C 98.015625 23.738281 98.015625 23.738281 98.003906 23.773438 C 97.996094 23.800781 97.988281 23.824219 97.980469 23.851562 C 97.964844 23.890625 97.964844 23.890625 97.949219 23.933594 C 97.921875 24.023438 97.890625 24.109375 97.859375 24.199219 C 97.839844 24.261719 97.816406 24.324219 97.796875 24.386719 C 97.667969 24.765625 97.539062 25.140625 97.40625 25.519531 C 97.214844 26.0625 97.035156 26.613281 96.851562 27.164062 C 96.671875 27.691406 96.496094 28.21875 96.3125 28.746094 C 96.132812 29.257812 95.960938 29.769531 95.789062 30.28125 C 95.417969 31.398438 95.417969 31.398438 95.226562 31.941406 C 95.050781 32.4375 94.886719 32.933594 94.71875 33.429688 C 94.523438 34.015625 94.328125 34.601562 94.125 35.183594 C 94.109375 35.226562 94.09375 35.265625 94.082031 35.308594 C 94.074219 35.328125 94.066406 35.347656 94.058594 35.367188 C 94.011719 35.507812 93.964844 35.648438 93.917969 35.789062 C 93.460938 37.15625 92.847656 38.667969 91.484375 39.351562 C 91.175781 39.5 90.855469 39.605469 90.519531 39.671875 C 90.492188 39.679688 90.492188 39.679688 90.464844 39.683594 C 89.988281 39.777344 89.511719 39.777344 89.027344 39.777344 C 88.960938 39.773438 88.894531 39.773438 88.828125 39.773438 C 88.667969 39.773438 88.511719 39.773438 88.351562 39.773438 C 88.171875 39.773438 87.992188 39.773438 87.8125 39.773438 C 87.441406 39.773438 87.070312 39.773438 86.703125 39.769531 C 86.6875 39.382812 86.671875 38.992188 86.664062 38.605469 C 86.660156 38.558594 86.660156 38.511719 86.660156 38.46875 C 86.65625 38.371094 86.65625 38.277344 86.652344 38.183594 C 86.648438 38.0625 86.648438 37.941406 86.644531 37.820312 C 86.640625 37.726562 86.640625 37.632812 86.636719 37.535156 C 86.636719 37.492188 86.636719 37.449219 86.632812 37.402344 C 86.628906 37.164062 86.625 36.925781 86.625 36.683594 C 86.644531 36.683594 86.664062 36.683594 86.683594 36.683594 C 86.859375 36.683594 87.039062 36.679688 87.21875 36.675781 C 87.3125 36.675781 87.402344 36.675781 87.496094 36.675781 C 88.460938 36.683594 88.460938 36.683594 89.300781 36.261719 C 89.554688 35.960938 89.613281 35.621094 89.589844 35.234375 C 89.519531 34.457031 89.1875 33.695312 88.902344 32.984375 C 88.761719 32.636719 88.628906 32.292969 88.496094 31.945312 C 88.484375 31.914062 88.472656 31.882812 88.460938 31.851562 C 88.410156 31.71875 88.359375 31.589844 88.3125 31.457031 C 88.191406 31.144531 88.070312 30.828125 87.949219 30.515625 C 87.890625 30.363281 87.832031 30.207031 87.773438 30.054688 C 87.75 29.992188 87.726562 29.929688 87.703125 29.871094 C 86.425781 26.542969 86.425781 26.542969 86.390625 26.453125 C 86.367188 26.390625 86.34375 26.328125 86.320312 26.269531 C 86.261719 26.113281 86.203125 25.960938 86.140625 25.808594 C 86.03125 25.519531 85.921875 25.234375 85.8125 24.949219 C 85.765625 24.828125 85.722656 24.710938 85.675781 24.59375 C 85.644531 24.511719 85.613281 24.433594 85.582031 24.351562 C 85.457031 24.023438 85.328125 23.691406 85.207031 23.359375 C 85.253906 23.3125 85.328125 23.328125 85.390625 23.328125 Z M 85.390625 23.328125 "/>
<path style=" stroke:none;fill-rule:nonzero;fill:rgb(0%,0%,0%);fill-opacity:1;" d="M 78.144531 19.367188 C 79.402344 19.367188 80.660156 19.367188 81.957031 19.367188 C 81.957031 20.660156 81.957031 21.949219 81.957031 23.28125 C 82.699219 23.28125 83.4375 23.28125 84.203125 23.28125 C 84.203125 24.082031 84.203125 24.082031 84.203125 24.480469 C 84.203125 24.691406 84.203125 24.90625 84.203125 25.121094 C 84.203125 25.289062 84.203125 25.460938 84.203125 25.628906 C 84.203125 25.71875 84.203125 25.808594 84.203125 25.898438 C 84.203125 26 84.203125 26.097656 84.203125 26.199219 C 84.203125 26.226562 84.203125 26.257812 84.203125 26.289062 C 84.203125 26.316406 84.203125 26.34375 84.203125 26.371094 C 84.203125 26.40625 84.203125 26.40625 84.203125 26.441406 C 84.203125 26.496094 84.203125 26.496094 84.175781 26.523438 C 84.105469 26.523438 84.039062 26.527344 83.96875 26.523438 C 83.949219 26.523438 83.925781 26.523438 83.902344 26.523438 C 83.832031 26.523438 83.761719 26.523438 83.6875 26.523438 C 83.636719 26.523438 83.589844 26.523438 83.539062 26.523438 C 83.410156 26.523438 83.277344 26.523438 83.144531 26.523438 C 83.011719 26.523438 82.878906 26.523438 82.746094 26.523438 C 82.484375 26.523438 82.222656 26.523438 81.957031 26.523438 C 81.960938 27.210938 81.960938 27.902344 81.964844 28.59375 C 81.964844 28.914062 81.96875 29.234375 81.96875 29.554688 C 81.96875 29.835938 81.96875 30.113281 81.96875 30.394531 C 81.972656 30.542969 81.972656 30.691406 81.972656 30.839844 C 81.972656 30.976562 81.972656 31.117188 81.972656 31.257812 C 81.972656 31.308594 81.972656 31.359375 81.972656 31.410156 C 81.972656 31.800781 81.972656 32.207031 82.261719 32.507812 C 82.5 32.707031 82.820312 32.746094 83.121094 32.757812 C 83.160156 32.761719 83.160156 32.761719 83.199219 32.761719 C 83.441406 32.773438 83.683594 32.773438 83.929688 32.769531 C 83.96875 32.769531 83.96875 32.769531 84.011719 32.769531 C 84.039062 32.769531 84.0625 32.769531 84.089844 32.769531 C 84.148438 32.769531 84.148438 32.769531 84.203125 32.796875 C 84.203125 33.738281 84.203125 34.679688 84.203125 35.648438 C 83.894531 35.714844 83.597656 35.773438 83.285156 35.808594 C 83.265625 35.8125 83.246094 35.8125 83.230469 35.816406 C 82.953125 35.847656 82.675781 35.875 82.398438 35.882812 C 82.367188 35.882812 82.339844 35.882812 82.3125 35.882812 C 81.207031 35.902344 80.046875 35.816406 79.148438 35.105469 C 79.132812 35.089844 79.113281 35.078125 79.097656 35.0625 C 79.0625 35.035156 79.027344 35.003906 78.992188 34.972656 C 78.992188 34.957031 78.992188 34.941406 78.992188 34.921875 C 78.976562 34.921875 78.960938 34.921875 78.941406 34.921875 C 78.941406 34.90625 78.941406 34.886719 78.941406 34.871094 C 78.917969 34.863281 78.890625 34.851562 78.863281 34.84375 C 78.5 34.421875 78.292969 33.886719 78.195312 33.339844 C 78.191406 33.316406 78.1875 33.292969 78.179688 33.265625 C 78.132812 32.949219 78.136719 32.636719 78.136719 32.316406 C 78.136719 32.253906 78.136719 32.191406 78.136719 32.128906 C 78.136719 31.992188 78.136719 31.855469 78.136719 31.71875 C 78.136719 31.523438 78.136719 31.328125 78.136719 31.132812 C 78.136719 30.8125 78.136719 30.492188 78.140625 30.175781 C 78.140625 29.867188 78.140625 29.558594 78.140625 29.246094 C 78.140625 29.21875 78.140625 29.21875 78.140625 29.191406 C 78.140625 29.09375 78.140625 29 78.140625 28.902344 C 78.140625 28.109375 78.140625 27.316406 78.144531 26.523438 C 77.597656 26.523438 77.054688 26.523438 76.492188 26.523438 C 76.492188 25.453125 76.492188 24.382812 76.492188 23.28125 C 77.039062 23.28125 77.582031 23.28125 78.144531 23.28125 C 78.144531 21.988281 78.144531 20.699219 78.144531 19.367188 Z M 78.144531 19.367188 "/>
<path style=" stroke:none;fill-rule:nonzero;fill:rgb(0%,0%,0%);fill-opacity:1;" d="M 71.128906 23.28125 C 72.441406 23.28125 73.75 23.28125 75.101562 23.28125 C 75.101562 27.363281 75.101562 31.445312 75.101562 35.648438 C 73.789062 35.648438 72.480469 35.648438 71.128906 35.648438 C 71.128906 31.566406 71.128906 27.484375 71.128906 23.28125 Z M 71.128906 23.28125 "/>
<path style=" stroke:none;fill-rule:nonzero;fill:rgb(0%,0%,0%);fill-opacity:1;" d="M 71.128906 18.40625 C 72.441406 18.40625 73.75 18.40625 75.101562 18.40625 C 75.101562 19.476562 75.101562 20.546875 75.101562 21.648438 C 73.789062 21.648438 72.480469 21.648438 71.128906 21.648438 C 71.128906 20.578125 71.128906 19.507812 71.128906 18.40625 Z M 71.128906 18.40625 "/>
<path style=" stroke:none;fill-rule:nonzero;fill:rgb(29.019609%,29.019609%,29.019609%);fill-opacity:1;" d="M 30.34375 17.136719 C 30.546875 17.238281 30.746094 17.34375 30.941406 17.460938 C 30.996094 17.492188 31.050781 17.523438 31.101562 17.554688 C 31.144531 17.582031 31.144531 17.582031 31.1875 17.605469 C 31.328125 17.6875 31.46875 17.769531 31.609375 17.851562 C 31.832031 17.980469 32.050781 18.105469 32.265625 18.234375 C 32.292969 18.25 32.316406 18.265625 32.339844 18.277344 C 32.375 18.296875 32.375 18.296875 32.40625 18.320312 C 32.425781 18.332031 32.445312 18.34375 32.464844 18.355469 C 32.511719 18.382812 32.511719 18.382812 32.535156 18.40625 C 32.539062 18.445312 32.539062 18.480469 32.539062 18.519531 C 32.539062 18.542969 32.539062 18.566406 32.539062 18.589844 C 32.539062 18.617188 32.539062 18.644531 32.539062 18.671875 C 32.539062 18.703125 32.539062 18.730469 32.539062 18.757812 C 32.539062 18.855469 32.539062 18.953125 32.539062 19.046875 C 32.539062 19.117188 32.539062 19.1875 32.539062 19.257812 C 32.539062 19.40625 32.539062 19.558594 32.539062 19.710938 C 32.539062 19.933594 32.539062 20.160156 32.539062 20.386719 C 32.539062 20.765625 32.539062 21.144531 32.539062 21.519531 C 32.539062 21.894531 32.539062 22.273438 32.539062 22.648438 C 32.539062 22.667969 32.539062 22.691406 32.539062 22.71875 C 32.539062 22.835938 32.539062 22.953125 32.539062 23.070312 C 32.539062 23.910156 32.539062 24.75 32.539062 25.585938 C 32.539062 26.402344 32.539062 27.214844 32.539062 28.03125 C 32.539062 28.054688 32.539062 28.082031 32.539062 28.105469 C 32.539062 28.359375 32.539062 28.609375 32.539062 28.863281 C 32.539062 29.375 32.535156 29.890625 32.535156 30.402344 C 32.535156 30.4375 32.535156 30.4375 32.535156 30.476562 C 32.535156 32.050781 32.535156 33.628906 32.535156 35.207031 C 32.511719 35.191406 32.484375 35.171875 32.457031 35.15625 C 32.449219 35.105469 32.449219 35.105469 32.449219 35.042969 C 32.449219 35.015625 32.449219 34.992188 32.449219 34.96875 C 32.449219 34.941406 32.449219 34.914062 32.449219 34.886719 C 32.449219 34.859375 32.449219 34.832031 32.449219 34.800781 C 32.449219 34.703125 32.449219 34.609375 32.449219 34.511719 C 32.449219 34.441406 32.449219 34.375 32.449219 34.304688 C 32.449219 34.152344 32.449219 34.003906 32.449219 33.851562 C 32.449219 33.625 32.445312 33.402344 32.445312 33.175781 C 32.445312 32.800781 32.445312 32.421875 32.445312 32.042969 C 32.445312 31.667969 32.445312 31.292969 32.445312 30.921875 C 32.445312 30.898438 32.445312 30.875 32.445312 30.851562 C 32.445312 30.730469 32.445312 30.613281 32.445312 30.496094 C 32.441406 29.660156 32.441406 28.820312 32.441406 27.984375 C 32.441406 27.171875 32.441406 26.359375 32.441406 25.546875 C 32.441406 25.519531 32.441406 25.496094 32.441406 25.46875 C 32.4375 25.21875 32.4375 24.964844 32.4375 24.714844 C 32.4375 24.203125 32.4375 23.6875 32.4375 23.175781 C 32.4375 23.152344 32.4375 23.128906 32.4375 23.105469 C 32.433594 21.53125 32.433594 19.957031 32.433594 18.382812 C 32.402344 18.371094 32.402344 18.371094 32.371094 18.359375 C 32.296875 18.328125 32.226562 18.289062 32.15625 18.246094 C 32.125 18.230469 32.097656 18.214844 32.066406 18.195312 C 32.035156 18.179688 32.003906 18.160156 31.972656 18.140625 C 31.941406 18.121094 31.910156 18.105469 31.875 18.085938 C 31.621094 17.9375 31.371094 17.789062 31.117188 17.640625 C 31.007812 17.578125 30.898438 17.515625 30.789062 17.449219 C 30.757812 17.433594 30.730469 17.417969 30.699219 17.398438 C 30.644531 17.367188 30.589844 17.335938 30.53125 17.304688 C 30.507812 17.289062 30.484375 17.273438 30.457031 17.261719 C 30.4375 17.246094 30.414062 17.234375 30.390625 17.222656 C 30.375 17.210938 30.359375 17.199219 30.34375 17.1875 C 30.34375 17.171875 30.34375 17.15625 30.34375 17.136719 Z M 30.34375 17.136719 "/>
</g>
</svg>
