<?xml version="1.0" encoding="UTF-8"?>
<svg xmlns="http://www.w3.org/2000/svg" xmlns:xlink="http://www.w3.org/1999/xlink" width="100px" height="47px" viewBox="0 0 99 47" version="1.1">
<g id="surface1">
<path style=" stroke:none;fill-rule:nonzero;fill:rgb(99.607843%,99.607843%,99.607843%);fill-opacity:1;" d="M 0 0 C 32.671875 0 65.339844 0 99 0 C 99 15.511719 99 31.019531 99 47 C 66.328125 47 33.660156 47 0 47 C 0 31.488281 0 15.980469 0 0 Z M 0 0 "/>
<path style=" stroke:none;fill-rule:nonzero;fill:rgb(1.960784%,48.627451%,80.392158%);fill-opacity:1;" d="M 20.210938 16.726562 C 21.628906 17.011719 23.046875 17.597656 24.335938 18.246094 C 24.335938 22.625 24.335938 27.003906 24.335938 31.519531 C 22.550781 32.207031 22.550781 32.207031 22.136719 32.207031 C 22.136719 32.300781 22.136719 32.390625 22.136719 32.484375 C 21.890625 32.582031 21.640625 32.679688 21.390625 32.769531 C 21.25 32.824219 21.113281 32.875 20.96875 32.929688 C 19.976562 33.152344 19.035156 32.867188 18.09375 32.539062 C 17.9375 32.484375 17.9375 32.484375 17.777344 32.429688 C 17.445312 32.316406 17.113281 32.203125 16.785156 32.085938 C 16.347656 31.9375 15.910156 31.789062 15.472656 31.640625 C 15.371094 31.605469 15.265625 31.570312 15.160156 31.53125 C 14.507812 31.308594 13.855469 31.097656 13.195312 30.90625 C 12.800781 30.789062 12.410156 30.65625 12.019531 30.523438 C 11.777344 30.441406 11.535156 30.363281 11.292969 30.28125 C 10.402344 29.988281 9.527344 29.667969 8.664062 29.304688 C 8.664062 29.261719 8.664062 29.214844 8.664062 29.167969 C 9.800781 29.109375 10.886719 29.308594 12.003906 29.5 C 12.574219 29.597656 13.144531 29.691406 13.714844 29.785156 C 13.828125 29.804688 13.9375 29.824219 14.054688 29.84375 C 15 30 15.949219 30.144531 16.902344 30.269531 C 18.011719 30.421875 19.101562 30.628906 20.210938 30.828125 C 20.210938 26.171875 20.210938 21.519531 20.210938 16.726562 Z M 20.210938 16.726562 "/>
<path style=" stroke:none;fill-rule:nonzero;fill:rgb(2.745098%,49.019608%,80.392158%);fill-opacity:1;" d="M 78.925781 18.800781 C 79.378906 18.800781 79.832031 18.800781 80.300781 18.800781 C 80.300781 22.539062 80.300781 26.28125 80.300781 30.136719 C 79.847656 30.136719 79.390625 30.136719 78.925781 30.136719 C 78.878906 29.863281 78.835938 29.585938 78.789062 29.304688 C 78.730469 29.363281 78.671875 29.417969 78.609375 29.476562 C 77.773438 30.253906 76.964844 30.492188 75.828125 30.464844 C 74.9375 30.328125 74.28125 29.703125 73.734375 29.015625 C 72.90625 27.753906 72.824219 26.0625 73.085938 24.617188 C 73.429688 23.378906 74.105469 22.480469 75.203125 21.820312 C 76.035156 21.476562 76.984375 21.691406 77.808594 21.960938 C 78.101562 22.117188 78.101562 22.117188 78.789062 22.808594 C 78.832031 21.484375 78.878906 20.164062 78.925781 18.800781 Z M 78.925781 18.800781 "/>
<path style=" stroke:none;fill-rule:nonzero;fill:rgb(2.352941%,49.019608%,80.392158%);fill-opacity:1;" d="M 69.695312 22.179688 C 70.601562 22.847656 71.1875 23.757812 71.363281 24.882812 C 71.484375 26.566406 71.449219 27.980469 70.375 29.359375 C 69.578125 30.191406 68.796875 30.441406 67.660156 30.488281 C 66.527344 30.453125 65.65625 30.113281 64.847656 29.304688 C 63.929688 28.089844 63.792969 26.492188 63.9375 25.019531 C 64.171875 23.765625 64.683594 22.878906 65.726562 22.117188 C 66.929688 21.386719 68.496094 21.476562 69.695312 22.179688 Z M 69.695312 22.179688 "/>
<path style=" stroke:none;fill-rule:nonzero;fill:rgb(2.352941%,49.019608%,80.392158%);fill-opacity:1;" d="M 16.335938 19.136719 C 16.957031 19.347656 17.558594 19.621094 18.148438 19.90625 C 18.167969 20.960938 18.179688 22.015625 18.1875 23.074219 C 18.191406 23.429688 18.195312 23.789062 18.203125 24.148438 C 18.210938 24.664062 18.214844 25.179688 18.21875 25.695312 C 18.21875 25.859375 18.222656 26.019531 18.226562 26.183594 C 18.226562 26.335938 18.226562 26.484375 18.226562 26.636719 C 18.230469 26.769531 18.230469 26.902344 18.234375 27.039062 C 18.148438 27.371094 18.148438 27.371094 17.820312 27.613281 C 17.496094 27.769531 17.183594 27.910156 16.84375 28.027344 C 16.742188 28.0625 16.640625 28.101562 16.539062 28.136719 C 16.140625 28.21875 15.929688 28.1875 15.539062 28.0625 C 15.253906 27.824219 15.003906 27.589844 14.75 27.324219 C 14.675781 27.25 14.605469 27.175781 14.53125 27.101562 C 14.300781 26.867188 14.070312 26.628906 13.84375 26.394531 C 13.6875 26.234375 13.53125 26.074219 13.378906 25.917969 C 12.996094 25.527344 12.617188 25.136719 12.238281 24.742188 C 11.488281 25.023438 11.019531 25.472656 10.4375 26.015625 C 10.039062 26.265625 10.039062 26.265625 9.507812 26.234375 C 9.292969 26.179688 9.292969 26.179688 9.074219 26.125 C 9.074219 25.710938 9.074219 25.710938 9.242188 25.507812 C 9.316406 25.4375 9.394531 25.371094 9.472656 25.296875 C 9.550781 25.21875 9.632812 25.144531 9.71875 25.0625 C 9.890625 24.902344 10.066406 24.742188 10.238281 24.582031 C 10.320312 24.503906 10.402344 24.425781 10.484375 24.347656 C 10.558594 24.277344 10.636719 24.207031 10.714844 24.136719 C 10.890625 23.921875 10.890625 23.921875 10.84375 23.636719 C 10.710938 23.324219 10.566406 23.160156 10.320312 22.925781 C 10.242188 22.847656 10.160156 22.769531 10.078125 22.6875 C 9.953125 22.566406 9.953125 22.566406 9.824219 22.445312 C 9.65625 22.285156 9.488281 22.125 9.324219 21.964844 C 9.25 21.894531 9.175781 21.824219 9.097656 21.753906 C 8.9375 21.566406 8.9375 21.566406 8.9375 21.289062 C 9.878906 21.074219 9.878906 21.074219 10.285156 21.269531 C 10.519531 21.449219 10.738281 21.640625 10.957031 21.839844 C 11.476562 22.355469 11.476562 22.355469 12.148438 22.527344 C 12.640625 22.347656 12.921875 22.027344 13.261719 21.644531 C 13.40625 21.492188 13.550781 21.339844 13.691406 21.1875 C 13.914062 20.949219 14.136719 20.707031 14.355469 20.464844 C 14.570312 20.230469 14.789062 20 15.007812 19.769531 C 15.070312 19.695312 15.136719 19.625 15.203125 19.546875 C 15.601562 19.132812 15.757812 19.070312 16.335938 19.136719 Z M 16.335938 19.136719 "/>
<path style=" stroke:none;fill-rule:nonzero;fill:rgb(1.960784%,49.019608%,80.392158%);fill-opacity:1;" d="M 88.9375 22.507812 C 90.023438 23.597656 90.0625 24.738281 90.0625 26.265625 C 88.019531 26.265625 85.980469 26.265625 83.875 26.265625 C 84.234375 27.878906 84.234375 27.878906 85.320312 28.941406 C 86.476562 29.457031 87.722656 29.179688 88.894531 28.84375 C 89.238281 28.753906 89.238281 28.753906 89.648438 28.753906 C 89.648438 29.117188 89.648438 29.484375 89.648438 29.859375 C 88.101562 30.378906 86.417969 30.796875 84.832031 30.140625 C 83.792969 29.585938 83.082031 28.902344 82.671875 27.78125 C 82.296875 26.382812 82.339844 24.910156 82.957031 23.597656 C 83.511719 22.695312 84.300781 22.035156 85.324219 21.757812 C 86.734375 21.527344 87.75 21.738281 88.9375 22.507812 Z M 88.9375 22.507812 "/>
<path style=" stroke:none;fill-rule:nonzero;fill:rgb(3.137255%,49.411765%,80.392158%);fill-opacity:1;" d="M 46.476562 19.351562 C 46.613281 19.492188 46.613281 19.492188 46.625 19.808594 C 46.625 19.933594 46.621094 20.058594 46.621094 20.191406 C 46.621094 20.316406 46.617188 20.445312 46.617188 20.574219 C 46.617188 20.675781 46.613281 20.773438 46.613281 20.875 C 46.519531 20.84375 46.425781 20.816406 46.332031 20.789062 C 46.207031 20.75 46.085938 20.714844 45.960938 20.675781 C 45.839844 20.636719 45.71875 20.601562 45.59375 20.5625 C 45.476562 20.527344 45.359375 20.496094 45.238281 20.457031 C 45.152344 20.433594 45.066406 20.40625 44.976562 20.378906 C 43.863281 20.15625 42.667969 20.203125 41.664062 20.734375 C 41.246094 21.085938 41.25 21.277344 41.199219 21.832031 C 41.226562 22.359375 41.292969 22.6875 41.664062 23.085938 C 42.207031 23.355469 42.804688 23.476562 43.390625 23.625 C 46.039062 24.300781 46.039062 24.300781 46.835938 25.261719 C 47.371094 26.171875 47.328125 27.320312 47.164062 28.339844 C 46.890625 29.144531 46.390625 29.59375 45.648438 29.996094 C 43.96875 30.820312 41.851562 30.5 40.125 29.992188 C 39.738281 29.859375 39.738281 29.859375 39.601562 29.71875 C 39.589844 29.464844 39.589844 29.207031 39.589844 28.953125 C 39.59375 28.8125 39.59375 28.671875 39.59375 28.527344 C 39.597656 28.417969 39.597656 28.3125 39.601562 28.199219 C 40.425781 28.476562 41.25 28.753906 42.074219 29.03125 C 43.113281 29.113281 44.292969 29.113281 45.238281 28.613281 C 45.601562 27.960938 45.605469 27.269531 45.511719 26.542969 C 45.222656 25.996094 44.878906 25.75 44.308594 25.527344 C 43.765625 25.363281 43.210938 25.246094 42.65625 25.121094 C 41.597656 24.878906 40.746094 24.625 40.011719 23.777344 C 39.53125 22.984375 39.484375 22.191406 39.601562 21.289062 C 39.84375 20.4375 40.367188 19.816406 41.113281 19.351562 C 42.804688 18.558594 44.730469 18.933594 46.476562 19.351562 Z M 46.476562 19.351562 "/>
<path style=" stroke:none;fill-rule:nonzero;fill:rgb(1.960784%,48.627451%,80.392158%);fill-opacity:1;" d="M 28.601562 19.214844 C 29.097656 19.214844 29.597656 19.214844 30.113281 19.214844 C 30.582031 20.324219 31.019531 21.4375 31.4375 22.566406 C 31.496094 22.722656 31.550781 22.875 31.613281 23.03125 C 31.730469 23.355469 31.847656 23.675781 31.96875 23.996094 C 32.152344 24.488281 32.332031 24.980469 32.515625 25.472656 C 32.632812 25.785156 32.75 26.101562 32.863281 26.414062 C 32.921875 26.558594 32.976562 26.707031 33.03125 26.859375 C 33.082031 26.996094 33.132812 27.132812 33.183594 27.269531 C 33.226562 27.390625 33.273438 27.511719 33.316406 27.632812 C 33.414062 27.921875 33.414062 27.921875 33.414062 28.199219 C 33.503906 28.199219 33.59375 28.199219 33.6875 28.199219 C 33.703125 28.082031 33.722656 27.960938 33.738281 27.835938 C 33.824219 27.378906 33.949219 26.980469 34.117188 26.542969 C 34.175781 26.382812 34.238281 26.222656 34.296875 26.058594 C 34.363281 25.886719 34.429688 25.714844 34.496094 25.539062 C 34.5625 25.363281 34.628906 25.183594 34.695312 25.007812 C 34.835938 24.632812 34.980469 24.261719 35.121094 23.890625 C 35.300781 23.414062 35.480469 22.933594 35.664062 22.457031 C 35.800781 22.089844 35.941406 21.722656 36.078125 21.355469 C 36.144531 21.179688 36.210938 21.003906 36.28125 20.828125 C 36.371094 20.582031 36.464844 20.335938 36.558594 20.089844 C 36.636719 19.882812 36.636719 19.882812 36.71875 19.667969 C 36.851562 19.351562 36.851562 19.351562 36.988281 19.214844 C 37.492188 19.195312 37.996094 19.207031 38.5 19.214844 C 37.9375 20.84375 37.339844 22.457031 36.710938 24.0625 C 36.550781 24.480469 36.386719 24.898438 36.222656 25.320312 C 36.183594 25.421875 36.144531 25.523438 36.101562 25.628906 C 35.792969 26.421875 35.492188 27.21875 35.199219 28.019531 C 34.933594 28.730469 34.660156 29.433594 34.375 30.136719 C 33.832031 30.136719 33.285156 30.136719 32.726562 30.136719 C 32.191406 28.867188 31.691406 27.585938 31.203125 26.300781 C 31.125 26.09375 31.050781 25.890625 30.972656 25.6875 C 30.453125 24.316406 29.9375 22.945312 29.421875 21.574219 C 29.351562 21.378906 29.277344 21.183594 29.203125 20.984375 C 29.101562 20.714844 29 20.441406 28.898438 20.167969 C 28.839844 20.015625 28.78125 19.859375 28.722656 19.699219 C 28.601562 19.351562 28.601562 19.351562 28.601562 19.214844 Z M 28.601562 19.214844 "/>
<path style=" stroke:none;fill-rule:nonzero;fill:rgb(3.137255%,49.411765%,80.392158%);fill-opacity:1;" d="M 62.128906 19.667969 C 62.425781 19.90625 62.425781 19.90625 62.492188 20.277344 C 62.484375 20.414062 62.476562 20.550781 62.46875 20.691406 C 62.460938 20.828125 62.457031 20.96875 62.449219 21.109375 C 62.441406 21.214844 62.433594 21.316406 62.425781 21.425781 C 62.328125 21.371094 62.230469 21.3125 62.132812 21.253906 C 60.703125 20.4375 59.355469 20.027344 57.691406 20.394531 C 56.707031 20.738281 56.167969 21.273438 55.695312 22.179688 C 55.058594 23.710938 55.117188 25.511719 55.6875 27.050781 C 56.121094 28.011719 56.609375 28.519531 57.585938 28.90625 C 59.015625 29.3125 60.316406 29.027344 61.601562 28.339844 C 61.890625 28.167969 62.15625 27.988281 62.425781 27.785156 C 62.492188 28.304688 62.515625 28.785156 62.425781 29.304688 C 62.121094 29.675781 61.765625 29.824219 61.324219 29.996094 C 61.226562 30.039062 61.128906 30.085938 61.027344 30.128906 C 59.703125 30.628906 58.039062 30.636719 56.71875 30.136719 C 55.148438 29.359375 54.304688 28.207031 53.710938 26.574219 C 53.351562 24.773438 53.53125 22.675781 54.476562 21.085938 C 56.335938 18.46875 59.4375 18.449219 62.128906 19.667969 Z M 62.128906 19.667969 "/>
<path style=" stroke:none;fill-rule:nonzero;fill:rgb(98.039216%,98.823529%,99.607843%);fill-opacity:1;" d="M 68.199219 22.808594 C 68.929688 23.0625 69.347656 23.515625 69.710938 24.191406 C 70.175781 25.390625 70.125 26.691406 69.710938 27.902344 C 69.449219 28.480469 69.125 28.882812 68.578125 29.21875 C 67.828125 29.390625 67.207031 29.425781 66.507812 29.082031 C 65.691406 28.355469 65.363281 27.574219 65.277344 26.507812 C 65.234375 25.234375 65.375 24.339844 66.214844 23.371094 C 66.894531 22.792969 67.332031 22.691406 68.199219 22.808594 Z M 68.199219 22.808594 "/>
<path style=" stroke:none;fill-rule:nonzero;fill:rgb(98.823529%,99.215686%,99.607843%);fill-opacity:1;" d="M 77.273438 22.808594 C 78.039062 23.164062 78.410156 23.734375 78.789062 24.46875 C 79.171875 25.628906 79.023438 27.09375 78.511719 28.199219 C 78.191406 28.714844 77.839844 29.074219 77.273438 29.304688 C 76.640625 29.40625 76.160156 29.367188 75.582031 29.082031 C 74.78125 28.371094 74.441406 27.59375 74.351562 26.546875 C 74.3125 25.441406 74.390625 24.269531 75.148438 23.394531 C 75.835938 22.800781 76.394531 22.707031 77.273438 22.808594 Z M 77.273438 22.808594 "/>
<path style=" stroke:none;fill-rule:nonzero;fill:rgb(98.039216%,98.823529%,99.607843%);fill-opacity:1;" d="M 87.492188 22.964844 C 88.011719 23.328125 88.402344 23.753906 88.6875 24.328125 C 88.6875 24.601562 88.6875 24.875 88.6875 25.160156 C 87.144531 25.160156 85.601562 25.160156 84.011719 25.160156 C 84.011719 24.289062 84.03125 24.128906 84.5625 23.5 C 85.453125 22.714844 86.378906 22.582031 87.492188 22.964844 Z M 87.492188 22.964844 "/>
<path style=" stroke:none;fill-rule:nonzero;fill:rgb(91.37255%,95.294118%,98.039216%);fill-opacity:1;" d="M 15.949219 21.703125 C 15.949219 22.980469 15.949219 24.257812 15.949219 25.574219 C 15.265625 25.296875 14.824219 24.992188 14.257812 24.535156 C 14.167969 24.46875 14.078125 24.398438 13.988281 24.328125 C 13.765625 24.152344 13.550781 23.964844 13.335938 23.777344 C 13.335938 23.683594 13.335938 23.59375 13.335938 23.5 C 13.644531 23.261719 13.953125 23.039062 14.273438 22.816406 C 14.449219 22.695312 14.625 22.574219 14.800781 22.449219 C 14.878906 22.398438 14.957031 22.34375 15.039062 22.289062 C 15.273438 22.121094 15.273438 22.121094 15.480469 21.890625 C 15.675781 21.703125 15.675781 21.703125 15.949219 21.703125 Z M 15.949219 21.703125 "/>
<path style=" stroke:none;fill-rule:nonzero;fill:rgb(27.450982%,61.56863%,85.09804%);fill-opacity:1;" d="M 8.664062 29.167969 C 9.957031 29.140625 9.957031 29.140625 10.585938 29.304688 C 10.632812 29.535156 10.679688 29.761719 10.726562 29.996094 C 10.039062 29.765625 9.351562 29.535156 8.664062 29.304688 C 8.664062 29.261719 8.664062 29.214844 8.664062 29.167969 Z M 8.664062 29.167969 "/>
<path style=" stroke:none;fill-rule:nonzero;fill:rgb(19.215687%,57.254905%,83.529413%);fill-opacity:1;" d="M 9.351562 21.148438 C 9.441406 21.195312 9.53125 21.242188 9.625 21.289062 C 9.625 21.472656 9.625 21.652344 9.625 21.839844 C 9.488281 21.839844 9.351562 21.839844 9.210938 21.839844 C 9.121094 21.660156 9.03125 21.476562 8.9375 21.289062 C 9.074219 21.242188 9.210938 21.195312 9.351562 21.148438 Z M 9.351562 21.148438 "/>
<path style=" stroke:none;fill-rule:nonzero;fill:rgb(18.82353%,57.254905%,83.529413%);fill-opacity:1;" d="M 9.761719 29.445312 C 9.988281 29.445312 10.214844 29.445312 10.449219 29.445312 C 10.539062 29.625 10.632812 29.808594 10.726562 29.996094 C 10.445312 29.914062 10.171875 29.820312 9.898438 29.71875 C 9.855469 29.628906 9.808594 29.539062 9.761719 29.445312 Z M 9.761719 29.445312 "/>
</g>
</svg>
