<?xml version="1.0" encoding="UTF-8"?>
<svg xmlns="http://www.w3.org/2000/svg" xmlns:xlink="http://www.w3.org/1999/xlink" width="100px" height="61px" viewBox="0 0 99 61" version="1.1">
<g id="surface1">
<path style=" stroke:none;fill-rule:nonzero;fill:rgb(19.607843%,19.607843%,19.607843%);fill-opacity:1;" d="M 66.785156 0 C 67.042969 0.101562 67.28125 0.25 67.519531 0.390625 C 67.589844 0.429688 67.660156 0.46875 67.730469 0.507812 C 67.878906 0.589844 68.023438 0.675781 68.171875 0.757812 C 68.421875 0.902344 68.675781 1.042969 68.929688 1.183594 C 69.304688 1.394531 69.679688 1.605469 70.058594 1.816406 C 70.308594 1.960938 70.5625 2.101562 70.816406 2.242188 C 71.195312 2.453125 71.574219 2.667969 71.953125 2.882812 C 72.007812 2.910156 72.007812 2.910156 72.0625 2.941406 C 72.675781 3.289062 72.675781 3.289062 72.851562 3.496094 C 72.882812 3.53125 72.882812 3.53125 72.914062 3.566406 C 73.097656 3.851562 73.105469 4.113281 73.105469 4.441406 C 73.105469 4.515625 73.105469 4.515625 73.105469 4.585938 C 73.105469 4.71875 73.105469 4.851562 73.105469 4.984375 C 73.105469 5.125 73.105469 5.269531 73.105469 5.414062 C 73.105469 5.664062 73.105469 5.917969 73.105469 6.167969 C 73.105469 6.542969 73.105469 6.914062 73.105469 7.289062 C 73.105469 7.957031 73.105469 8.625 73.105469 9.292969 C 73.105469 9.878906 73.105469 10.464844 73.105469 11.046875 C 73.105469 11.125 73.105469 11.203125 73.105469 11.28125 C 73.105469 11.402344 73.105469 11.519531 73.105469 11.636719 C 73.109375 12.734375 73.109375 13.832031 73.105469 14.933594 C 73.105469 14.992188 73.105469 14.992188 73.105469 15.058594 C 73.105469 15.394531 73.105469 15.730469 73.105469 16.066406 C 73.105469 17.378906 73.105469 18.691406 73.109375 20 C 73.109375 21.476562 73.109375 22.949219 73.109375 24.421875 C 73.109375 24.578125 73.109375 24.738281 73.109375 24.894531 C 73.109375 24.933594 73.109375 24.972656 73.109375 25.011719 C 73.109375 25.59375 73.109375 26.179688 73.109375 26.761719 C 73.109375 27.425781 73.109375 28.09375 73.109375 28.757812 C 73.109375 29.128906 73.109375 29.5 73.109375 29.871094 C 73.109375 30.121094 73.109375 30.367188 73.109375 30.617188 C 73.109375 30.757812 73.109375 30.898438 73.109375 31.042969 C 73.109375 31.195312 73.109375 31.347656 73.109375 31.5 C 73.109375 31.542969 73.109375 31.585938 73.109375 31.632812 C 73.105469 32.011719 73 32.289062 72.742188 32.566406 C 72.605469 32.695312 72.449219 32.785156 72.285156 32.875 C 72.230469 32.90625 72.230469 32.90625 72.171875 32.941406 C 72.09375 32.984375 72.015625 33.03125 71.9375 33.074219 C 71.773438 33.167969 71.609375 33.265625 71.445312 33.359375 C 71.277344 33.457031 71.105469 33.554688 70.9375 33.65625 C 70.726562 33.777344 70.515625 33.898438 70.304688 34.019531 C 70.222656 34.070312 70.136719 34.117188 70.054688 34.167969 C 69.992188 34.203125 69.992188 34.203125 69.929688 34.238281 C 67.539062 35.625 67.539062 35.625 67.414062 35.699219 C 67.332031 35.746094 67.246094 35.796875 67.164062 35.84375 C 66.953125 35.964844 66.742188 36.089844 66.53125 36.210938 C 66.125 36.445312 65.722656 36.679688 65.316406 36.917969 C 64.664062 37.300781 64.007812 37.683594 63.351562 38.058594 C 63.316406 38.082031 63.277344 38.101562 63.238281 38.125 C 63.207031 38.144531 63.171875 38.164062 63.136719 38.183594 C 63.105469 38.199219 63.078125 38.21875 63.046875 38.234375 C 62.757812 38.386719 62.464844 38.410156 62.144531 38.359375 C 61.921875 38.28125 61.730469 38.167969 61.527344 38.046875 C 61.453125 38.003906 61.375 37.960938 61.300781 37.917969 C 61.082031 37.792969 60.867188 37.667969 60.652344 37.539062 C 60.441406 37.417969 60.230469 37.292969 60.019531 37.171875 C 59.933594 37.125 59.851562 37.074219 59.769531 37.027344 C 59.597656 36.929688 59.429688 36.832031 59.261719 36.734375 C 58.859375 36.5 58.453125 36.261719 58.050781 36.027344 C 57.714844 35.828125 57.378906 35.632812 57.039062 35.441406 C 56.664062 35.226562 56.289062 35.007812 55.917969 34.789062 C 55.511719 34.546875 55.101562 34.3125 54.691406 34.074219 C 54.566406 34 54.441406 33.929688 54.3125 33.855469 C 54.273438 33.832031 54.230469 33.808594 54.1875 33.78125 C 54.105469 33.734375 54.023438 33.6875 53.9375 33.636719 C 53.746094 33.523438 53.550781 33.410156 53.355469 33.300781 C 53.289062 33.261719 53.21875 33.222656 53.152344 33.183594 C 53.066406 33.132812 52.980469 33.085938 52.894531 33.035156 C 52.007812 32.523438 52.007812 32.523438 51.84375 32.074219 C 51.796875 31.886719 51.804688 31.695312 51.804688 31.503906 C 51.804688 31.457031 51.804688 31.410156 51.804688 31.363281 C 51.804688 31.230469 51.804688 31.101562 51.804688 30.972656 C 51.804688 30.832031 51.804688 30.691406 51.804688 30.546875 C 51.804688 30.273438 51.804688 29.996094 51.804688 29.722656 C 51.804688 29.5 51.804688 29.273438 51.804688 29.050781 C 51.804688 29.019531 51.804688 28.988281 51.804688 28.953125 C 51.804688 28.886719 51.804688 28.824219 51.804688 28.757812 C 51.800781 28.152344 51.800781 27.542969 51.804688 26.9375 C 51.804688 26.378906 51.804688 25.824219 51.800781 25.269531 C 51.800781 24.699219 51.800781 24.128906 51.800781 23.554688 C 51.800781 23.234375 51.800781 22.914062 51.800781 22.59375 C 51.800781 22.324219 51.800781 22.050781 51.800781 21.777344 C 51.800781 21.636719 51.800781 21.5 51.800781 21.359375 C 51.800781 21.210938 51.800781 21.058594 51.800781 20.90625 C 51.800781 20.863281 51.800781 20.820312 51.800781 20.773438 C 51.804688 20.394531 51.894531 20.074219 52.167969 19.800781 C 52.257812 19.738281 52.339844 19.679688 52.433594 19.625 C 52.460938 19.609375 52.488281 19.589844 52.515625 19.574219 C 52.820312 19.390625 53.132812 19.214844 53.441406 19.039062 C 53.671875 18.910156 53.902344 18.777344 54.128906 18.640625 C 54.464844 18.441406 54.804688 18.246094 55.144531 18.050781 C 55.523438 17.835938 55.898438 17.617188 56.269531 17.398438 C 56.675781 17.160156 57.085938 16.921875 57.496094 16.683594 C 57.703125 16.5625 57.914062 16.441406 58.125 16.320312 C 58.207031 16.269531 58.292969 16.222656 58.375 16.175781 C 58.417969 16.148438 58.457031 16.125 58.5 16.101562 C 58.960938 15.832031 59.421875 15.566406 59.882812 15.296875 C 59.925781 15.273438 59.964844 15.25 60.007812 15.226562 C 60.09375 15.175781 60.175781 15.128906 60.257812 15.082031 C 60.453125 14.96875 60.648438 14.855469 60.839844 14.742188 C 60.90625 14.703125 60.976562 14.664062 61.042969 14.625 C 61.128906 14.574219 61.210938 14.523438 61.296875 14.476562 C 62.273438 13.90625 62.273438 13.90625 62.742188 14.03125 C 63.042969 14.136719 63.3125 14.285156 63.582031 14.449219 C 63.632812 14.476562 63.679688 14.503906 63.726562 14.53125 C 63.847656 14.601562 63.964844 14.671875 64.085938 14.742188 C 64.238281 14.832031 64.390625 14.921875 64.542969 15.011719 C 64.621094 15.054688 64.695312 15.101562 64.773438 15.144531 C 64.875 15.207031 64.980469 15.265625 65.085938 15.328125 C 65.121094 15.351562 65.160156 15.371094 65.199219 15.394531 C 65.238281 15.417969 65.277344 15.4375 65.3125 15.460938 C 65.347656 15.480469 65.382812 15.5 65.417969 15.519531 C 65.59375 15.601562 65.71875 15.542969 65.898438 15.484375 C 65.949219 15.355469 65.941406 15.214844 65.941406 15.078125 C 65.941406 15.050781 65.941406 15.027344 65.941406 15 C 65.941406 14.917969 65.941406 14.832031 65.941406 14.746094 C 65.941406 14.683594 65.941406 14.625 65.941406 14.5625 C 65.941406 14.394531 65.941406 14.226562 65.941406 14.058594 C 65.941406 13.875 65.941406 13.695312 65.941406 13.511719 C 65.941406 13.199219 65.941406 12.882812 65.941406 12.566406 C 65.945312 12.070312 65.945312 11.570312 65.945312 11.074219 C 65.945312 10.902344 65.945312 10.734375 65.945312 10.5625 C 65.945312 10.5 65.945312 10.5 65.945312 10.433594 C 65.945312 9.949219 65.949219 9.464844 65.949219 8.980469 C 65.949219 8.9375 65.949219 8.894531 65.949219 8.847656 C 65.949219 8.128906 65.949219 7.410156 65.953125 6.695312 C 65.953125 5.957031 65.953125 5.222656 65.953125 4.484375 C 65.957031 4.03125 65.957031 3.574219 65.957031 3.121094 C 65.957031 2.808594 65.957031 2.496094 65.957031 2.1875 C 65.957031 2.007812 65.957031 1.828125 65.957031 1.648438 C 65.957031 1.484375 65.957031 1.316406 65.957031 1.152344 C 65.957031 1.09375 65.957031 1.035156 65.957031 0.976562 C 65.957031 0.894531 65.957031 0.8125 65.960938 0.730469 C 65.960938 0.6875 65.960938 0.640625 65.960938 0.597656 C 65.980469 0.394531 66.039062 0.242188 66.1875 0.101562 C 66.386719 -0.03125 66.550781 -0.0429688 66.785156 0 Z M 62.140625 22.242188 C 62.078125 22.277344 62.078125 22.277344 62.019531 22.3125 C 61.976562 22.339844 61.933594 22.363281 61.890625 22.390625 C 61.84375 22.417969 61.800781 22.445312 61.753906 22.472656 C 61.660156 22.527344 61.566406 22.582031 61.472656 22.636719 C 61.261719 22.761719 61.046875 22.886719 60.832031 23.011719 C 60.746094 23.058594 60.664062 23.109375 60.582031 23.15625 C 60.429688 23.246094 60.277344 23.332031 60.121094 23.421875 C 60.054688 23.460938 59.984375 23.5 59.917969 23.539062 C 59.832031 23.589844 59.746094 23.640625 59.660156 23.6875 C 59.480469 23.792969 59.300781 23.898438 59.125 24.011719 C 59.097656 24.027344 59.070312 24.046875 59.042969 24.0625 C 58.945312 24.144531 58.902344 24.226562 58.886719 24.355469 C 58.886719 24.382812 58.886719 24.410156 58.886719 24.4375 C 58.886719 24.472656 58.886719 24.503906 58.886719 24.539062 C 58.886719 24.574219 58.886719 24.609375 58.886719 24.644531 C 58.886719 24.679688 58.886719 24.71875 58.886719 24.757812 C 58.886719 24.878906 58.886719 25.003906 58.886719 25.128906 C 58.886719 25.214844 58.886719 25.300781 58.886719 25.386719 C 58.886719 25.566406 58.886719 25.746094 58.886719 25.925781 C 58.886719 26.15625 58.886719 26.386719 58.886719 26.617188 C 58.886719 26.792969 58.886719 26.96875 58.886719 27.148438 C 58.886719 27.230469 58.886719 27.316406 58.886719 27.402344 C 58.886719 27.519531 58.886719 27.640625 58.886719 27.757812 C 58.886719 27.792969 58.886719 27.828125 58.886719 27.863281 C 58.886719 27.898438 58.886719 27.929688 58.886719 27.964844 C 58.886719 27.992188 58.886719 28.019531 58.886719 28.046875 C 58.898438 28.140625 58.925781 28.203125 58.976562 28.28125 C 59.058594 28.347656 59.058594 28.347656 59.164062 28.402344 C 59.203125 28.425781 59.242188 28.449219 59.285156 28.472656 C 59.328125 28.496094 59.371094 28.519531 59.414062 28.546875 C 59.460938 28.570312 59.503906 28.597656 59.550781 28.621094 C 59.644531 28.675781 59.738281 28.730469 59.835938 28.785156 C 60.042969 28.902344 60.25 29.019531 60.457031 29.140625 C 60.527344 29.179688 60.59375 29.21875 60.660156 29.257812 C 61.003906 29.453125 61.34375 29.652344 61.683594 29.855469 C 61.753906 29.894531 61.824219 29.9375 61.894531 29.976562 C 61.957031 30.015625 62.023438 30.054688 62.085938 30.09375 C 62.113281 30.109375 62.144531 30.128906 62.175781 30.148438 C 62.199219 30.164062 62.226562 30.179688 62.25 30.199219 C 62.417969 30.253906 62.566406 30.207031 62.726562 30.136719 C 62.761719 30.113281 62.800781 30.089844 62.839844 30.066406 C 62.882812 30.042969 62.925781 30.019531 62.972656 29.992188 C 63.019531 29.964844 63.0625 29.9375 63.109375 29.910156 C 63.160156 29.878906 63.207031 29.851562 63.253906 29.824219 C 63.378906 29.753906 63.5 29.679688 63.625 29.605469 C 63.765625 29.523438 63.90625 29.441406 64.046875 29.359375 C 64.121094 29.316406 64.195312 29.273438 64.269531 29.226562 C 64.480469 29.101562 64.695312 28.980469 64.910156 28.855469 C 64.960938 28.828125 65.011719 28.800781 65.058594 28.773438 C 65.15625 28.71875 65.25 28.664062 65.34375 28.609375 C 65.730469 28.417969 65.730469 28.417969 65.972656 28.089844 C 65.976562 28.035156 65.980469 27.984375 65.980469 27.933594 C 65.980469 27.902344 65.980469 27.867188 65.980469 27.835938 C 65.980469 27.800781 65.980469 27.765625 65.980469 27.730469 C 65.980469 27.695312 65.980469 27.660156 65.980469 27.621094 C 65.980469 27.5 65.980469 27.378906 65.980469 27.257812 C 65.980469 27.175781 65.980469 27.089844 65.980469 27.007812 C 65.980469 26.828125 65.980469 26.652344 65.980469 26.476562 C 65.980469 26.25 65.980469 26.027344 65.984375 25.800781 C 65.984375 25.625 65.984375 25.453125 65.984375 25.28125 C 65.984375 25.195312 65.984375 25.113281 65.984375 25.03125 C 65.984375 24.914062 65.984375 24.796875 65.984375 24.679688 C 65.984375 24.648438 65.984375 24.613281 65.984375 24.578125 C 65.984375 24.40625 65.980469 24.273438 65.898438 24.121094 C 65.828125 24.054688 65.828125 24.054688 65.746094 24.007812 C 65.699219 23.976562 65.699219 23.976562 65.652344 23.945312 C 65.46875 23.839844 65.285156 23.734375 65.101562 23.632812 C 64.773438 23.449219 64.445312 23.261719 64.121094 23.070312 C 64.082031 23.050781 64.046875 23.027344 64.007812 23.003906 C 63.949219 22.972656 63.949219 22.972656 63.894531 22.9375 C 63.652344 22.796875 63.410156 22.65625 63.171875 22.515625 C 63.105469 22.476562 63.039062 22.4375 62.972656 22.398438 C 62.933594 22.378906 62.890625 22.355469 62.851562 22.328125 C 62.796875 22.300781 62.796875 22.300781 62.742188 22.265625 C 62.710938 22.25 62.679688 22.230469 62.648438 22.214844 C 62.621094 22.199219 62.59375 22.183594 62.566406 22.167969 C 62.394531 22.09375 62.289062 22.15625 62.140625 22.242188 Z M 62.140625 22.242188 "/>
<path style=" stroke:none;fill-rule:nonzero;fill:rgb(40.392157%,64.705884%,34.117648%);fill-opacity:1;" d="M 36.511719 13.917969 C 36.550781 13.917969 36.59375 13.914062 36.636719 13.914062 C 36.984375 13.945312 37.253906 14.109375 37.546875 14.289062 C 37.628906 14.335938 37.714844 14.386719 37.796875 14.433594 C 37.839844 14.460938 37.878906 14.484375 37.925781 14.511719 C 38.132812 14.636719 38.339844 14.757812 38.550781 14.878906 C 38.636719 14.925781 38.71875 14.976562 38.804688 15.023438 C 38.867188 15.0625 38.867188 15.0625 38.933594 15.097656 C 39.140625 15.21875 39.351562 15.34375 39.5625 15.464844 C 39.644531 15.511719 39.730469 15.5625 39.8125 15.609375 C 42.074219 16.921875 42.074219 16.921875 44.335938 18.234375 C 44.378906 18.261719 44.421875 18.285156 44.464844 18.308594 C 44.546875 18.355469 44.628906 18.40625 44.714844 18.453125 C 44.929688 18.578125 45.144531 18.703125 45.359375 18.828125 C 45.566406 18.949219 45.777344 19.070312 45.988281 19.195312 C 46.085938 19.25 46.179688 19.304688 46.277344 19.359375 C 46.648438 19.570312 46.96875 19.804688 47.101562 20.230469 C 47.148438 20.46875 47.148438 20.707031 47.144531 20.953125 C 47.144531 21.019531 47.144531 21.019531 47.144531 21.089844 C 47.148438 21.210938 47.148438 21.335938 47.148438 21.460938 C 47.148438 21.597656 47.148438 21.730469 47.148438 21.867188 C 47.148438 22.128906 47.148438 22.394531 47.148438 22.65625 C 47.148438 22.871094 47.148438 23.085938 47.148438 23.296875 C 47.148438 23.90625 47.148438 24.515625 47.148438 25.121094 C 47.148438 25.171875 47.148438 25.171875 47.148438 25.222656 C 47.148438 25.269531 47.148438 25.269531 47.148438 25.320312 C 47.148438 25.851562 47.148438 26.382812 47.148438 26.914062 C 47.148438 27.460938 47.148438 28.007812 47.148438 28.550781 C 47.148438 28.859375 47.148438 29.164062 47.148438 29.472656 C 47.152344 29.730469 47.152344 29.992188 47.152344 30.253906 C 47.152344 30.386719 47.152344 30.519531 47.152344 30.652344 C 47.152344 30.796875 47.152344 30.941406 47.152344 31.085938 C 47.152344 31.128906 47.152344 31.167969 47.152344 31.210938 C 47.148438 31.65625 47.085938 32.03125 46.789062 32.371094 C 46.648438 32.511719 46.472656 32.601562 46.300781 32.699219 C 46.257812 32.722656 46.21875 32.746094 46.175781 32.769531 C 46.089844 32.816406 46.003906 32.867188 45.917969 32.914062 C 45.75 33.011719 45.582031 33.109375 45.414062 33.207031 C 45.289062 33.28125 45.164062 33.351562 45.035156 33.425781 C 44.785156 33.574219 44.53125 33.71875 44.28125 33.863281 C 44.195312 33.914062 44.113281 33.960938 44.027344 34.011719 C 43.964844 34.046875 43.964844 34.046875 43.902344 34.082031 C 42.519531 34.886719 42.519531 34.886719 42.394531 34.960938 C 42.308594 35.007812 42.226562 35.054688 42.144531 35.105469 C 41.933594 35.226562 41.722656 35.347656 41.511719 35.472656 C 41.105469 35.707031 40.703125 35.941406 40.300781 36.175781 C 39.941406 36.386719 39.582031 36.597656 39.222656 36.804688 C 38.902344 36.984375 38.585938 37.171875 38.269531 37.355469 C 38.191406 37.402344 38.117188 37.445312 38.042969 37.488281 C 37.929688 37.554688 37.820312 37.621094 37.707031 37.6875 C 37.597656 37.753906 37.488281 37.816406 37.375 37.882812 C 37.34375 37.902344 37.3125 37.921875 37.277344 37.941406 C 36.984375 38.113281 36.695312 38.203125 36.351562 38.164062 C 36.027344 38.074219 35.746094 37.914062 35.460938 37.742188 C 35.394531 37.703125 35.328125 37.664062 35.261719 37.625 C 35.191406 37.585938 35.125 37.546875 35.054688 37.503906 C 34.84375 37.378906 34.632812 37.257812 34.417969 37.132812 C 34.335938 37.085938 34.25 37.035156 34.167969 36.988281 C 34.105469 36.949219 34.105469 36.949219 34.039062 36.914062 C 33.246094 36.453125 32.449219 35.988281 31.652344 35.527344 C 31.613281 35.503906 31.570312 35.480469 31.527344 35.457031 C 31.445312 35.40625 31.359375 35.359375 31.277344 35.308594 C 31.066406 35.1875 30.855469 35.066406 30.644531 34.941406 C 30.242188 34.710938 29.835938 34.472656 29.433594 34.238281 C 29.097656 34.039062 28.761719 33.84375 28.421875 33.652344 C 27.964844 33.386719 27.507812 33.121094 27.054688 32.855469 C 26.960938 32.800781 26.871094 32.746094 26.777344 32.695312 C 26.382812 32.46875 26.132812 32.265625 25.980469 31.824219 C 25.925781 31.625 25.925781 31.429688 25.929688 31.226562 C 25.929688 31.179688 25.929688 31.132812 25.929688 31.085938 C 25.929688 30.957031 25.929688 30.828125 25.929688 30.699219 C 25.929688 30.5625 25.929688 30.425781 25.929688 30.285156 C 25.929688 30.015625 25.929688 29.746094 25.929688 29.472656 C 25.929688 29.160156 25.929688 28.84375 25.929688 28.527344 C 25.929688 27.964844 25.929688 27.402344 25.929688 26.839844 C 25.933594 26.292969 25.933594 25.75 25.929688 25.203125 C 25.929688 24.609375 25.929688 24.011719 25.929688 23.417969 C 25.933594 23.355469 25.933594 23.292969 25.933594 23.226562 C 25.933594 23.195312 25.933594 23.164062 25.933594 23.132812 C 25.933594 22.914062 25.933594 22.695312 25.933594 22.472656 C 25.933594 22.207031 25.933594 21.9375 25.933594 21.671875 C 25.933594 21.535156 25.933594 21.398438 25.933594 21.261719 C 25.933594 21.113281 25.933594 20.964844 25.933594 20.816406 C 25.933594 20.773438 25.933594 20.730469 25.933594 20.6875 C 25.9375 20.347656 25.992188 20.035156 26.210938 19.765625 C 26.589844 19.40625 27.121094 19.175781 27.570312 18.921875 C 27.804688 18.792969 28.03125 18.65625 28.261719 18.523438 C 28.710938 18.257812 29.160156 17.996094 29.613281 17.734375 C 29.820312 17.613281 30.03125 17.492188 30.242188 17.371094 C 30.324219 17.320312 30.410156 17.273438 30.492188 17.222656 C 30.535156 17.199219 30.574219 17.175781 30.617188 17.152344 C 31.75 16.496094 32.878906 15.839844 34.011719 15.183594 C 34.054688 15.15625 34.09375 15.132812 34.136719 15.109375 C 34.222656 15.0625 34.304688 15.011719 34.386719 14.964844 C 34.582031 14.851562 34.777344 14.738281 34.96875 14.625 C 35.039062 14.585938 35.105469 14.546875 35.175781 14.503906 C 35.261719 14.457031 35.347656 14.40625 35.429688 14.355469 C 36.175781 13.921875 36.175781 13.921875 36.511719 13.917969 Z M 36.511719 13.917969 "/>
<path style=" stroke:none;fill-rule:nonzero;fill:rgb(19.607843%,19.607843%,19.607843%);fill-opacity:1;" d="M 10.605469 13.71875 C 10.664062 13.714844 10.664062 13.714844 10.726562 13.714844 C 11.089844 13.761719 11.40625 13.964844 11.71875 14.144531 C 11.761719 14.171875 11.804688 14.195312 11.847656 14.21875 C 12.136719 14.382812 12.417969 14.550781 12.703125 14.71875 C 13.296875 15.070312 13.894531 15.414062 14.492188 15.757812 C 15.027344 16.0625 15.5625 16.375 16.09375 16.683594 C 16.21875 16.757812 16.34375 16.828125 16.46875 16.902344 C 16.511719 16.925781 16.550781 16.949219 16.59375 16.972656 C 16.925781 17.167969 17.257812 17.355469 17.59375 17.546875 C 17.941406 17.75 18.289062 17.953125 18.636719 18.15625 C 18.914062 18.320312 19.191406 18.480469 19.472656 18.640625 C 19.539062 18.679688 19.609375 18.71875 19.679688 18.761719 C 19.882812 18.878906 20.085938 18.992188 20.292969 19.105469 C 20.738281 19.355469 21.0625 19.566406 21.238281 20.070312 C 21.292969 20.277344 21.289062 20.480469 21.289062 20.695312 C 21.289062 20.769531 21.289062 20.769531 21.289062 20.847656 C 21.289062 20.980469 21.289062 21.117188 21.289062 21.253906 C 21.289062 21.398438 21.289062 21.546875 21.289062 21.695312 C 21.289062 21.980469 21.289062 22.269531 21.285156 22.558594 C 21.285156 22.894531 21.285156 23.234375 21.285156 23.574219 C 21.285156 24.179688 21.285156 24.785156 21.285156 25.390625 C 21.28125 25.972656 21.28125 26.558594 21.28125 27.140625 C 21.28125 27.191406 21.28125 27.191406 21.28125 27.246094 C 21.28125 27.390625 21.28125 27.53125 21.28125 27.675781 C 21.28125 28.273438 21.28125 28.867188 21.277344 29.464844 C 21.277344 29.597656 21.277344 29.730469 21.277344 29.863281 C 21.277344 30.699219 21.277344 31.53125 21.269531 32.363281 C 21.269531 32.519531 21.269531 32.675781 21.269531 32.832031 C 21.265625 33.1875 21.265625 33.542969 21.261719 33.898438 C 21.261719 34.050781 21.257812 34.199219 21.257812 34.351562 C 21.257812 34.492188 21.257812 34.632812 21.253906 34.769531 C 21.253906 34.847656 21.253906 34.921875 21.253906 34.996094 C 21.25 35.246094 21.246094 35.410156 21.078125 35.597656 C 20.953125 35.707031 20.847656 35.761719 20.683594 35.777344 C 20.296875 35.753906 19.925781 35.460938 19.597656 35.265625 C 19.273438 35.074219 18.949219 34.886719 18.621094 34.703125 C 18.265625 34.503906 17.914062 34.300781 17.566406 34.09375 C 17.269531 33.921875 16.972656 33.75 16.675781 33.578125 C 16.65625 33.566406 16.632812 33.550781 16.609375 33.539062 C 16.375 33.40625 16.140625 33.269531 15.90625 33.136719 C 15.8125 33.082031 15.714844 33.027344 15.617188 32.972656 C 15.550781 32.933594 15.484375 32.894531 15.417969 32.855469 C 15.199219 32.730469 14.984375 32.605469 14.769531 32.472656 C 14.730469 32.449219 14.6875 32.425781 14.644531 32.398438 C 14.378906 32.21875 14.234375 31.980469 14.152344 31.667969 C 14.132812 31.429688 14.132812 31.195312 14.136719 30.957031 C 14.136719 30.886719 14.136719 30.816406 14.136719 30.742188 C 14.132812 30.589844 14.132812 30.4375 14.136719 30.285156 C 14.136719 30.042969 14.136719 29.800781 14.136719 29.558594 C 14.132812 29 14.132812 28.441406 14.132812 27.882812 C 14.136719 27.371094 14.136719 26.859375 14.132812 26.34375 C 14.132812 26.105469 14.132812 25.863281 14.132812 25.625 C 14.136719 25.472656 14.132812 25.324219 14.132812 25.171875 C 14.132812 25.105469 14.132812 25.035156 14.132812 24.964844 C 14.136719 24.503906 14.125 24.0625 13.792969 23.710938 C 13.6875 23.613281 13.570312 23.546875 13.449219 23.476562 C 13.390625 23.445312 13.332031 23.410156 13.273438 23.378906 C 13.238281 23.359375 13.207031 23.339844 13.175781 23.324219 C 13.023438 23.234375 12.867188 23.148438 12.714844 23.058594 C 12.589844 22.984375 12.460938 22.910156 12.332031 22.835938 C 12.171875 22.742188 12.015625 22.652344 11.859375 22.558594 C 11.789062 22.515625 11.71875 22.476562 11.652344 22.433594 C 11.566406 22.382812 11.480469 22.332031 11.394531 22.28125 C 11.097656 22.105469 10.832031 21.984375 10.480469 22.019531 C 10.144531 22.113281 9.847656 22.28125 9.550781 22.460938 C 9.503906 22.488281 9.457031 22.515625 9.40625 22.542969 C 9.3125 22.597656 9.214844 22.65625 9.117188 22.710938 C 8.976562 22.796875 8.835938 22.875 8.691406 22.957031 C 8.648438 22.984375 8.601562 23.011719 8.558594 23.035156 C 8.472656 23.085938 8.390625 23.132812 8.304688 23.179688 C 7.585938 23.570312 7.585938 23.570312 7.15625 24.238281 C 7.125 24.472656 7.128906 24.707031 7.128906 24.941406 C 7.128906 25.015625 7.128906 25.085938 7.128906 25.15625 C 7.128906 25.308594 7.128906 25.460938 7.128906 25.613281 C 7.128906 25.855469 7.128906 26.097656 7.128906 26.339844 C 7.128906 26.722656 7.128906 27.101562 7.128906 27.484375 C 7.128906 28.167969 7.128906 28.851562 7.125 29.539062 C 7.125 29.777344 7.125 30.015625 7.125 30.257812 C 7.125 30.40625 7.125 30.554688 7.125 30.703125 C 7.125 30.773438 7.125 30.84375 7.125 30.910156 C 7.128906 31.765625 7.128906 31.765625 6.933594 32.042969 C 6.917969 32.070312 6.898438 32.097656 6.878906 32.125 C 6.648438 32.398438 6.351562 32.5625 6.039062 32.734375 C 5.992188 32.761719 5.945312 32.789062 5.894531 32.816406 C 5.820312 32.859375 5.746094 32.902344 5.671875 32.941406 C 5.429688 33.078125 5.191406 33.21875 4.949219 33.359375 C 4.46875 33.640625 3.984375 33.917969 3.5 34.195312 C 3.296875 34.3125 3.09375 34.429688 2.890625 34.546875 C 2.824219 34.585938 2.757812 34.625 2.6875 34.660156 C 2.480469 34.78125 2.269531 34.902344 2.0625 35.023438 C 1.964844 35.078125 1.867188 35.136719 1.769531 35.191406 C 1.703125 35.230469 1.632812 35.269531 1.566406 35.308594 C 1.445312 35.378906 1.320312 35.449219 1.199219 35.519531 C 1.160156 35.542969 1.121094 35.5625 1.082031 35.585938 C 1.042969 35.609375 1.007812 35.628906 0.96875 35.652344 C 0.933594 35.671875 0.902344 35.6875 0.867188 35.707031 C 0.707031 35.78125 0.558594 35.789062 0.386719 35.75 C 0.1875 35.648438 0.0703125 35.535156 0 35.324219 C -0.00390625 35.238281 -0.00390625 35.15625 -0.00390625 35.074219 C -0.00390625 35.046875 -0.00390625 35.019531 -0.00390625 34.996094 C -0.0078125 34.90625 -0.0078125 34.820312 -0.0078125 34.734375 C -0.0078125 34.671875 -0.0078125 34.609375 -0.0078125 34.546875 C -0.0078125 34.371094 -0.0078125 34.199219 -0.0078125 34.027344 C -0.0078125 33.839844 -0.0078125 33.65625 -0.0078125 33.46875 C -0.0078125 33.019531 -0.0117188 32.566406 -0.0117188 32.117188 C -0.0117188 31.992188 -0.0117188 31.863281 -0.0117188 31.738281 C -0.0117188 30.949219 -0.0117188 30.160156 -0.0117188 29.371094 C -0.0117188 29.1875 -0.0117188 29.003906 -0.0117188 28.820312 C -0.0117188 28.777344 -0.0117188 28.730469 -0.0117188 28.683594 C -0.015625 27.949219 -0.015625 27.210938 -0.015625 26.476562 C -0.0195312 25.71875 -0.0195312 24.964844 -0.0195312 24.207031 C -0.0195312 23.785156 -0.0195312 23.359375 -0.0234375 22.9375 C -0.0234375 22.574219 -0.0234375 22.214844 -0.0234375 21.851562 C -0.0234375 21.667969 -0.0234375 21.484375 -0.0234375 21.296875 C -0.0234375 21.128906 -0.0234375 20.960938 -0.0234375 20.792969 C -0.0234375 20.730469 -0.0234375 20.671875 -0.0234375 20.609375 C -0.0273438 20.171875 0.0351562 19.816406 0.347656 19.492188 C 0.4375 19.425781 0.4375 19.425781 0.546875 19.359375 C 0.566406 19.347656 0.589844 19.332031 0.609375 19.320312 C 0.691406 19.273438 0.769531 19.226562 0.851562 19.179688 C 0.902344 19.148438 0.902344 19.148438 0.957031 19.117188 C 1.480469 18.8125 2.007812 18.507812 2.535156 18.207031 C 3.003906 17.933594 3.476562 17.664062 3.945312 17.390625 C 4.484375 17.074219 5.023438 16.761719 5.566406 16.453125 C 5.875 16.273438 6.1875 16.09375 6.496094 15.910156 C 6.875 15.6875 7.253906 15.46875 7.636719 15.25 C 7.941406 15.078125 8.242188 14.902344 8.546875 14.726562 C 8.628906 14.675781 8.710938 14.628906 8.792969 14.582031 C 8.925781 14.503906 9.0625 14.425781 9.195312 14.347656 C 9.320312 14.277344 9.441406 14.203125 9.566406 14.132812 C 9.613281 14.105469 9.660156 14.078125 9.710938 14.050781 C 9.777344 14.011719 9.839844 13.972656 9.90625 13.933594 C 9.964844 13.902344 9.964844 13.902344 10.023438 13.867188 C 10.214844 13.765625 10.386719 13.722656 10.605469 13.71875 Z M 10.605469 13.71875 "/>
<path style=" stroke:none;fill-rule:nonzero;fill:rgb(20%,20%,20%);fill-opacity:1;" d="M 88.421875 13.84375 C 89.054688 13.851562 89.71875 14.398438 90.242188 14.707031 C 90.457031 14.832031 90.671875 14.953125 90.882812 15.078125 C 91.242188 15.285156 91.601562 15.496094 91.960938 15.707031 C 92.242188 15.871094 92.527344 16.039062 92.8125 16.203125 C 93.328125 16.503906 93.84375 16.804688 94.359375 17.105469 C 94.839844 17.390625 95.320312 17.671875 95.800781 17.949219 C 96.121094 18.132812 96.4375 18.320312 96.753906 18.507812 C 97.003906 18.652344 97.25 18.796875 97.5 18.941406 C 97.703125 19.058594 97.90625 19.175781 98.109375 19.296875 C 98.140625 19.3125 98.171875 19.332031 98.203125 19.351562 C 98.582031 19.574219 98.859375 19.796875 99 20.230469 C 99.011719 20.339844 99.015625 20.445312 99.015625 20.554688 C 99.015625 20.601562 99.015625 20.601562 99.015625 20.648438 C 99.015625 20.753906 99.015625 20.855469 99.015625 20.957031 C 99.015625 21.03125 99.015625 21.101562 99.015625 21.175781 C 99.019531 21.324219 99.019531 21.476562 99.015625 21.628906 C 99.015625 21.820312 99.019531 22.011719 99.019531 22.203125 C 99.019531 22.351562 99.019531 22.503906 99.019531 22.652344 C 99.019531 22.722656 99.019531 22.792969 99.019531 22.863281 C 99.023438 23.578125 99.023438 23.578125 98.84375 23.847656 C 98.824219 23.878906 98.804688 23.910156 98.785156 23.941406 C 98.601562 24.152344 98.398438 24.28125 98.15625 24.414062 C 98.117188 24.4375 98.074219 24.460938 98.035156 24.484375 C 97.949219 24.53125 97.863281 24.582031 97.777344 24.628906 C 97.566406 24.75 97.355469 24.871094 97.144531 24.996094 C 97.058594 25.042969 96.976562 25.09375 96.890625 25.140625 C 96.496094 25.371094 96.105469 25.601562 95.710938 25.832031 C 95.195312 26.136719 94.675781 26.441406 94.15625 26.742188 C 93.941406 26.863281 93.730469 26.988281 93.519531 27.113281 C 93.476562 27.136719 93.433594 27.164062 93.390625 27.1875 C 93.308594 27.234375 93.230469 27.28125 93.152344 27.332031 C 92.585938 27.664062 92.585938 27.664062 92.308594 27.621094 C 92.148438 27.558594 92.027344 27.488281 91.921875 27.347656 C 91.859375 27.140625 91.835938 26.957031 91.835938 26.738281 C 91.835938 26.695312 91.835938 26.695312 91.835938 26.652344 C 91.835938 26.59375 91.835938 26.53125 91.835938 26.472656 C 91.835938 26.375 91.835938 26.28125 91.832031 26.183594 C 91.832031 25.910156 91.832031 25.640625 91.832031 25.367188 C 91.832031 25.199219 91.828125 25.03125 91.828125 24.867188 C 91.828125 24.800781 91.828125 24.738281 91.828125 24.675781 C 91.828125 24.585938 91.828125 24.496094 91.828125 24.410156 C 91.828125 24.359375 91.828125 24.308594 91.828125 24.257812 C 91.800781 24.066406 91.722656 23.9375 91.566406 23.820312 C 91.539062 23.804688 91.507812 23.789062 91.476562 23.773438 C 91.441406 23.753906 91.40625 23.734375 91.371094 23.714844 C 91.332031 23.695312 91.292969 23.671875 91.257812 23.652344 C 91.175781 23.609375 91.09375 23.5625 91.011719 23.519531 C 90.972656 23.496094 90.929688 23.472656 90.886719 23.449219 C 90.691406 23.34375 90.5 23.230469 90.3125 23.117188 C 89.910156 22.878906 89.507812 22.648438 89.105469 22.417969 C 89.0625 22.394531 89.019531 22.367188 88.976562 22.34375 C 88.9375 22.320312 88.898438 22.296875 88.859375 22.277344 C 88.789062 22.234375 88.71875 22.191406 88.648438 22.148438 C 88.511719 22.070312 88.40625 22.039062 88.25 22.058594 C 88.058594 22.128906 87.882812 22.230469 87.707031 22.332031 C 87.683594 22.34375 87.660156 22.359375 87.636719 22.371094 C 87.503906 22.449219 87.371094 22.527344 87.242188 22.605469 C 87.019531 22.738281 86.792969 22.867188 86.570312 23 C 86.507812 23.035156 86.507812 23.035156 86.441406 23.074219 C 86.238281 23.191406 86.035156 23.308594 85.832031 23.421875 C 85.761719 23.460938 85.691406 23.5 85.625 23.539062 C 85.535156 23.589844 85.449219 23.640625 85.359375 23.6875 C 85.097656 23.839844 84.945312 23.941406 84.847656 24.238281 C 84.84375 24.347656 84.839844 24.460938 84.839844 24.574219 C 84.839844 24.609375 84.839844 24.644531 84.839844 24.679688 C 84.839844 24.792969 84.839844 24.90625 84.839844 25.019531 C 84.839844 25.101562 84.835938 25.179688 84.835938 25.257812 C 84.835938 25.425781 84.835938 25.59375 84.835938 25.757812 C 84.835938 25.972656 84.835938 26.1875 84.835938 26.398438 C 84.832031 26.5625 84.832031 26.726562 84.832031 26.890625 C 84.832031 26.96875 84.832031 27.050781 84.832031 27.128906 C 84.832031 27.238281 84.832031 27.347656 84.832031 27.457031 C 84.832031 27.507812 84.832031 27.507812 84.832031 27.554688 C 84.832031 27.785156 84.863281 27.984375 85.027344 28.15625 C 85.246094 28.3125 85.480469 28.445312 85.714844 28.574219 C 86.042969 28.757812 86.371094 28.941406 86.695312 29.132812 C 87.027344 29.332031 87.363281 29.523438 87.699219 29.71875 C 87.71875 29.730469 87.742188 29.742188 87.765625 29.757812 C 87.925781 29.847656 88.089844 29.941406 88.25 30.03125 C 88.433594 30.136719 88.617188 30.242188 88.800781 30.347656 C 88.835938 30.367188 88.835938 30.367188 88.867188 30.386719 C 89.179688 30.566406 89.492188 30.75 89.804688 30.933594 C 90.113281 31.117188 90.429688 31.296875 90.742188 31.472656 C 91.097656 31.671875 91.449219 31.875 91.796875 32.078125 C 92.09375 32.253906 92.394531 32.425781 92.691406 32.597656 C 93.210938 32.894531 93.726562 33.195312 94.242188 33.496094 C 94.273438 33.511719 94.300781 33.53125 94.332031 33.546875 C 94.40625 33.589844 94.476562 33.632812 94.546875 33.675781 C 94.601562 33.707031 94.601562 33.707031 94.65625 33.738281 C 94.796875 33.84375 94.882812 33.953125 94.9375 34.117188 C 94.957031 34.308594 94.957031 34.464844 94.847656 34.632812 C 94.5625 34.941406 94.085938 35.121094 93.722656 35.320312 C 93.449219 35.464844 93.183594 35.613281 92.917969 35.765625 C 92.464844 36.023438 92.007812 36.28125 91.554688 36.535156 C 91.378906 36.632812 91.203125 36.730469 91.027344 36.828125 C 90.941406 36.875 90.855469 36.921875 90.769531 36.972656 C 90.570312 37.082031 90.367188 37.195312 90.167969 37.308594 C 89.328125 37.78125 89.328125 37.78125 88.96875 37.964844 C 88.941406 37.976562 88.917969 37.988281 88.894531 38 C 88.628906 38.132812 88.363281 38.175781 88.074219 38.097656 C 87.804688 38 87.566406 37.875 87.320312 37.722656 C 87.238281 37.675781 87.15625 37.625 87.074219 37.578125 C 87.011719 37.539062 87.011719 37.539062 86.949219 37.5 C 86.734375 37.375 86.515625 37.253906 86.296875 37.132812 C 85.925781 36.925781 85.554688 36.714844 85.191406 36.5 C 84.878906 36.316406 84.566406 36.136719 84.25 35.960938 C 83.949219 35.792969 83.644531 35.617188 83.34375 35.445312 C 83.3125 35.425781 83.3125 35.425781 83.277344 35.40625 C 83.164062 35.339844 83.046875 35.273438 82.933594 35.207031 C 82.796875 35.128906 82.660156 35.050781 82.523438 34.972656 C 82.503906 34.960938 82.480469 34.949219 82.457031 34.933594 C 82.390625 34.894531 82.324219 34.855469 82.253906 34.816406 C 82.007812 34.675781 81.757812 34.53125 81.507812 34.386719 C 81.394531 34.324219 81.277344 34.257812 81.164062 34.191406 C 81.140625 34.179688 81.121094 34.164062 81.097656 34.152344 C 80.777344 33.96875 80.457031 33.789062 80.136719 33.605469 C 79.667969 33.34375 79.199219 33.070312 78.734375 32.796875 C 78.707031 32.777344 78.679688 32.761719 78.648438 32.746094 C 78.578125 32.703125 78.507812 32.660156 78.4375 32.617188 C 78.402344 32.597656 78.367188 32.574219 78.328125 32.550781 C 78.058594 32.359375 77.863281 32.113281 77.804688 31.78125 C 77.765625 31.546875 77.757812 31.320312 77.757812 31.082031 C 77.757812 31.035156 77.757812 30.992188 77.757812 30.945312 C 77.757812 30.820312 77.757812 30.695312 77.757812 30.574219 C 77.757812 30.4375 77.757812 30.304688 77.757812 30.167969 C 77.757812 29.90625 77.757812 29.644531 77.757812 29.378906 C 77.757812 29.167969 77.757812 28.953125 77.757812 28.738281 C 77.757812 28.707031 77.757812 28.675781 77.757812 28.644531 C 77.757812 28.585938 77.757812 28.523438 77.757812 28.460938 C 77.757812 27.878906 77.757812 27.300781 77.757812 26.71875 C 77.757812 26.222656 77.757812 25.726562 77.757812 25.226562 C 77.757812 24.648438 77.757812 24.070312 77.757812 23.492188 C 77.757812 23.433594 77.757812 23.371094 77.757812 23.308594 C 77.757812 23.277344 77.757812 23.246094 77.757812 23.214844 C 77.757812 23.003906 77.757812 22.789062 77.757812 22.574219 C 77.757812 22.316406 77.757812 22.054688 77.757812 21.796875 C 77.757812 21.664062 77.757812 21.53125 77.757812 21.398438 C 77.757812 21.253906 77.757812 21.109375 77.757812 20.964844 C 77.757812 20.921875 77.757812 20.882812 77.757812 20.839844 C 77.761719 20.519531 77.777344 20.1875 77.949219 19.910156 C 77.964844 19.878906 77.984375 19.847656 78 19.816406 C 78.222656 19.550781 78.550781 19.390625 78.847656 19.21875 C 78.914062 19.183594 78.980469 19.144531 79.046875 19.105469 C 79.117188 19.066406 79.1875 19.023438 79.257812 18.984375 C 79.46875 18.863281 79.683594 18.738281 79.894531 18.613281 C 79.980469 18.566406 80.0625 18.519531 80.148438 18.46875 C 80.1875 18.445312 80.230469 18.421875 80.273438 18.394531 C 82.074219 17.351562 83.875 16.304688 85.675781 15.257812 C 85.71875 15.234375 85.761719 15.210938 85.804688 15.1875 C 85.886719 15.136719 85.96875 15.089844 86.054688 15.042969 C 86.3125 14.890625 86.574219 14.738281 86.832031 14.589844 C 86.917969 14.539062 87.003906 14.488281 87.089844 14.4375 C 87.265625 14.339844 87.4375 14.238281 87.609375 14.136719 C 87.878906 13.972656 88.101562 13.863281 88.421875 13.84375 Z M 88.421875 13.84375 "/>
<path style=" stroke:none;fill-rule:nonzero;fill:rgb(40.392157%,62.352943%,38.431373%);fill-opacity:1;" d="M 50.429688 36.957031 C 50.652344 37.09375 50.875 37.222656 51.101562 37.355469 C 51.1875 37.40625 51.277344 37.453125 51.363281 37.503906 C 51.449219 37.554688 51.539062 37.605469 51.628906 37.65625 C 52.15625 37.964844 52.683594 38.273438 53.210938 38.582031 C 53.621094 38.820312 54.03125 39.058594 54.4375 39.296875 C 54.648438 39.417969 54.859375 39.539062 55.070312 39.660156 C 55.152344 39.710938 55.234375 39.757812 55.320312 39.808594 C 55.824219 40.097656 56.324219 40.390625 56.828125 40.683594 C 56.871094 40.707031 56.910156 40.730469 56.953125 40.757812 C 57.039062 40.804688 57.121094 40.851562 57.203125 40.902344 C 57.398438 41.011719 57.589844 41.125 57.785156 41.238281 C 57.855469 41.277344 57.921875 41.316406 57.988281 41.355469 C 58.074219 41.40625 58.160156 41.453125 58.246094 41.503906 C 58.929688 41.898438 59.464844 42.230469 59.71875 43.023438 C 59.789062 43.320312 59.792969 43.625 59.792969 43.929688 C 59.792969 43.992188 59.792969 43.992188 59.792969 44.058594 C 59.792969 44.203125 59.792969 44.34375 59.792969 44.484375 C 59.792969 44.589844 59.792969 44.691406 59.792969 44.792969 C 59.792969 45.042969 59.792969 45.289062 59.792969 45.539062 C 59.792969 45.742188 59.792969 45.945312 59.792969 46.144531 C 59.792969 46.71875 59.792969 47.296875 59.792969 47.871094 C 59.792969 47.917969 59.792969 47.917969 59.792969 47.964844 C 59.792969 48.011719 59.792969 48.011719 59.792969 48.058594 C 59.792969 48.558594 59.792969 49.058594 59.792969 49.5625 C 59.796875 50.078125 59.796875 50.59375 59.796875 51.109375 C 59.796875 51.398438 59.796875 51.6875 59.796875 51.976562 C 59.796875 52.222656 59.796875 52.46875 59.796875 52.714844 C 59.796875 52.84375 59.796875 52.96875 59.796875 53.09375 C 59.796875 53.929688 59.792969 54.644531 59.210938 55.300781 C 59.019531 55.480469 58.792969 55.601562 58.566406 55.730469 C 58.460938 55.792969 58.351562 55.855469 58.246094 55.917969 C 58.03125 56.042969 57.816406 56.167969 57.597656 56.292969 C 57.386719 56.417969 57.175781 56.539062 56.964844 56.664062 C 56.710938 56.808594 56.460938 56.957031 56.207031 57.101562 C 55.800781 57.335938 55.398438 57.570312 54.996094 57.808594 C 54.636719 58.019531 54.277344 58.226562 53.917969 58.433594 C 53.5625 58.636719 53.210938 58.839844 52.863281 59.046875 C 52.457031 59.285156 52.046875 59.523438 51.640625 59.757812 C 51.46875 59.859375 51.296875 59.957031 51.125 60.058594 C 51.039062 60.105469 50.953125 60.15625 50.871094 60.203125 C 50.671875 60.320312 50.472656 60.433594 50.277344 60.554688 C 50.242188 60.574219 50.203125 60.59375 50.167969 60.617188 C 50.101562 60.65625 50.035156 60.695312 49.96875 60.738281 C 49.640625 60.929688 49.300781 61.023438 48.921875 61.015625 C 48.890625 61.015625 48.863281 61.015625 48.832031 61.015625 C 48.316406 61 47.917969 60.75 47.488281 60.496094 C 47.410156 60.449219 47.332031 60.402344 47.253906 60.355469 C 47.054688 60.234375 46.851562 60.117188 46.652344 59.996094 C 46.492188 59.898438 46.328125 59.804688 46.167969 59.707031 C 44.839844 58.921875 44.839844 58.921875 44.742188 58.820312 C 44.742188 58.757812 44.742188 58.691406 44.742188 58.625 C 44.910156 58.550781 45.074219 58.476562 45.242188 58.410156 C 45.300781 58.386719 45.355469 58.363281 45.410156 58.34375 C 45.4375 58.332031 45.46875 58.320312 45.496094 58.308594 C 45.722656 58.214844 45.929688 58.105469 46.136719 57.976562 C 46.28125 57.914062 46.367188 57.90625 46.523438 57.925781 C 46.636719 57.976562 46.742188 58.042969 46.847656 58.113281 C 46.917969 58.15625 46.984375 58.199219 47.050781 58.242188 C 47.109375 58.277344 47.109375 58.277344 47.167969 58.3125 C 47.394531 58.457031 47.628906 58.59375 47.859375 58.730469 C 47.941406 58.777344 48.019531 58.828125 48.101562 58.875 C 48.203125 58.9375 48.300781 58.996094 48.402344 59.054688 C 48.480469 59.101562 48.5625 59.148438 48.640625 59.199219 C 48.671875 59.21875 48.699219 59.234375 48.730469 59.253906 C 48.757812 59.269531 48.78125 59.285156 48.808594 59.300781 C 48.910156 59.335938 48.96875 59.320312 49.074219 59.289062 C 49.148438 59.25 49.226562 59.210938 49.296875 59.167969 C 49.363281 59.128906 49.363281 59.128906 49.429688 59.089844 C 49.476562 59.0625 49.523438 59.035156 49.570312 59.007812 C 49.617188 58.980469 49.667969 58.953125 49.714844 58.921875 C 49.863281 58.839844 50.011719 58.75 50.15625 58.664062 C 50.199219 58.640625 50.238281 58.617188 50.28125 58.59375 C 50.433594 58.503906 50.582031 58.414062 50.734375 58.328125 C 51.054688 58.140625 51.375 57.953125 51.695312 57.769531 C 52.007812 57.589844 52.320312 57.410156 52.632812 57.226562 C 52.964844 57.03125 53.300781 56.835938 53.636719 56.644531 C 54.015625 56.425781 54.386719 56.210938 54.761719 55.988281 C 55.253906 55.699219 55.746094 55.414062 56.238281 55.128906 C 56.492188 54.984375 56.742188 54.839844 56.992188 54.691406 C 57.101562 54.628906 57.210938 54.566406 57.320312 54.503906 C 57.425781 54.441406 57.535156 54.378906 57.644531 54.316406 C 57.683594 54.292969 57.722656 54.269531 57.765625 54.246094 C 57.800781 54.226562 57.835938 54.203125 57.875 54.179688 C 57.90625 54.164062 57.941406 54.144531 57.972656 54.125 C 58.050781 54.082031 58.050781 54.082031 58.085938 53.996094 C 58.089844 53.9375 58.089844 53.882812 58.089844 53.824219 C 58.089844 53.785156 58.089844 53.75 58.089844 53.710938 C 58.089844 53.671875 58.089844 53.628906 58.089844 53.585938 C 58.089844 53.523438 58.089844 53.523438 58.089844 53.457031 C 58.09375 53.3125 58.09375 53.164062 58.09375 53.019531 C 58.09375 52.914062 58.09375 52.8125 58.09375 52.707031 C 58.09375 52.394531 58.09375 52.082031 58.09375 51.769531 C 58.097656 51.679688 58.097656 51.59375 58.097656 51.503906 C 58.097656 50.957031 58.097656 50.40625 58.097656 49.859375 C 58.097656 49.734375 58.097656 49.605469 58.097656 49.480469 C 58.097656 49.433594 58.097656 49.433594 58.097656 49.382812 C 58.097656 48.871094 58.101562 48.359375 58.101562 47.847656 C 58.105469 47.324219 58.105469 46.800781 58.105469 46.273438 C 58.105469 45.980469 58.105469 45.683594 58.105469 45.390625 C 58.109375 45.136719 58.109375 44.886719 58.109375 44.636719 C 58.109375 44.507812 58.109375 44.378906 58.109375 44.253906 C 58.109375 44.113281 58.109375 43.972656 58.109375 43.835938 C 58.109375 43.796875 58.109375 43.753906 58.109375 43.710938 C 58.113281 43.492188 58.113281 43.492188 57.992188 43.316406 C 57.960938 43.296875 57.925781 43.277344 57.890625 43.261719 C 57.859375 43.238281 57.828125 43.21875 57.792969 43.199219 C 57.742188 43.167969 57.742188 43.167969 57.6875 43.136719 C 57.648438 43.113281 57.609375 43.09375 57.570312 43.070312 C 57.527344 43.042969 57.484375 43.019531 57.441406 42.996094 C 57.394531 42.96875 57.351562 42.945312 57.304688 42.917969 C 57.210938 42.863281 57.117188 42.808594 57.023438 42.757812 C 56.8125 42.632812 56.597656 42.507812 56.382812 42.386719 C 56.300781 42.335938 56.214844 42.289062 56.132812 42.238281 C 51.609375 39.613281 51.609375 39.613281 51.480469 39.539062 C 51.398438 39.492188 51.316406 39.441406 51.230469 39.394531 C 50.976562 39.246094 50.722656 39.097656 50.464844 38.949219 C 50.382812 38.902344 50.296875 38.851562 50.214844 38.804688 C 50.011719 38.6875 49.8125 38.570312 49.613281 38.449219 C 49.578125 38.429688 49.539062 38.40625 49.503906 38.382812 C 49.433594 38.34375 49.367188 38.300781 49.296875 38.257812 C 49.160156 38.175781 49.066406 38.125 48.902344 38.117188 C 48.707031 38.183594 48.539062 38.28125 48.363281 38.386719 C 48.324219 38.40625 48.285156 38.429688 48.242188 38.453125 C 48.121094 38.523438 48 38.597656 47.875 38.667969 C 47.800781 38.714844 47.726562 38.757812 47.648438 38.800781 C 47.535156 38.867188 47.421875 38.9375 47.308594 39.003906 C 47.007812 39.179688 46.707031 39.351562 46.40625 39.527344 C 46.070312 39.71875 45.734375 39.914062 45.402344 40.109375 C 45.042969 40.320312 44.683594 40.527344 44.324219 40.730469 C 44.011719 40.910156 43.699219 41.09375 43.390625 41.277344 C 43.054688 41.472656 42.71875 41.667969 42.382812 41.859375 C 42.046875 42.054688 41.710938 42.25 41.375 42.445312 C 41.058594 42.628906 40.746094 42.816406 40.429688 43 C 40.363281 43.039062 40.296875 43.078125 40.230469 43.117188 C 40.191406 43.140625 40.148438 43.164062 40.109375 43.1875 C 40.074219 43.207031 40.035156 43.226562 40 43.25 C 39.910156 43.300781 39.910156 43.300781 39.792969 43.339844 C 39.78125 44.695312 39.773438 46.054688 39.769531 47.410156 C 39.765625 47.570312 39.765625 47.730469 39.765625 47.890625 C 39.765625 47.921875 39.765625 47.957031 39.765625 47.988281 C 39.761719 48.503906 39.757812 49.023438 39.753906 49.539062 C 39.75 50.070312 39.746094 50.597656 39.746094 51.128906 C 39.746094 51.457031 39.742188 51.78125 39.738281 52.109375 C 39.738281 52.335938 39.734375 52.558594 39.734375 52.785156 C 39.738281 52.914062 39.734375 53.042969 39.734375 53.171875 C 39.699219 53.660156 39.699219 53.660156 39.839844 54.105469 C 39.972656 54.234375 40.125 54.289062 40.296875 54.347656 C 40.375 54.390625 40.453125 54.4375 40.53125 54.484375 C 40.609375 54.53125 40.6875 54.578125 40.765625 54.621094 C 40.855469 54.671875 40.941406 54.722656 41.03125 54.773438 C 41.050781 54.785156 41.074219 54.800781 41.097656 54.8125 C 41.234375 54.890625 41.371094 54.972656 41.507812 55.050781 C 41.574219 55.089844 41.640625 55.132812 41.707031 55.171875 C 41.792969 55.21875 41.875 55.269531 41.960938 55.320312 C 42.480469 55.625 43.03125 55.871094 43.648438 55.722656 C 43.929688 55.609375 44.167969 55.417969 44.296875 55.136719 C 44.363281 54.96875 44.398438 54.816406 44.398438 54.632812 C 44.402344 54.574219 44.402344 54.574219 44.402344 54.519531 C 44.402344 54.476562 44.402344 54.4375 44.402344 54.394531 C 44.402344 54.351562 44.402344 54.308594 44.402344 54.265625 C 44.402344 54.121094 44.402344 53.976562 44.402344 53.832031 C 44.402344 53.726562 44.402344 53.625 44.402344 53.519531 C 44.402344 53.296875 44.402344 53.074219 44.402344 52.847656 C 44.402344 52.496094 44.402344 52.144531 44.40625 51.789062 C 44.40625 51.667969 44.40625 51.546875 44.40625 51.425781 C 44.40625 51.382812 44.40625 51.382812 44.40625 51.335938 C 44.40625 50.992188 44.40625 50.648438 44.410156 50.304688 C 44.410156 50.273438 44.410156 50.242188 44.410156 50.210938 C 44.410156 49.699219 44.410156 49.191406 44.410156 48.679688 C 44.410156 48.160156 44.414062 47.636719 44.414062 47.113281 C 44.414062 46.789062 44.414062 46.46875 44.414062 46.144531 C 44.414062 45.925781 44.417969 45.703125 44.417969 45.480469 C 44.417969 45.355469 44.417969 45.226562 44.417969 45.097656 C 44.417969 44.960938 44.417969 44.824219 44.417969 44.683594 C 44.417969 44.644531 44.417969 44.605469 44.417969 44.5625 C 44.417969 44.507812 44.417969 44.507812 44.417969 44.449219 C 44.417969 44.417969 44.417969 44.386719 44.417969 44.355469 C 44.4375 44.25 44.46875 44.21875 44.550781 44.15625 C 44.75 44.085938 44.964844 44.109375 45.175781 44.109375 C 45.261719 44.109375 45.34375 44.109375 45.425781 44.105469 C 45.480469 44.105469 45.535156 44.105469 45.585938 44.105469 C 45.636719 44.105469 45.683594 44.105469 45.734375 44.105469 C 45.863281 44.117188 45.945312 44.128906 46.058594 44.195312 C 46.167969 44.382812 46.144531 44.589844 46.144531 44.800781 C 46.144531 44.84375 46.144531 44.886719 46.144531 44.929688 C 46.144531 45.070312 46.144531 45.210938 46.144531 45.351562 C 46.144531 45.453125 46.144531 45.554688 46.144531 45.65625 C 46.144531 45.902344 46.144531 46.148438 46.144531 46.394531 C 46.144531 46.679688 46.144531 46.96875 46.144531 47.253906 C 46.144531 47.769531 46.144531 48.28125 46.144531 48.792969 C 46.144531 49.292969 46.144531 49.789062 46.144531 50.285156 C 46.144531 50.316406 46.144531 50.347656 46.144531 50.378906 C 46.144531 50.40625 46.144531 50.4375 46.144531 50.46875 C 46.144531 51.035156 46.140625 51.601562 46.140625 52.167969 C 46.140625 52.367188 46.140625 52.570312 46.140625 52.769531 C 46.140625 53.039062 46.140625 53.308594 46.140625 53.578125 C 46.140625 53.675781 46.140625 53.773438 46.140625 53.875 C 46.140625 56.050781 46.140625 56.050781 45.378906 56.832031 C 44.738281 57.398438 43.945312 57.53125 43.121094 57.5 C 42.085938 57.417969 41.171875 56.851562 40.300781 56.328125 C 40.171875 56.25 40.042969 56.175781 39.914062 56.097656 C 39.890625 56.085938 39.867188 56.074219 39.84375 56.058594 C 39.738281 55.996094 39.628906 55.9375 39.523438 55.875 C 38.875 55.5 38.355469 55.164062 38.128906 54.40625 C 38.078125 54.199219 38.082031 53.992188 38.082031 53.777344 C 38.082031 53.734375 38.082031 53.6875 38.082031 53.644531 C 38.082031 53.519531 38.082031 53.394531 38.082031 53.269531 C 38.082031 53.136719 38.082031 53.003906 38.078125 52.871094 C 38.078125 52.609375 38.078125 52.347656 38.078125 52.082031 C 38.078125 51.871094 38.078125 51.65625 38.078125 51.445312 C 38.078125 50.839844 38.078125 50.234375 38.078125 49.628906 C 38.078125 49.597656 38.078125 49.566406 38.078125 49.53125 C 38.078125 49.5 38.078125 49.464844 38.078125 49.433594 C 38.078125 48.902344 38.078125 48.375 38.074219 47.847656 C 38.074219 47.304688 38.074219 46.761719 38.074219 46.21875 C 38.074219 45.914062 38.074219 45.609375 38.074219 45.304688 C 38.074219 45.042969 38.070312 44.785156 38.074219 44.527344 C 38.074219 44.394531 38.074219 44.261719 38.074219 44.128906 C 38.070312 43.984375 38.070312 43.839844 38.074219 43.699219 C 38.074219 43.65625 38.070312 43.617188 38.070312 43.574219 C 38.078125 43.03125 38.265625 42.550781 38.625 42.152344 C 38.851562 41.9375 39.113281 41.796875 39.382812 41.644531 C 39.535156 41.558594 39.6875 41.46875 39.839844 41.382812 C 39.96875 41.304688 40.097656 41.230469 40.226562 41.15625 C 40.480469 41.007812 40.738281 40.859375 40.992188 40.710938 C 41.074219 40.664062 41.160156 40.613281 41.242188 40.566406 C 41.285156 40.542969 41.328125 40.519531 41.371094 40.492188 C 42.835938 39.640625 44.300781 38.792969 45.769531 37.941406 C 45.808594 37.917969 45.851562 37.890625 45.894531 37.867188 C 45.976562 37.820312 46.0625 37.769531 46.144531 37.722656 C 46.359375 37.597656 46.574219 37.472656 46.789062 37.347656 C 46.996094 37.226562 47.207031 37.105469 47.417969 36.984375 C 47.515625 36.925781 47.617188 36.867188 47.714844 36.808594 C 47.976562 36.652344 48.230469 36.511719 48.535156 36.453125 C 48.558594 36.445312 48.585938 36.441406 48.613281 36.433594 C 49.285156 36.320312 49.871094 36.621094 50.429688 36.957031 Z M 50.429688 36.957031 "/>
<path style=" stroke:none;fill-rule:nonzero;fill:rgb(40.392157%,62.352943%,38.431373%);fill-opacity:1;" d="M 50.921875 43.875 C 50.976562 43.875 50.976562 43.875 51.027344 43.875 C 51.105469 43.875 51.179688 43.875 51.253906 43.875 C 51.363281 43.871094 51.476562 43.871094 51.585938 43.871094 C 52.777344 43.863281 54.039062 44.070312 54.9375 44.917969 C 55.523438 45.511719 55.785156 46.28125 55.824219 47.105469 C 55.792969 47.234375 55.722656 47.273438 55.609375 47.34375 C 55.503906 47.359375 55.414062 47.367188 55.308594 47.367188 C 55.28125 47.367188 55.253906 47.367188 55.222656 47.367188 C 55.164062 47.367188 55.105469 47.367188 55.042969 47.367188 C 54.953125 47.363281 54.863281 47.367188 54.769531 47.367188 C 54.710938 47.367188 54.652344 47.367188 54.59375 47.367188 C 54.554688 47.367188 54.554688 47.367188 54.511719 47.367188 C 54.378906 47.363281 54.300781 47.347656 54.183594 47.277344 C 54.105469 47.191406 54.070312 47.144531 54.042969 47.035156 C 54.035156 47.003906 54.023438 46.976562 54.015625 46.945312 C 54.007812 46.914062 54 46.886719 53.992188 46.855469 C 53.863281 46.433594 53.683594 46.09375 53.289062 45.867188 C 52.316406 45.359375 50.886719 45.386719 49.851562 45.703125 C 49.703125 45.761719 49.578125 45.839844 49.449219 45.9375 C 49.382812 45.984375 49.382812 45.984375 49.308594 45.984375 C 49.128906 46.324219 49 46.652344 49.113281 47.039062 C 49.195312 47.230469 49.316406 47.304688 49.5 47.382812 C 50.28125 47.695312 51.148438 47.773438 51.976562 47.890625 C 55.03125 48.332031 55.03125 48.332031 55.765625 49.273438 C 56.175781 49.878906 56.246094 50.660156 56.125 51.371094 C 55.972656 52.117188 55.542969 52.722656 54.914062 53.140625 C 53.9375 53.726562 52.789062 53.90625 51.664062 53.878906 C 51.632812 53.878906 51.601562 53.878906 51.570312 53.878906 C 50.710938 53.863281 49.847656 53.78125 49.035156 53.492188 C 48.996094 53.476562 48.953125 53.464844 48.910156 53.449219 C 48.171875 53.164062 47.554688 52.640625 47.207031 51.917969 C 47.03125 51.511719 46.941406 51.109375 46.9375 50.660156 C 46.9375 50.609375 46.9375 50.5625 46.933594 50.507812 C 46.949219 50.378906 46.949219 50.378906 46.996094 50.3125 C 47.113281 50.226562 47.253906 50.246094 47.390625 50.246094 C 47.425781 50.246094 47.457031 50.246094 47.488281 50.246094 C 47.558594 50.246094 47.625 50.246094 47.695312 50.246094 C 47.796875 50.246094 47.902344 50.246094 48.007812 50.242188 C 48.074219 50.242188 48.136719 50.242188 48.203125 50.242188 C 48.234375 50.242188 48.265625 50.242188 48.300781 50.242188 C 48.511719 50.246094 48.511719 50.246094 48.609375 50.332031 C 48.648438 50.414062 48.675781 50.488281 48.691406 50.582031 C 48.699219 50.609375 48.707031 50.640625 48.714844 50.671875 C 48.722656 50.707031 48.730469 50.738281 48.734375 50.769531 C 48.835938 51.183594 48.980469 51.53125 49.34375 51.773438 C 49.371094 51.789062 49.394531 51.804688 49.421875 51.820312 C 49.445312 51.832031 49.464844 51.847656 49.488281 51.863281 C 50.480469 52.433594 52.195312 52.332031 53.253906 52.058594 C 53.640625 51.945312 53.941406 51.796875 54.191406 51.46875 C 54.320312 51.21875 54.367188 50.871094 54.3125 50.59375 C 54.195312 50.304688 54.03125 50.179688 53.753906 50.050781 C 52.988281 49.742188 52.128906 49.679688 51.316406 49.582031 C 48.527344 49.253906 48.527344 49.253906 47.683594 48.316406 C 47.339844 47.867188 47.25 47.371094 47.246094 46.816406 C 47.246094 46.773438 47.246094 46.730469 47.246094 46.6875 C 47.242188 46.03125 47.453125 45.449219 47.90625 44.972656 C 48.691406 44.183594 49.835938 43.878906 50.921875 43.875 Z M 50.921875 43.875 "/>
<path style=" stroke:none;fill-rule:nonzero;fill:rgb(24.313726%,52.549022%,23.921569%);fill-opacity:1;" d="M 29.933594 25.792969 C 30.0625 25.910156 30.136719 26.03125 30.21875 26.1875 C 30.230469 26.210938 30.242188 26.234375 30.257812 26.257812 C 30.28125 26.308594 30.308594 26.359375 30.335938 26.40625 C 30.402344 26.539062 30.472656 26.671875 30.542969 26.804688 C 30.554688 26.832031 30.570312 26.859375 30.585938 26.886719 C 30.703125 27.113281 30.828125 27.339844 30.957031 27.5625 C 31.152344 27.90625 31.339844 28.253906 31.523438 28.605469 C 31.730469 29 31.941406 29.390625 32.160156 29.777344 C 32.277344 29.996094 32.398438 30.210938 32.515625 30.425781 C 32.527344 30.453125 32.542969 30.476562 32.554688 30.5 C 32.734375 30.828125 32.914062 31.15625 33.089844 31.488281 C 33.25 31.785156 33.414062 32.082031 33.582031 32.378906 C 33.78125 32.730469 33.976562 33.089844 34.164062 33.449219 C 34.328125 33.757812 34.496094 34.066406 34.667969 34.371094 C 34.867188 34.722656 35.058594 35.078125 35.246094 35.433594 C 35.429688 35.777344 35.621094 36.121094 35.8125 36.460938 C 36.011719 36.816406 36.203125 37.171875 36.394531 37.53125 C 36.414062 37.578125 36.4375 37.621094 36.464844 37.664062 C 36.484375 37.703125 36.503906 37.742188 36.523438 37.785156 C 36.566406 37.855469 36.605469 37.929688 36.648438 38 C 36.699219 38.085938 36.699219 38.085938 36.699219 38.164062 C 36.222656 38.195312 35.859375 37.984375 35.460938 37.742188 C 35.394531 37.703125 35.328125 37.664062 35.261719 37.625 C 35.191406 37.585938 35.125 37.546875 35.054688 37.503906 C 34.84375 37.378906 34.632812 37.257812 34.417969 37.132812 C 34.335938 37.085938 34.25 37.035156 34.167969 36.988281 C 34.125 36.964844 34.082031 36.9375 34.039062 36.914062 C 33.246094 36.453125 32.449219 35.988281 31.652344 35.527344 C 31.613281 35.503906 31.570312 35.480469 31.527344 35.457031 C 31.445312 35.40625 31.359375 35.359375 31.277344 35.308594 C 31.066406 35.1875 30.855469 35.066406 30.644531 34.941406 C 30.242188 34.710938 29.835938 34.472656 29.433594 34.238281 C 29.097656 34.039062 28.761719 33.84375 28.421875 33.652344 C 27.964844 33.386719 27.507812 33.125 27.054688 32.855469 C 26.960938 32.800781 26.867188 32.746094 26.773438 32.691406 C 26.722656 32.660156 26.671875 32.632812 26.617188 32.601562 C 26.554688 32.5625 26.554688 32.5625 26.488281 32.523438 C 26.355469 32.433594 26.277344 32.339844 26.179688 32.210938 C 26.195312 32.183594 26.210938 32.160156 26.226562 32.132812 C 26.519531 31.640625 26.808594 31.148438 27.089844 30.65625 C 27.285156 30.308594 27.488281 29.96875 27.6875 29.625 C 27.917969 29.238281 28.144531 28.851562 28.367188 28.460938 C 28.570312 28.101562 28.777344 27.742188 28.984375 27.386719 C 29.078125 27.226562 29.171875 27.066406 29.265625 26.902344 C 29.289062 26.863281 29.3125 26.820312 29.335938 26.777344 C 29.382812 26.699219 29.425781 26.621094 29.472656 26.542969 C 29.621094 26.289062 29.773438 26.039062 29.933594 25.792969 Z M 29.933594 25.792969 "/>
<path style=" stroke:none;fill-rule:nonzero;fill:rgb(33.725491%,61.56863%,29.019609%);fill-opacity:1;" d="M 26.527344 19.53125 C 26.632812 19.625 26.691406 19.722656 26.757812 19.847656 C 26.777344 19.886719 26.800781 19.929688 26.820312 19.96875 C 26.84375 20.015625 26.867188 20.058594 26.890625 20.101562 C 26.941406 20.195312 26.988281 20.289062 27.039062 20.382812 C 27.050781 20.40625 27.0625 20.429688 27.078125 20.453125 C 27.191406 20.667969 27.3125 20.882812 27.433594 21.09375 C 27.640625 21.464844 27.839844 21.835938 28.039062 22.210938 C 28.226562 22.570312 28.421875 22.925781 28.621094 23.277344 C 28.800781 23.59375 28.96875 23.910156 29.136719 24.226562 C 29.332031 24.59375 29.53125 24.957031 29.738281 25.320312 C 29.757812 25.351562 29.777344 25.386719 29.796875 25.421875 C 29.820312 25.464844 29.820312 25.464844 29.847656 25.511719 C 29.894531 25.605469 29.9375 25.691406 29.972656 25.792969 C 29.929688 25.890625 29.929688 25.890625 29.855469 26 C 29.824219 26.042969 29.796875 26.089844 29.765625 26.132812 C 29.75 26.160156 29.734375 26.183594 29.714844 26.210938 C 29.605469 26.382812 29.507812 26.5625 29.40625 26.738281 C 29.359375 26.820312 29.3125 26.902344 29.261719 26.984375 C 29.238281 27.023438 29.214844 27.066406 29.191406 27.109375 C 29.078125 27.304688 28.964844 27.503906 28.847656 27.699219 C 28.804688 27.777344 28.757812 27.855469 28.714844 27.933594 C 28.441406 28.398438 28.171875 28.867188 27.902344 29.332031 C 27.878906 29.371094 27.855469 29.410156 27.835938 29.449219 C 27.789062 29.527344 27.742188 29.605469 27.699219 29.683594 C 27.566406 29.914062 27.433594 30.144531 27.296875 30.375 C 27.230469 30.488281 27.164062 30.601562 27.097656 30.71875 C 27.007812 30.875 26.914062 31.035156 26.824219 31.195312 C 26.761719 31.296875 26.703125 31.402344 26.644531 31.503906 C 26.613281 31.554688 26.585938 31.605469 26.554688 31.65625 C 26.515625 31.726562 26.472656 31.800781 26.433594 31.871094 C 26.410156 31.910156 26.386719 31.949219 26.363281 31.992188 C 26.308594 32.078125 26.257812 32.144531 26.179688 32.210938 C 25.953125 31.898438 25.9375 31.625 25.9375 31.246094 C 25.9375 31.199219 25.9375 31.152344 25.9375 31.105469 C 25.9375 30.976562 25.9375 30.847656 25.9375 30.71875 C 25.9375 30.582031 25.9375 30.441406 25.9375 30.304688 C 25.9375 30.03125 25.9375 29.761719 25.9375 29.492188 C 25.9375 29.269531 25.9375 29.050781 25.9375 28.828125 C 25.9375 28.796875 25.9375 28.765625 25.9375 28.734375 C 25.9375 28.671875 25.9375 28.605469 25.9375 28.542969 C 25.9375 27.945312 25.9375 27.347656 25.9375 26.75 C 25.9375 26.203125 25.9375 25.65625 25.9375 25.109375 C 25.933594 24.546875 25.933594 23.984375 25.933594 23.425781 C 25.933594 23.109375 25.933594 22.792969 25.933594 22.480469 C 25.933594 22.210938 25.933594 21.941406 25.933594 21.671875 C 25.933594 21.535156 25.933594 21.398438 25.933594 21.261719 C 25.933594 21.113281 25.933594 20.964844 25.933594 20.816406 C 25.933594 20.773438 25.933594 20.730469 25.933594 20.6875 C 25.9375 20.292969 26.023438 19.976562 26.296875 19.683594 C 26.371094 19.625 26.445312 19.578125 26.527344 19.53125 Z M 26.527344 19.53125 "/>
<path style=" stroke:none;fill-rule:nonzero;fill:rgb(40.392157%,62.352943%,38.431373%);fill-opacity:1;" d="M 88.558594 23.652344 C 88.707031 23.71875 88.84375 23.804688 88.984375 23.890625 C 89.066406 23.941406 89.148438 23.992188 89.230469 24.039062 C 89.273438 24.066406 89.3125 24.09375 89.355469 24.117188 C 89.488281 24.199219 89.621094 24.277344 89.753906 24.351562 C 89.796875 24.378906 89.835938 24.402344 89.882812 24.425781 C 89.964844 24.472656 90.046875 24.523438 90.128906 24.570312 C 90.164062 24.589844 90.203125 24.613281 90.242188 24.632812 C 90.273438 24.652344 90.304688 24.671875 90.339844 24.691406 C 90.414062 24.742188 90.414062 24.742188 90.453125 24.820312 C 90.457031 24.894531 90.460938 24.96875 90.460938 25.039062 C 90.460938 25.109375 90.460938 25.109375 90.460938 25.179688 C 90.460938 25.230469 90.460938 25.28125 90.460938 25.332031 C 90.464844 25.382812 90.464844 25.433594 90.464844 25.488281 C 90.464844 25.597656 90.464844 25.707031 90.464844 25.816406 C 90.464844 25.953125 90.464844 26.09375 90.46875 26.234375 C 90.46875 26.339844 90.46875 26.445312 90.46875 26.554688 C 90.46875 26.628906 90.472656 26.707031 90.472656 26.78125 C 90.472656 26.828125 90.472656 26.875 90.472656 26.921875 C 90.472656 26.964844 90.472656 27.003906 90.472656 27.046875 C 90.449219 27.179688 90.402344 27.226562 90.296875 27.308594 C 90.214844 27.367188 90.214844 27.367188 90.117188 27.417969 C 90.082031 27.4375 90.046875 27.457031 90.011719 27.476562 C 89.957031 27.507812 89.957031 27.507812 89.898438 27.539062 C 89.652344 27.675781 89.410156 27.8125 89.171875 27.960938 C 89.132812 27.984375 89.097656 28.007812 89.058594 28.03125 C 88.984375 28.078125 88.914062 28.121094 88.84375 28.167969 C 88.53125 28.359375 88.53125 28.359375 88.332031 28.34375 C 88.144531 28.292969 87.984375 28.183594 87.824219 28.082031 C 87.742188 28.035156 87.660156 27.984375 87.578125 27.933594 C 87.515625 27.894531 87.515625 27.894531 87.449219 27.855469 C 87.320312 27.777344 87.1875 27.699219 87.054688 27.621094 C 87.011719 27.597656 86.96875 27.574219 86.925781 27.546875 C 86.84375 27.5 86.761719 27.453125 86.679688 27.40625 C 86.640625 27.382812 86.605469 27.363281 86.566406 27.339844 C 86.535156 27.320312 86.5 27.300781 86.46875 27.28125 C 86.394531 27.230469 86.394531 27.230469 86.355469 27.15625 C 86.351562 27.082031 86.347656 27.007812 86.347656 26.933594 C 86.347656 26.886719 86.347656 26.839844 86.347656 26.792969 C 86.34375 26.742188 86.34375 26.691406 86.34375 26.640625 C 86.34375 26.589844 86.34375 26.539062 86.34375 26.484375 C 86.34375 26.378906 86.34375 26.269531 86.34375 26.160156 C 86.34375 26.019531 86.339844 25.882812 86.339844 25.742188 C 86.339844 25.636719 86.339844 25.527344 86.339844 25.421875 C 86.335938 25.34375 86.335938 25.269531 86.335938 25.191406 C 86.335938 25.144531 86.335938 25.097656 86.335938 25.050781 C 86.335938 25.011719 86.335938 24.96875 86.335938 24.925781 C 86.359375 24.792969 86.40625 24.75 86.507812 24.664062 C 86.574219 24.621094 86.640625 24.582031 86.707031 24.546875 C 86.746094 24.523438 86.785156 24.503906 86.828125 24.480469 C 86.867188 24.457031 86.910156 24.433594 86.953125 24.410156 C 87.207031 24.273438 87.457031 24.132812 87.699219 23.980469 C 87.734375 23.957031 87.769531 23.9375 87.804688 23.914062 C 87.867188 23.875 87.933594 23.832031 87.996094 23.792969 C 88.179688 23.675781 88.339844 23.597656 88.558594 23.652344 Z M 88.558594 23.652344 "/>
<path style=" stroke:none;fill-rule:nonzero;fill:rgb(40.392157%,62.352943%,38.431373%);fill-opacity:1;" d="M 64.148438 41.765625 C 64.507812 42.164062 64.613281 42.609375 64.59375 43.136719 C 64.566406 43.613281 64.332031 43.996094 63.992188 44.324219 C 63.613281 44.640625 63.164062 44.757812 62.675781 44.730469 C 62.328125 44.683594 62.039062 44.554688 61.757812 44.347656 C 61.722656 44.324219 61.683594 44.296875 61.644531 44.269531 C 61.34375 44.007812 61.140625 43.578125 61.101562 43.183594 C 61.066406 42.625 61.222656 42.222656 61.535156 41.773438 C 61.847656 41.453125 62.253906 41.230469 62.703125 41.199219 C 63.28125 41.203125 63.730469 41.363281 64.148438 41.765625 Z M 61.757812 42.015625 C 61.496094 42.371094 61.375 42.746094 61.425781 43.1875 C 61.5 43.558594 61.675781 43.882812 61.976562 44.117188 C 62.355469 44.371094 62.699219 44.433594 63.152344 44.386719 C 63.5625 44.285156 63.871094 44.042969 64.097656 43.6875 C 64.28125 43.347656 64.335938 42.984375 64.246094 42.601562 C 64.113281 42.207031 63.875 41.894531 63.515625 41.683594 C 62.917969 41.394531 62.203125 41.5 61.757812 42.015625 Z M 61.757812 42.015625 "/>
<path style=" stroke:none;fill-rule:nonzero;fill:rgb(40.392157%,62.352943%,38.431373%);fill-opacity:1;" d="M 62.183594 41.976562 C 63.152344 41.976562 63.152344 41.976562 63.421875 42.09375 C 63.554688 42.226562 63.566406 42.359375 63.578125 42.542969 C 63.574219 42.710938 63.503906 42.820312 63.394531 42.945312 C 63.371094 42.964844 63.371094 42.964844 63.34375 42.988281 C 63.367188 43.011719 63.394531 43.039062 63.417969 43.0625 C 63.519531 43.214844 63.542969 43.339844 63.566406 43.519531 C 63.574219 43.5625 63.574219 43.5625 63.582031 43.609375 C 63.601562 43.726562 63.617188 43.839844 63.617188 43.960938 C 63.546875 43.960938 63.476562 43.960938 63.40625 43.960938 C 63.367188 43.964844 63.328125 43.964844 63.285156 43.964844 C 63.191406 43.960938 63.191406 43.960938 63.152344 43.921875 C 63.140625 43.871094 63.136719 43.816406 63.128906 43.765625 C 63.128906 43.734375 63.125 43.703125 63.121094 43.667969 C 63.117188 43.636719 63.113281 43.601562 63.109375 43.570312 C 63.105469 43.535156 63.101562 43.503906 63.097656 43.46875 C 63.089844 43.386719 63.082031 43.304688 63.074219 43.222656 C 62.921875 43.207031 62.765625 43.195312 62.609375 43.183594 C 62.609375 43.4375 62.609375 43.695312 62.609375 43.960938 C 62.46875 43.960938 62.328125 43.960938 62.183594 43.960938 C 62.183594 43.304688 62.183594 42.652344 62.183594 41.976562 Z M 62.609375 42.328125 C 62.597656 42.492188 62.585938 42.660156 62.570312 42.832031 C 62.84375 42.859375 62.84375 42.859375 63.082031 42.75 C 63.164062 42.640625 63.164062 42.640625 63.152344 42.515625 C 63.121094 42.394531 63.121094 42.394531 62.996094 42.328125 C 62.898438 42.316406 62.898438 42.316406 62.796875 42.320312 C 62.734375 42.324219 62.671875 42.324219 62.609375 42.328125 Z M 62.609375 42.328125 "/>
</g>
</svg>
