<?xml version="1.0" encoding="UTF-8"?>
<svg xmlns="http://www.w3.org/2000/svg" xmlns:xlink="http://www.w3.org/1999/xlink" width="100px" height="50px" viewBox="0 0 100 50" version="1.1">
<g id="surface1">
<path style=" stroke:none;fill-rule:nonzero;fill:rgb(0%,84.705883%,100%);fill-opacity:1;" d="M 17.679688 11.082031 C 19.089844 11.800781 20.316406 12.605469 21.484375 13.671875 C 22.140625 13.472656 22.574219 13.199219 23.070312 12.742188 C 24.707031 11.28125 26.671875 10.410156 28.859375 10.449219 C 29.699219 10.578125 30.132812 10.875 30.746094 11.441406 C 31.644531 12.808594 31.730469 14.238281 31.703125 15.832031 C 31.703125 16.015625 31.703125 16.199219 31.703125 16.390625 C 31.695312 17.5 31.566406 18.464844 31.25 19.53125 C 31.363281 19.558594 31.476562 19.589844 31.59375 19.617188 C 33.929688 20.257812 36.40625 21.332031 37.757812 23.453125 C 38.152344 24.355469 38.214844 25.238281 37.890625 26.171875 C 36.566406 28.59375 33.878906 29.667969 31.445312 30.664062 C 31.472656 30.839844 31.5 31.019531 31.53125 31.199219 C 31.917969 33.742188 32.210938 36.429688 30.664062 38.671875 C 29.925781 39.429688 29.28125 39.511719 28.257812 39.550781 C 25.703125 39.460938 23.675781 37.792969 21.679688 36.328125 C 21.519531 36.457031 21.363281 36.585938 21.199219 36.722656 C 19.4375 38.136719 17.601562 39.46875 15.257812 39.5 C 14.957031 39.507812 14.957031 39.507812 14.648438 39.515625 C 13.703125 39.414062 13.214844 39 12.5625 38.328125 C 11.679688 37.09375 11.65625 35.882812 11.671875 34.410156 C 11.671875 34.238281 11.671875 34.066406 11.671875 33.890625 C 11.6875 32.707031 11.804688 31.617188 12.109375 30.46875 C 11.867188 30.441406 11.867188 30.441406 11.617188 30.414062 C 10.808594 30.246094 10.148438 29.949219 9.410156 29.578125 C 9.273438 29.507812 9.136719 29.4375 8.996094 29.367188 C 7.644531 28.660156 6.546875 27.835938 5.652344 26.585938 C 5.304688 25.425781 5.304688 24.429688 5.761719 23.304688 C 7.039062 21.421875 9.328125 20.191406 11.5 19.640625 C 11.699219 19.605469 11.902344 19.570312 12.109375 19.53125 C 12.046875 19.289062 11.980469 19.046875 11.914062 18.796875 C 11.703125 17.734375 11.667969 16.691406 11.65625 15.613281 C 11.652344 15.367188 11.652344 15.367188 11.648438 15.117188 C 11.648438 13.671875 11.859375 12.304688 12.890625 11.230469 C 14.273438 10.078125 16.128906 10.382812 17.679688 11.082031 Z M 14 12.425781 C 13.308594 13.402344 13.21875 14.40625 13.234375 15.578125 C 13.230469 15.832031 13.230469 16.089844 13.230469 16.355469 C 13.261719 17.304688 13.464844 18.214844 13.671875 19.140625 C 16.335938 19.136719 16.335938 19.136719 18.617188 18.027344 C 19.042969 17.441406 19.386719 16.851562 19.726562 16.210938 C 19.980469 15.878906 20.238281 15.554688 20.507812 15.234375 C 19.902344 14.382812 19.253906 13.886719 18.382812 13.34375 C 18.207031 13.226562 18.207031 13.226562 18.027344 13.113281 C 16.863281 12.371094 15.28125 11.527344 14 12.425781 Z M 22.851562 15.039062 C 23.121094 15.40625 23.394531 15.769531 23.675781 16.125 C 24.023438 16.601562 24.023438 16.601562 24.304688 17.121094 C 24.773438 17.886719 25.167969 18.425781 26.058594 18.699219 C 27.253906 18.945312 28.46875 19.0625 29.6875 19.140625 C 30.011719 18.007812 30.144531 16.996094 30.140625 15.820312 C 30.140625 15.671875 30.144531 15.523438 30.148438 15.375 C 30.148438 14.292969 29.953125 13.480469 29.492188 12.5 C 27.222656 10.984375 24.492188 13.585938 22.851562 15.039062 Z M 21.484375 16.40625 C 21.128906 16.792969 21.128906 16.792969 20.777344 17.273438 C 20.652344 17.433594 20.53125 17.59375 20.402344 17.761719 C 20.097656 18.109375 20.097656 18.109375 20.117188 18.359375 C 21.148438 18.359375 22.179688 18.359375 23.242188 18.359375 C 22.84375 17.5625 22.46875 17.058594 21.875 16.40625 C 21.746094 16.40625 21.617188 16.40625 21.484375 16.40625 Z M 17.757812 20.882812 C 17.503906 21.40625 17.292969 21.929688 17.117188 22.484375 C 16.945312 22.988281 16.671875 23.398438 16.382812 23.839844 C 16.082031 24.320312 16.015625 24.554688 16.023438 25.125 C 16.292969 26.066406 16.769531 26.839844 17.273438 27.671875 C 17.371094 27.839844 17.46875 28.007812 17.570312 28.179688 C 17.953125 28.820312 18.335938 29.457031 18.75 30.078125 C 19.679688 30.273438 20.632812 30.289062 21.582031 30.308594 C 21.785156 30.3125 21.785156 30.3125 21.992188 30.320312 C 23.589844 30.347656 23.589844 30.347656 25.0625 29.804688 C 25.722656 29.117188 26.089844 28.3125 26.390625 27.414062 C 26.5625 26.953125 26.5625 26.953125 26.855469 26.441406 C 27.453125 25.410156 27.453125 25.410156 27.40625 24.261719 C 27.128906 23.699219 26.816406 23.191406 26.464844 22.667969 C 26.355469 22.488281 26.242188 22.308594 26.128906 22.125 C 25.824219 21.644531 25.519531 21.171875 25.195312 20.703125 C 25.113281 20.558594 25.03125 20.414062 24.945312 20.269531 C 24.253906 19.554688 23.101562 19.714844 22.160156 19.695312 C 21.957031 19.691406 21.957031 19.691406 21.753906 19.691406 C 21.617188 19.6875 21.484375 19.6875 21.34375 19.683594 C 19.277344 19.648438 19.277344 19.648438 17.757812 20.882812 Z M 14.257812 20.703125 C 14.34375 21.058594 14.433594 21.410156 14.527344 21.765625 C 14.578125 21.960938 14.625 22.160156 14.675781 22.363281 C 14.789062 22.882812 14.789062 22.882812 15.234375 23.046875 C 15.6875 22.144531 16.136719 21.242188 16.601562 20.3125 C 15.621094 20.3125 15.132812 20.371094 14.257812 20.703125 Z M 26.757812 20.3125 C 26.839844 20.464844 26.921875 20.613281 27.007812 20.769531 C 27.113281 20.964844 27.222656 21.160156 27.332031 21.363281 C 27.4375 21.558594 27.542969 21.753906 27.652344 21.953125 C 27.816406 22.25 27.972656 22.550781 28.125 22.851562 C 28.253906 22.851562 28.382812 22.851562 28.515625 22.851562 C 28.621094 22.609375 28.722656 22.363281 28.820312 22.117188 C 28.90625 21.914062 28.90625 21.914062 28.992188 21.707031 C 29.152344 21.230469 29.152344 21.230469 28.90625 20.507812 C 28.195312 20.445312 27.488281 20.378906 26.757812 20.3125 Z M 7.519531 23.691406 C 7.148438 24.113281 7.039062 24.371094 6.933594 24.925781 C 7.085938 25.964844 7.605469 26.488281 8.398438 27.148438 C 8.875 27.464844 9.363281 27.742188 9.863281 28.015625 C 9.984375 28.082031 10.109375 28.148438 10.234375 28.21875 C 11.0625 28.640625 11.773438 28.820312 12.695312 28.90625 C 12.933594 28.347656 13.160156 27.785156 13.390625 27.222656 C 13.457031 27.0625 13.523438 26.90625 13.59375 26.742188 C 14.234375 25.148438 13.871094 24.128906 13.269531 22.582031 C 13.214844 22.4375 13.160156 22.296875 13.101562 22.148438 C 12.96875 21.796875 12.832031 21.445312 12.695312 21.09375 C 10.863281 21.09375 8.785156 22.46875 7.519531 23.691406 Z M 30.859375 21.09375 C 30.707031 21.449219 30.558594 21.800781 30.40625 22.15625 C 30.324219 22.351562 30.238281 22.550781 30.152344 22.753906 C 30.0625 22.980469 29.976562 23.203125 29.882812 23.4375 C 29.820312 23.570312 29.757812 23.703125 29.691406 23.839844 C 29.320312 24.726562 29.242188 25.265625 29.582031 26.179688 C 29.730469 26.507812 29.882812 26.835938 30.042969 27.160156 C 30.15625 27.414062 30.15625 27.414062 30.273438 27.671875 C 30.464844 28.085938 30.660156 28.496094 30.859375 28.90625 C 32.949219 28.355469 34.601562 27.527344 36.132812 25.976562 C 36.425781 25.386719 36.425781 25.074219 36.328125 24.414062 C 35.453125 22.757812 33.503906 21.941406 31.835938 21.289062 C 31.285156 21.144531 31.285156 21.144531 30.859375 21.09375 Z M 15.039062 26.953125 C 14.90625 27.265625 14.777344 27.578125 14.648438 27.894531 C 14.574219 28.066406 14.503906 28.242188 14.429688 28.421875 C 14.226562 28.914062 14.226562 28.914062 14.257812 29.492188 C 15.09375 29.621094 15.933594 29.75 16.796875 29.882812 C 16.28125 28.917969 15.765625 27.949219 15.234375 26.953125 C 15.171875 26.953125 15.105469 26.953125 15.039062 26.953125 Z M 28.320312 26.953125 C 28.042969 27.363281 27.777344 27.777344 27.515625 28.199219 C 27.4375 28.316406 27.363281 28.433594 27.285156 28.554688 C 27.097656 28.859375 26.925781 29.175781 26.757812 29.492188 C 26.820312 29.621094 26.886719 29.75 26.953125 29.882812 C 27.308594 29.828125 27.660156 29.769531 28.015625 29.710938 C 28.210938 29.679688 28.410156 29.648438 28.613281 29.617188 C 28.773438 29.574219 28.933594 29.535156 29.101562 29.492188 C 29.355469 29.09375 29.355469 29.09375 29.144531 28.59375 C 29.070312 28.398438 28.996094 28.203125 28.917969 28.003906 C 28.84375 27.808594 28.769531 27.609375 28.695312 27.410156 C 28.605469 27.183594 28.605469 27.183594 28.515625 26.953125 C 28.453125 26.953125 28.386719 26.953125 28.320312 26.953125 Z M 13.671875 31.054688 C 13.351562 32.171875 13.234375 33.238281 13.21875 34.398438 C 13.21875 34.53125 13.214844 34.660156 13.210938 34.796875 C 13.210938 35.921875 13.515625 36.730469 14.097656 37.683594 C 14.746094 38.0625 15.308594 38.039062 16.015625 37.890625 C 17.679688 37.226562 19.152344 36.335938 20.507812 35.15625 C 20.257812 34.449219 19.976562 33.960938 19.46875 33.410156 C 19.050781 32.949219 18.675781 32.511719 18.3125 32 C 17.648438 31.320312 17.117188 31.234375 16.210938 31.175781 C 16.074219 31.164062 15.9375 31.148438 15.796875 31.136719 C 15.089844 31.070312 14.382812 31.039062 13.671875 31.054688 Z M 26.082031 31.238281 C 24.734375 31.796875 23.683594 33.289062 23.046875 34.570312 C 22.980469 35.167969 22.980469 35.167969 23.390625 35.515625 C 25.582031 37.261719 25.582031 37.261719 28.222656 38.011719 C 29 37.875 29.238281 37.75 29.6875 37.109375 C 30.546875 35.230469 30.363281 33.019531 29.882812 31.054688 C 28.828125 30.527344 27.175781 30.957031 26.082031 31.238281 Z M 20.117188 31.640625 C 20.546875 32.355469 20.957031 32.957031 21.484375 33.59375 C 22.160156 33.316406 22.480469 32.988281 22.898438 32.398438 C 23.167969 32.023438 23.167969 32.023438 23.4375 31.640625 C 22.34375 31.640625 21.246094 31.640625 20.117188 31.640625 Z M 20.117188 31.640625 "/>
<path style=" stroke:none;fill-rule:nonzero;fill:rgb(0%,84.705883%,100%);fill-opacity:1;" d="M 44.140625 19.140625 C 50.78125 19.140625 50.78125 19.140625 52.734375 20.117188 C 53.859375 21.488281 53.875 22.894531 53.710938 24.609375 C 53.390625 25.550781 52.878906 26.136719 52.027344 26.636719 C 51.808594 26.742188 51.589844 26.84375 51.367188 26.953125 C 51.171875 27.082031 50.980469 27.210938 50.78125 27.34375 C 50.875 27.484375 50.96875 27.625 51.066406 27.769531 C 51.417969 28.285156 51.769531 28.804688 52.117188 29.324219 C 52.269531 29.550781 52.417969 29.773438 52.570312 30 C 52.789062 30.320312 53.007812 30.644531 53.222656 30.96875 C 53.355469 31.160156 53.484375 31.355469 53.621094 31.554688 C 53.90625 32.03125 53.90625 32.03125 53.90625 32.421875 C 53.152344 32.5625 52.507812 32.601562 51.757812 32.421875 C 51.070312 31.785156 50.644531 31.023438 50.183594 30.210938 C 50.054688 30.003906 49.929688 29.792969 49.800781 29.578125 C 49.566406 29.191406 49.332031 28.800781 49.105469 28.410156 C 48.894531 28.046875 48.671875 27.691406 48.4375 27.34375 C 47.664062 27.28125 46.890625 27.214844 46.09375 27.148438 C 46.09375 28.890625 46.09375 30.628906 46.09375 32.421875 C 45.449219 32.421875 44.804688 32.421875 44.140625 32.421875 C 44.140625 28.039062 44.140625 23.65625 44.140625 19.140625 Z M 46.09375 20.703125 C 46.09375 22.3125 46.09375 23.925781 46.09375 25.585938 C 46.746094 25.601562 47.398438 25.617188 48.070312 25.632812 C 48.375 25.644531 48.375 25.644531 48.6875 25.65625 C 49.84375 25.671875 50.492188 25.578125 51.367188 24.804688 C 51.835938 24.140625 52.003906 23.636719 51.953125 22.839844 C 51.804688 22.011719 51.457031 21.605469 50.78125 21.09375 C 49.769531 20.65625 48.855469 20.65625 47.777344 20.679688 C 47.222656 20.6875 46.667969 20.695312 46.09375 20.703125 Z M 46.09375 20.703125 "/>
<path style=" stroke:none;fill-rule:nonzero;fill:rgb(0%,84.705883%,100%);fill-opacity:1;" d="M 62.304688 23.046875 C 63.546875 23.902344 64.140625 25.109375 64.453125 26.5625 C 64.453125 27.078125 64.453125 27.59375 64.453125 28.125 C 61.9375 28.125 59.425781 28.125 56.835938 28.125 C 57.359375 29.867188 57.359375 29.867188 58.59375 30.859375 C 59.5625 31.183594 60.621094 31.25 61.585938 30.878906 C 61.851562 30.742188 62.109375 30.597656 62.363281 30.445312 C 62.695312 30.273438 62.695312 30.273438 63.28125 30.273438 C 63.609375 30.761719 63.609375 30.761719 63.867188 31.25 C 62.664062 32.308594 61.566406 32.726562 59.972656 32.703125 C 59.765625 32.699219 59.765625 32.699219 59.554688 32.699219 C 57.96875 32.644531 57.148438 32.214844 56.078125 31.078125 C 54.996094 29.835938 54.992188 28.480469 55.019531 26.894531 C 55.132812 25.503906 55.578125 24.621094 56.578125 23.65625 C 58.285156 22.289062 60.339844 22.078125 62.304688 23.046875 Z M 57.617188 24.804688 C 57.089844 25.515625 56.835938 26.046875 56.835938 26.953125 C 58.769531 26.953125 60.703125 26.953125 62.695312 26.953125 C 62.574219 25.6875 62.574219 25.6875 61.9375 24.828125 C 61.839844 24.71875 61.738281 24.605469 61.636719 24.488281 C 60.960938 23.894531 60.128906 23.957031 59.277344 23.96875 C 58.539062 24.050781 58.15625 24.300781 57.617188 24.804688 Z M 57.617188 24.804688 "/>
<path style=" stroke:none;fill-rule:nonzero;fill:rgb(0%,84.705883%,100%);fill-opacity:1;" d="M 73.046875 23.046875 C 73.554688 23.5 73.914062 24 74.21875 24.609375 C 74.234375 25.191406 74.242188 25.773438 74.238281 26.355469 C 74.238281 26.53125 74.238281 26.703125 74.238281 26.878906 C 74.234375 27.433594 74.234375 27.988281 74.230469 28.539062 C 74.230469 28.914062 74.230469 29.289062 74.226562 29.664062 C 74.226562 30.582031 74.222656 31.503906 74.21875 32.421875 C 73.703125 32.421875 73.1875 32.421875 72.65625 32.421875 C 72.59375 32.226562 72.527344 32.035156 72.460938 31.835938 C 72.253906 31.964844 72.050781 32.09375 71.839844 32.226562 C 70.632812 32.828125 69.203125 32.878906 67.921875 32.480469 C 67.089844 32.054688 66.585938 31.507812 66.210938 30.664062 C 66.058594 29.394531 66.035156 28.410156 66.796875 27.34375 C 67.648438 26.539062 68.429688 26.21875 69.59375 26.109375 C 70.625 26.199219 71.710938 26.398438 72.460938 27.148438 C 72.535156 25.78125 72.535156 25.78125 71.875 24.609375 C 71.046875 24.109375 70.277344 24.109375 69.335938 24.21875 C 68.59375 24.507812 68.121094 24.820312 67.578125 25.390625 C 67.449219 25.390625 67.320312 25.390625 67.1875 25.390625 C 66.84375 24.953125 66.84375 24.953125 66.601562 24.414062 C 66.730469 23.800781 67.015625 23.613281 67.503906 23.21875 C 69.238281 22.253906 71.257812 22.125 73.046875 23.046875 Z M 67.96875 28.515625 C 67.707031 29.179688 67.707031 29.179688 67.773438 29.882812 C 68.082031 30.488281 68.359375 30.902344 68.898438 31.324219 C 69.859375 31.589844 70.632812 31.550781 71.546875 31.1875 C 72.003906 30.898438 72.316406 30.6875 72.65625 30.273438 C 72.789062 29.675781 72.773438 29.117188 72.65625 28.515625 C 71.925781 27.726562 71.203125 27.507812 70.152344 27.464844 C 69.082031 27.480469 68.652344 27.691406 67.96875 28.515625 Z M 67.96875 28.515625 "/>
<path style=" stroke:none;fill-rule:nonzero;fill:rgb(0%,84.705883%,100%);fill-opacity:1;" d="M 81.296875 22.414062 C 82.625 22.5 83.808594 22.871094 84.765625 23.828125 C 84.863281 24.117188 84.863281 24.117188 84.960938 24.414062 C 84.617188 24.816406 84.617188 24.816406 84.179688 25.195312 C 83.515625 25.175781 83.128906 24.808594 82.617188 24.414062 C 81.699219 24.109375 80.953125 24.113281 80.042969 24.449219 C 79.253906 24.960938 78.8125 25.476562 78.515625 26.367188 C 78.382812 27.75 78.316406 29.019531 79.175781 30.171875 C 79.941406 30.894531 80.730469 31.058594 81.761719 31.042969 C 82.496094 30.839844 82.976562 30.511719 83.59375 30.078125 C 83.789062 30.078125 83.980469 30.078125 84.179688 30.078125 C 84.605469 30.566406 84.605469 30.566406 84.960938 31.054688 C 84.714844 31.28125 84.464844 31.503906 84.214844 31.726562 C 84.078125 31.851562 83.941406 31.976562 83.796875 32.105469 C 82.738281 32.949219 81.167969 32.710938 79.882812 32.617188 C 78.59375 32.304688 77.667969 31.359375 76.953125 30.273438 C 76.324219 28.777344 76.273438 26.816406 76.792969 25.269531 C 77.507812 23.9375 78.742188 22.957031 80.1875 22.496094 C 80.558594 22.46875 80.929688 22.441406 81.296875 22.414062 Z M 81.296875 22.414062 "/>
<path style=" stroke:none;fill-rule:nonzero;fill:rgb(0%,84.705883%,100%);fill-opacity:1;" d="M 23.535156 22.398438 C 24.394531 23.195312 24.644531 23.722656 24.695312 24.890625 C 24.664062 25.859375 24.503906 26.417969 23.828125 27.148438 C 22.976562 27.917969 22.28125 28.054688 21.171875 28.003906 C 20.207031 27.851562 19.699219 27.335938 19.066406 26.636719 C 18.636719 25.742188 18.589844 24.996094 18.75 24.023438 C 19.757812 22.109375 21.511719 21.425781 23.535156 22.398438 Z M 23.535156 22.398438 "/>
<path style=" stroke:none;fill-rule:nonzero;fill:rgb(0%,84.705883%,100%);fill-opacity:1;" d="M 87.109375 20.117188 C 87.625 20.117188 88.140625 20.117188 88.671875 20.117188 C 88.671875 21.019531 88.671875 21.921875 88.671875 22.851562 C 89.316406 22.851562 89.960938 22.851562 90.625 22.851562 C 90.625 23.304688 90.625 23.753906 90.625 24.21875 C 89.980469 24.21875 89.335938 24.21875 88.671875 24.21875 C 88.695312 25.039062 88.71875 25.859375 88.746094 26.679688 C 88.753906 26.957031 88.761719 27.238281 88.769531 27.515625 C 88.78125 27.917969 88.792969 28.320312 88.804688 28.71875 C 88.8125 28.960938 88.820312 29.203125 88.828125 29.453125 C 88.859375 29.957031 88.914062 30.378906 89.0625 30.859375 C 89.710938 31.074219 90.160156 31.023438 90.820312 30.859375 C 90.949219 31.246094 91.078125 31.632812 91.210938 32.03125 C 90.425781 32.726562 89.8125 32.714844 88.796875 32.6875 C 88.101562 32.59375 87.757812 32.363281 87.304688 31.835938 C 87.058594 31.101562 87.085938 30.417969 87.089844 29.65625 C 87.089844 29.5 87.089844 29.34375 87.089844 29.183594 C 87.09375 28.6875 87.09375 28.191406 87.097656 27.699219 C 87.097656 27.363281 87.097656 27.027344 87.101562 26.691406 C 87.101562 25.867188 87.105469 25.042969 87.109375 24.21875 C 86.59375 24.21875 86.078125 24.21875 85.546875 24.21875 C 85.546875 23.765625 85.546875 23.316406 85.546875 22.851562 C 86.0625 22.851562 86.578125 22.851562 87.109375 22.851562 C 87.109375 21.949219 87.109375 21.046875 87.109375 20.117188 Z M 87.109375 20.117188 "/>
</g>
</svg>
