<?xml version="1.0" encoding="UTF-8"?>
<svg xmlns="http://www.w3.org/2000/svg" xmlns:xlink="http://www.w3.org/1999/xlink" width="100px" height="px" viewBox="0 0 100 38" version="1.1">
<g id="surface1">
<path style=" stroke:none;fill-rule:nonzero;fill:rgb(26.274511%,72.156864%,51.764709%);fill-opacity:1;" d="M 1.121094 1.699219 C 3.132812 1.675781 5.144531 1.664062 7.152344 1.652344 C 8.089844 1.648438 9.023438 1.644531 9.957031 1.632812 C 10.769531 1.625 11.582031 1.621094 12.398438 1.617188 C 12.828125 1.617188 13.257812 1.613281 13.691406 1.609375 C 14.097656 1.601562 14.5 1.601562 14.90625 1.601562 C 15.054688 1.601562 15.207031 1.597656 15.355469 1.597656 C 16.476562 1.574219 16.476562 1.574219 16.828125 1.878906 C 16.976562 2.097656 17.078125 2.304688 17.179688 2.546875 C 17.25 2.671875 17.320312 2.796875 17.394531 2.921875 C 17.460938 3.050781 17.53125 3.175781 17.601562 3.304688 C 17.96875 3.984375 18.351562 4.660156 18.738281 5.328125 C 19.222656 6.160156 19.703125 6.996094 20.179688 7.832031 C 20.238281 7.933594 20.296875 8.039062 20.355469 8.144531 C 20.636719 8.632812 20.917969 9.125 21.195312 9.617188 C 21.5625 9.101562 21.875 8.5625 22.175781 8.007812 C 22.542969 7.332031 22.921875 6.664062 23.308594 6 C 23.878906 5.015625 24.441406 4.027344 25 3.035156 C 25.0625 2.929688 25.121094 2.820312 25.183594 2.710938 C 25.261719 2.570312 25.261719 2.570312 25.34375 2.429688 C 25.390625 2.34375 25.441406 2.257812 25.488281 2.167969 C 25.527344 2.085938 25.5625 2.003906 25.601562 1.921875 C 25.769531 1.699219 25.769531 1.699219 26.046875 1.640625 C 26.160156 1.640625 26.273438 1.640625 26.390625 1.640625 C 26.488281 1.640625 26.488281 1.640625 26.585938 1.640625 C 26.796875 1.636719 27.011719 1.640625 27.226562 1.644531 C 27.378906 1.644531 27.53125 1.644531 27.683594 1.644531 C 28.097656 1.644531 28.511719 1.644531 28.929688 1.648438 C 29.363281 1.652344 29.796875 1.652344 30.230469 1.652344 C 31.050781 1.65625 31.871094 1.660156 32.695312 1.664062 C 33.628906 1.667969 34.5625 1.671875 35.5 1.671875 C 37.421875 1.679688 39.347656 1.6875 41.269531 1.699219 C 41.136719 2.039062 40.992188 2.347656 40.808594 2.664062 C 40.753906 2.761719 40.695312 2.859375 40.640625 2.957031 C 40.582031 3.0625 40.519531 3.164062 40.457031 3.269531 C 40.394531 3.378906 40.332031 3.488281 40.269531 3.597656 C 40.140625 3.828125 40.007812 4.054688 39.878906 4.28125 C 39.632812 4.703125 39.390625 5.128906 39.148438 5.554688 C 38.59375 6.53125 38.03125 7.507812 37.464844 8.484375 C 37.066406 9.175781 36.671875 9.867188 36.273438 10.5625 C 35.773438 11.441406 35.265625 12.320312 34.757812 13.199219 C 34.359375 13.886719 33.960938 14.582031 33.566406 15.277344 C 33.066406 16.15625 32.558594 17.035156 32.050781 17.910156 C 31.652344 18.601562 31.253906 19.296875 30.859375 19.988281 C 30.140625 21.25 29.414062 22.503906 28.691406 23.757812 C 28.011719 24.929688 27.335938 26.101562 26.667969 27.277344 C 26.222656 28.054688 25.777344 28.828125 25.328125 29.605469 C 24.929688 30.296875 24.53125 30.988281 24.136719 31.683594 C 23.199219 33.324219 22.261719 34.964844 21.289062 36.585938 C 21.050781 36.367188 20.902344 36.140625 20.742188 35.859375 C 20.691406 35.769531 20.636719 35.679688 20.585938 35.589844 C 20.53125 35.492188 20.476562 35.394531 20.417969 35.296875 C 20.300781 35.089844 20.183594 34.882812 20.0625 34.675781 C 20.003906 34.570312 19.945312 34.464844 19.882812 34.355469 C 19.605469 33.871094 19.328125 33.390625 19.046875 32.90625 C 18.9375 32.71875 18.828125 32.53125 18.722656 32.34375 C 18.667969 32.25 18.613281 32.15625 18.558594 32.058594 C 16.761719 28.949219 16.761719 28.949219 16.597656 28.664062 C 16.488281 28.476562 16.378906 28.289062 16.269531 28.097656 C 16 27.632812 15.730469 27.167969 15.460938 26.703125 C 14.871094 25.671875 14.273438 24.648438 13.679688 23.621094 C 13.03125 22.503906 12.382812 21.382812 11.738281 20.265625 C 11.464844 19.796875 11.195312 19.328125 10.925781 18.859375 C 10.601562 18.296875 10.277344 17.738281 9.953125 17.179688 C 9.359375 16.148438 8.765625 15.121094 8.171875 14.097656 C 7.519531 12.980469 6.875 11.859375 6.226562 10.742188 C 5.957031 10.273438 5.6875 9.804688 5.414062 9.335938 C 5.09375 8.773438 4.769531 8.214844 4.445312 7.652344 C 4.339844 7.46875 4.230469 7.285156 4.125 7.101562 C 4.074219 7.011719 4.019531 6.917969 3.964844 6.824219 C 3.660156 6.292969 3.351562 5.765625 3.046875 5.238281 C 3.011719 5.175781 2.976562 5.117188 2.941406 5.054688 C 2.769531 4.761719 2.601562 4.472656 2.429688 4.179688 C 2.273438 3.910156 2.117188 3.640625 1.964844 3.375 C 1.898438 3.257812 1.828125 3.140625 1.761719 3.023438 C 1.65625 2.839844 1.550781 2.660156 1.445312 2.476562 C 1.414062 2.417969 1.382812 2.363281 1.347656 2.304688 C 1.121094 1.90625 1.121094 1.90625 1.121094 1.699219 Z M 1.121094 1.699219 "/>
<path style=" stroke:none;fill-rule:nonzero;fill:rgb(20.784314%,28.627452%,36.862746%);fill-opacity:1;" d="M 9.242188 1.792969 C 10.195312 1.738281 11.144531 1.699219 12.097656 1.675781 C 12.539062 1.664062 12.980469 1.648438 13.421875 1.621094 C 16.265625 1.460938 16.265625 1.460938 16.996094 2 C 17.449219 2.53125 17.699219 3.128906 17.925781 3.78125 C 18.046875 4.128906 18.210938 4.414062 18.40625 4.726562 C 18.507812 4.90625 18.613281 5.085938 18.714844 5.269531 C 18.832031 5.472656 18.949219 5.675781 19.0625 5.878906 C 19.121094 5.980469 19.179688 6.082031 19.238281 6.1875 C 19.429688 6.519531 19.617188 6.851562 19.808594 7.183594 C 19.839844 7.238281 19.871094 7.292969 19.902344 7.351562 C 20.058594 7.617188 20.210938 7.886719 20.363281 8.152344 C 20.640625 8.640625 20.917969 9.128906 21.195312 9.617188 C 21.5625 9.101562 21.875 8.5625 22.175781 8.007812 C 22.59375 7.238281 23.03125 6.476562 23.472656 5.71875 C 23.785156 5.175781 24.09375 4.636719 24.402344 4.089844 C 24.453125 4 24.453125 4 24.503906 3.910156 C 24.671875 3.613281 24.835938 3.320312 25 3.027344 C 25.0625 2.917969 25.121094 2.8125 25.183594 2.703125 C 25.261719 2.5625 25.261719 2.5625 25.34375 2.417969 C 25.390625 2.335938 25.441406 2.253906 25.488281 2.167969 C 25.542969 2.070312 25.542969 2.070312 25.59375 1.96875 C 25.816406 1.746094 25.980469 1.746094 26.285156 1.746094 C 26.355469 1.746094 26.425781 1.746094 26.496094 1.75 C 26.570312 1.75 26.644531 1.75 26.71875 1.75 C 26.964844 1.75 27.207031 1.75 27.453125 1.753906 C 27.621094 1.753906 27.789062 1.757812 27.960938 1.757812 C 28.40625 1.757812 28.851562 1.761719 29.296875 1.765625 C 29.75 1.769531 30.203125 1.769531 30.660156 1.773438 C 31.550781 1.777344 32.441406 1.785156 33.332031 1.792969 C 33.257812 1.921875 33.257812 1.921875 33.183594 2.058594 C 33.117188 2.175781 33.050781 2.292969 32.980469 2.410156 C 32.949219 2.46875 32.917969 2.527344 32.882812 2.585938 C 32.664062 2.972656 32.445312 3.359375 32.230469 3.746094 C 31.554688 4.941406 30.875 6.132812 30.179688 7.316406 C 29.859375 7.859375 29.546875 8.402344 29.230469 8.945312 C 29.175781 9.039062 29.121094 9.136719 29.066406 9.230469 C 28.957031 9.421875 28.84375 9.613281 28.734375 9.804688 C 27.683594 11.625 26.628906 13.445312 25.574219 15.261719 C 24.167969 17.683594 22.769531 20.105469 21.382812 22.535156 C 21.289062 22.535156 21.195312 22.535156 21.101562 22.535156 C 20.960938 22.285156 20.816406 22.039062 20.675781 21.789062 C 20.550781 21.570312 20.421875 21.347656 20.296875 21.128906 C 19.980469 20.570312 19.660156 20.011719 19.34375 19.457031 C 18.78125 18.46875 18.214844 17.484375 17.648438 16.5 C 16.898438 15.207031 16.15625 13.90625 15.414062 12.609375 C 14.792969 11.515625 14.167969 10.421875 13.539062 9.335938 C 13.085938 8.554688 12.636719 7.773438 12.191406 6.988281 C 12.132812 6.886719 12.074219 6.789062 12.015625 6.683594 C 11.714844 6.15625 11.414062 5.628906 11.113281 5.101562 C 10.992188 4.886719 10.871094 4.675781 10.75 4.460938 C 10.691406 4.359375 10.632812 4.257812 10.574219 4.152344 C 10.210938 3.519531 9.847656 2.894531 9.472656 2.273438 C 9.242188 1.894531 9.242188 1.894531 9.242188 1.792969 Z M 9.242188 1.792969 "/>
<path style=" stroke:none;fill-rule:nonzero;fill:rgb(4.313726%,4.313726%,4.313726%);fill-opacity:1;" d="M 47.804688 7.730469 C 48.148438 7.964844 48.214844 8.355469 48.324219 8.734375 C 48.347656 8.8125 48.371094 8.886719 48.394531 8.964844 C 48.46875 9.226562 48.546875 9.488281 48.621094 9.746094 C 48.679688 9.9375 48.734375 10.125 48.789062 10.3125 C 48.9375 10.800781 49.082031 11.292969 49.226562 11.78125 C 49.433594 12.488281 49.640625 13.195312 49.851562 13.898438 C 50.761719 16.964844 51.664062 20.035156 52.566406 23.101562 C 53.101562 21.386719 53.617188 19.667969 54.125 17.941406 C 54.234375 17.5625 54.347656 17.179688 54.457031 16.800781 C 54.808594 15.605469 55.160156 14.414062 55.507812 13.21875 C 55.679688 12.628906 55.851562 12.042969 56.023438 11.453125 C 56.144531 11.03125 56.269531 10.605469 56.390625 10.183594 C 56.46875 9.921875 56.542969 9.660156 56.621094 9.398438 C 56.675781 9.21875 56.726562 9.035156 56.777344 8.855469 C 56.808594 8.75 56.839844 8.640625 56.875 8.53125 C 56.902344 8.4375 56.929688 8.34375 56.957031 8.25 C 57.050781 8.007812 57.125 7.886719 57.328125 7.730469 C 57.898438 7.597656 58.3125 7.628906 58.824219 7.921875 C 59.0625 8.121094 59.0625 8.121094 59.195312 8.390625 C 59.164062 9.097656 58.976562 9.726562 58.769531 10.394531 C 58.714844 10.566406 58.714844 10.566406 58.660156 10.742188 C 58.585938 10.992188 58.507812 11.238281 58.433594 11.488281 C 58.308594 11.886719 58.183594 12.289062 58.0625 12.6875 C 57.90625 13.195312 57.75 13.699219 57.59375 14.207031 C 57.140625 15.683594 56.6875 17.164062 56.234375 18.644531 C 56.085938 19.136719 55.933594 19.625 55.785156 20.117188 C 55.6875 20.429688 55.59375 20.738281 55.5 21.050781 C 55.453125 21.199219 55.40625 21.351562 55.359375 21.5 C 55.121094 22.277344 54.886719 23.058594 54.660156 23.839844 C 54.621094 23.972656 54.582031 24.105469 54.542969 24.238281 C 54.472656 24.480469 54.40625 24.722656 54.335938 24.964844 C 53.96875 26.234375 53.96875 26.234375 53.390625 26.578125 C 52.703125 26.78125 52.167969 26.746094 51.539062 26.402344 C 51.257812 26.171875 51.179688 25.9375 51.074219 25.59375 C 51.042969 25.484375 51.007812 25.375 50.972656 25.261719 C 50.9375 25.144531 50.898438 25.023438 50.863281 24.902344 C 50.824219 24.777344 50.785156 24.648438 50.746094 24.523438 C 50.640625 24.183594 50.535156 23.839844 50.433594 23.5 C 50.324219 23.140625 50.210938 22.777344 50.101562 22.417969 C 49.921875 21.832031 49.738281 21.242188 49.558594 20.652344 C 49.324219 19.886719 49.089844 19.121094 48.855469 18.359375 C 48.648438 17.6875 48.445312 17.019531 48.238281 16.351562 C 47.914062 15.296875 47.589844 14.238281 47.261719 13.183594 C 47.121094 12.738281 46.984375 12.292969 46.847656 11.84375 C 46.75 11.539062 46.65625 11.234375 46.558594 10.929688 C 46.457031 10.59375 46.351562 10.257812 46.246094 9.921875 C 46.214844 9.824219 46.183594 9.722656 46.152344 9.621094 C 45.875 8.722656 45.875 8.722656 45.9375 8.296875 C 46.492188 7.710938 47.027344 7.5625 47.804688 7.730469 Z M 47.804688 7.730469 "/>
<path style=" stroke:none;fill-rule:nonzero;fill:rgb(4.313726%,4.313726%,4.313726%);fill-opacity:1;" d="M 79.320312 15.007812 C 79.394531 15.066406 79.472656 15.121094 79.550781 15.179688 C 79.621094 15.230469 79.6875 15.28125 79.757812 15.335938 C 80.648438 16.054688 81.144531 17.078125 81.324219 18.199219 C 81.425781 19.929688 81.425781 19.929688 80.921875 20.511719 C 80.425781 20.964844 79.910156 21.050781 79.261719 21.046875 C 79.199219 21.046875 79.132812 21.046875 79.066406 21.046875 C 78.859375 21.046875 78.648438 21.046875 78.441406 21.046875 C 78.296875 21.046875 78.148438 21.046875 78.003906 21.042969 C 77.621094 21.042969 77.238281 21.042969 76.855469 21.039062 C 76.464844 21.039062 76.074219 21.039062 75.683594 21.035156 C 74.921875 21.035156 74.15625 21.03125 73.390625 21.027344 C 73.414062 21.285156 73.441406 21.539062 73.46875 21.796875 C 73.476562 21.867188 73.484375 21.941406 73.492188 22.015625 C 73.589844 22.894531 73.890625 23.53125 74.585938 24.09375 C 75.613281 24.792969 76.765625 24.816406 77.964844 24.703125 C 78.539062 24.585938 79.046875 24.320312 79.546875 24.015625 C 79.871094 23.832031 80.027344 23.785156 80.390625 23.855469 C 80.703125 24.046875 80.894531 24.164062 81.019531 24.511719 C 81.074219 24.835938 81.078125 25.011719 80.933594 25.320312 C 80.324219 26.164062 79.128906 26.511719 78.152344 26.683594 C 76.148438 26.816406 74.316406 26.664062 72.699219 25.335938 C 71.917969 24.585938 71.300781 23.53125 71.226562 22.425781 C 71.226562 22.351562 71.226562 22.277344 71.226562 22.199219 C 71.222656 22.117188 71.222656 22.03125 71.222656 21.941406 C 71.222656 21.851562 71.21875 21.761719 71.21875 21.667969 C 71.21875 21.570312 71.21875 21.476562 71.21875 21.378906 C 71.214844 21.179688 71.214844 20.976562 71.214844 20.777344 C 71.214844 20.570312 71.210938 20.367188 71.207031 20.164062 C 71.1875 18.558594 71.238281 17.328125 72.269531 16.03125 C 72.328125 15.949219 72.386719 15.871094 72.445312 15.792969 C 72.953125 15.191406 73.691406 14.714844 74.417969 14.425781 C 74.484375 14.398438 74.554688 14.371094 74.625 14.339844 C 76.195312 13.808594 77.96875 14.070312 79.320312 15.007812 Z M 73.886719 17.066406 C 73.492188 17.667969 73.375 18.265625 73.382812 18.980469 C 73.382812 19.082031 73.386719 19.183594 73.386719 19.289062 C 73.386719 19.363281 73.386719 19.441406 73.390625 19.519531 C 74.074219 19.523438 74.761719 19.53125 75.445312 19.535156 C 75.765625 19.535156 76.082031 19.535156 76.402344 19.539062 C 76.769531 19.542969 77.136719 19.546875 77.5 19.546875 C 77.617188 19.546875 77.730469 19.550781 77.847656 19.550781 C 77.953125 19.550781 78.058594 19.550781 78.171875 19.550781 C 78.261719 19.550781 78.355469 19.550781 78.453125 19.550781 C 78.757812 19.511719 78.933594 19.421875 79.179688 19.234375 C 79.339844 18.550781 79.199219 17.878906 78.855469 17.277344 C 78.410156 16.632812 77.816406 16.085938 77.03125 15.933594 C 75.773438 15.824219 74.714844 16 73.886719 17.066406 Z M 73.886719 17.066406 "/>
<path style=" stroke:none;fill-rule:nonzero;fill:rgb(3.921569%,3.921569%,3.921569%);fill-opacity:1;" d="M 60.972656 14.332031 C 61.507812 14.699219 61.507812 14.699219 61.601562 15.132812 C 61.601562 15.261719 61.601562 15.386719 61.597656 15.515625 C 61.597656 15.585938 61.597656 15.65625 61.597656 15.730469 C 61.597656 15.960938 61.597656 16.191406 61.59375 16.421875 C 61.59375 16.585938 61.59375 16.746094 61.59375 16.90625 C 61.597656 17.332031 61.59375 17.757812 61.589844 18.183594 C 61.585938 18.863281 61.585938 19.542969 61.585938 20.222656 C 61.585938 20.460938 61.585938 20.695312 61.582031 20.933594 C 61.578125 21.960938 61.660156 22.871094 62.371094 23.667969 C 62.371094 23.730469 62.371094 23.792969 62.371094 23.855469 C 62.445312 23.890625 62.445312 23.890625 62.523438 23.925781 C 62.746094 24.042969 62.746094 24.042969 63.011719 24.234375 C 63.664062 24.652344 64.324219 24.707031 65.078125 24.609375 C 65.917969 24.335938 66.515625 23.871094 66.960938 23.105469 C 67.292969 22.382812 67.277344 21.660156 67.273438 20.882812 C 67.269531 20.636719 67.269531 20.394531 67.273438 20.148438 C 67.273438 19.628906 67.273438 19.113281 67.273438 18.59375 C 67.273438 17.992188 67.273438 17.386719 67.277344 16.785156 C 67.277344 16.542969 67.273438 16.304688 67.273438 16.0625 C 67.273438 15.914062 67.273438 15.769531 67.273438 15.621094 C 67.273438 15.554688 67.273438 15.488281 67.273438 15.417969 C 67.277344 14.96875 67.378906 14.742188 67.695312 14.425781 C 68.160156 14.191406 68.503906 14.234375 69 14.332031 C 69.320312 14.449219 69.363281 14.507812 69.5625 14.804688 C 69.578125 15.042969 69.585938 15.273438 69.585938 15.511719 C 69.585938 15.582031 69.585938 15.652344 69.589844 15.726562 C 69.589844 15.964844 69.589844 16.203125 69.589844 16.441406 C 69.589844 16.609375 69.589844 16.773438 69.589844 16.941406 C 69.589844 17.289062 69.589844 17.636719 69.589844 17.984375 C 69.589844 18.429688 69.589844 18.875 69.59375 19.320312 C 69.59375 19.660156 69.59375 20.003906 69.59375 20.347656 C 69.59375 20.511719 69.59375 20.675781 69.597656 20.839844 C 69.605469 22.621094 69.292969 23.984375 68.039062 25.316406 C 66.773438 26.503906 65.390625 26.761719 63.730469 26.703125 C 62.421875 26.609375 61.351562 25.84375 60.464844 24.917969 C 59.761719 24.078125 59.371094 23.046875 59.367188 21.960938 C 59.367188 21.882812 59.367188 21.808594 59.367188 21.726562 C 59.363281 21.476562 59.363281 21.222656 59.363281 20.96875 C 59.359375 20.882812 59.359375 20.796875 59.359375 20.707031 C 59.359375 20.25 59.355469 19.789062 59.355469 19.332031 C 59.355469 18.859375 59.351562 18.386719 59.347656 17.914062 C 59.347656 17.550781 59.34375 17.1875 59.34375 16.824219 C 59.34375 16.648438 59.34375 16.472656 59.339844 16.300781 C 59.339844 16.054688 59.339844 15.8125 59.339844 15.566406 C 59.339844 15.496094 59.335938 15.421875 59.335938 15.347656 C 59.339844 15.019531 59.355469 14.839844 59.558594 14.574219 C 60 14.242188 60.441406 14.140625 60.972656 14.332031 Z M 60.972656 14.332031 "/>
<path style=" stroke:none;fill-rule:nonzero;fill:rgb(4.705882%,4.705882%,4.705882%);fill-opacity:1;" d="M 98.261719 14.875 C 98.414062 14.992188 98.414062 14.992188 98.597656 15.277344 C 98.644531 15.671875 98.621094 15.890625 98.449219 16.246094 C 98.183594 16.546875 98.054688 16.613281 97.664062 16.691406 C 97.398438 16.632812 97.160156 16.53125 96.914062 16.425781 C 95.96875 16.03125 94.875 15.792969 93.871094 16.148438 C 93.339844 16.425781 93.019531 16.671875 92.808594 17.253906 C 92.757812 17.621094 92.773438 17.925781 92.921875 18.269531 C 93.546875 19.050781 94.550781 19.269531 95.46875 19.535156 C 97.898438 20.246094 97.898438 20.246094 98.550781 21.359375 C 99.039062 22.304688 99.140625 23.335938 98.894531 24.375 C 98.515625 25.386719 97.882812 25.910156 96.941406 26.378906 C 95.449219 26.953125 93.539062 26.878906 92.0625 26.308594 C 91.976562 26.273438 91.886719 26.238281 91.792969 26.203125 C 91.230469 25.953125 90.8125 25.605469 90.476562 25.082031 C 90.363281 24.78125 90.386719 24.613281 90.503906 24.316406 C 90.53125 24.25 90.554688 24.1875 90.582031 24.121094 C 90.664062 23.949219 90.664062 23.949219 90.851562 23.761719 C 91.34375 23.667969 91.574219 23.789062 91.988281 24.066406 C 93.09375 24.8125 94.214844 24.9375 95.519531 24.800781 C 95.992188 24.695312 96.320312 24.535156 96.691406 24.222656 C 96.917969 23.761719 96.988281 23.300781 96.871094 22.796875 C 96.582031 22.109375 95.957031 21.785156 95.300781 21.5 C 94.824219 21.316406 94.328125 21.179688 93.835938 21.03125 C 92.585938 20.664062 91.644531 20.261719 90.960938 19.085938 C 90.609375 18.375 90.648438 17.40625 90.835938 16.648438 C 91.1875 15.738281 91.789062 15.019531 92.625 14.519531 C 94.324219 13.785156 96.671875 13.929688 98.261719 14.875 Z M 98.261719 14.875 "/>
<path style=" stroke:none;fill-rule:nonzero;fill:rgb(2.352941%,2.352941%,2.352941%);fill-opacity:1;" d="M 87.996094 14.257812 C 88.101562 14.265625 88.101562 14.265625 88.207031 14.273438 C 88.507812 14.355469 88.664062 14.488281 88.890625 14.710938 C 88.949219 14.972656 88.949219 14.972656 88.949219 15.277344 C 88.949219 15.394531 88.949219 15.511719 88.949219 15.632812 C 88.949219 15.761719 88.949219 15.890625 88.949219 16.019531 C 88.949219 16.152344 88.949219 16.289062 88.949219 16.425781 C 88.953125 16.796875 88.949219 17.164062 88.949219 17.535156 C 88.945312 17.921875 88.949219 18.3125 88.949219 18.699219 C 88.949219 19.351562 88.945312 20.003906 88.945312 20.65625 C 88.941406 21.410156 88.941406 22.160156 88.941406 22.910156 C 88.945312 23.636719 88.945312 24.363281 88.941406 25.085938 C 88.941406 25.394531 88.941406 25.703125 88.941406 26.007812 C 88.945312 26.375 88.941406 26.738281 88.941406 27.101562 C 88.9375 27.234375 88.9375 27.363281 88.941406 27.496094 C 88.945312 28.742188 88.78125 30.074219 88.046875 31.117188 C 88.007812 31.175781 87.964844 31.234375 87.921875 31.296875 C 87.398438 31.984375 86.710938 32.292969 85.875 32.417969 C 85.351562 32.457031 84.945312 32.449219 84.5 32.160156 C 84.257812 31.910156 84.226562 31.824219 84.191406 31.46875 C 84.226562 31.023438 84.273438 30.867188 84.59375 30.550781 C 84.898438 30.457031 85.195312 30.398438 85.507812 30.347656 C 85.851562 30.257812 86.023438 30.144531 86.273438 29.890625 C 86.386719 29.6875 86.386719 29.6875 86.4375 29.460938 C 86.457031 29.386719 86.480469 29.316406 86.5 29.242188 C 86.660156 28.363281 86.660156 27.476562 86.660156 26.585938 C 86.660156 26.457031 86.660156 26.328125 86.660156 26.199219 C 86.660156 25.921875 86.660156 25.644531 86.660156 25.367188 C 86.660156 24.929688 86.664062 24.492188 86.664062 24.054688 C 86.664062 23.980469 86.664062 23.90625 86.664062 23.828125 C 86.664062 23.679688 86.664062 23.527344 86.664062 23.375 C 86.667969 22.355469 86.671875 21.339844 86.671875 20.320312 C 86.671875 19.632812 86.671875 18.945312 86.675781 18.253906 C 86.679688 17.890625 86.679688 17.527344 86.675781 17.164062 C 86.675781 16.820312 86.675781 16.480469 86.679688 16.136719 C 86.679688 15.953125 86.679688 15.769531 86.679688 15.582031 C 86.679688 15.472656 86.679688 15.363281 86.683594 15.25 C 86.683594 15.105469 86.683594 15.105469 86.683594 14.960938 C 86.761719 14.617188 86.921875 14.519531 87.207031 14.332031 C 87.480469 14.230469 87.710938 14.230469 87.996094 14.257812 Z M 87.996094 14.257812 "/>
<path style=" stroke:none;fill-rule:nonzero;fill:rgb(6.27451%,6.27451%,6.27451%);fill-opacity:1;" d="M 84.578125 24.175781 C 84.910156 24.523438 85.058594 24.851562 85.082031 25.339844 C 85.039062 25.785156 84.875 26.140625 84.539062 26.4375 C 84.152344 26.6875 83.828125 26.742188 83.378906 26.683594 C 82.882812 26.496094 82.589844 26.222656 82.351562 25.742188 C 82.300781 25.273438 82.300781 24.902344 82.511719 24.476562 C 83.070312 23.851562 83.871094 23.632812 84.578125 24.175781 Z M 84.578125 24.175781 "/>
<path style=" stroke:none;fill-rule:nonzero;fill:rgb(7.058824%,7.058824%,7.058824%);fill-opacity:1;" d="M 88.441406 8.597656 C 88.78125 8.820312 89.003906 9.019531 89.132812 9.414062 C 89.214844 9.839844 89.167969 10.148438 88.929688 10.507812 C 88.625 10.839844 88.28125 11.007812 87.835938 11.054688 C 87.332031 11.03125 87.039062 10.855469 86.675781 10.511719 C 86.414062 10.214844 86.429688 9.933594 86.4375 9.554688 C 86.476562 9.207031 86.601562 9.023438 86.835938 8.769531 C 87.382812 8.457031 87.84375 8.375 88.441406 8.597656 Z M 88.441406 8.597656 "/>
<path style=" stroke:none;fill-rule:nonzero;fill:rgb(27.843139%,27.843139%,27.843139%);fill-opacity:1;" d="M 73.203125 15.085938 C 73.265625 15.117188 73.324219 15.148438 73.390625 15.179688 C 73.050781 15.523438 72.710938 15.867188 72.363281 16.21875 C 72.300781 16.1875 72.238281 16.15625 72.175781 16.125 C 72.488281 15.722656 72.804688 15.402344 73.203125 15.085938 Z M 73.203125 15.085938 "/>
<path style=" stroke:none;fill-rule:nonzero;fill:rgb(33.725491%,33.725491%,33.725491%);fill-opacity:1;" d="M 84.984375 30.492188 C 85.070312 30.519531 85.070312 30.519531 85.152344 30.550781 C 85.050781 30.613281 85.050781 30.613281 84.945312 30.675781 C 84.722656 30.8125 84.519531 30.957031 84.3125 31.117188 C 84.550781 30.417969 84.550781 30.417969 84.984375 30.492188 Z M 84.984375 30.492188 "/>
</g>
</svg>
